<?xml version="1.0" encoding="utf-8"?>
<!-- Generator: Adobe Illustrator 27.5.0, SVG Export Plug-In . SVG Version: 6.00 Build 0)  -->
<svg version="1.1" id="Boy_and_girl_chatting_on_mobile"
	 xmlns="http://www.w3.org/2000/svg" xmlns:xlink="http://www.w3.org/1999/xlink" x="0px" y="0px" viewBox="0 0 2000 2000"
	 style="enable-background:new 0 0 2000 2000;" xml:space="preserve">
<rect style="fill:#FFFFFF;" width="2000" height="2000"/>
<g>
	<g>
		<path style="fill:#170E30;" d="M986.167,591.429l57.403,87.209c0.871,1.323,2.356,2.11,3.939,2.088l45.292-0.632
			c3.667-0.051,5.827-4.136,3.805-7.195l-57.205-86.577c-0.859-1.3-2.312-2.081-3.87-2.081h-45.49
			C986.349,584.24,984.136,588.344,986.167,591.429z"/>
		<path style="fill:#FFB5A6;" d="M1315.289,1614.16c0,0,0.158,43.196,0,50.92c-0.158,7.725,5.991,8.198,11.351,8.355
			c5.36,0.158,12.454,0.158,17.499,0c5.045-0.158,6.779-0.788,7.252-11.508c0.473-10.72,4.256-51.078,4.256-51.078h-33.737
			L1315.289,1614.16z"/>
		<path style="fill:#FFB5A6;" d="M1487.219,1614.16c0,0,0.158,43.196,0,50.92c-0.158,7.725,5.991,8.198,11.351,8.355
			c5.36,0.158,12.454,0.158,17.499,0c5.045-0.158,6.779-0.788,7.252-11.508c0.473-10.72,4.257-51.078,4.257-51.078h-33.737
			L1487.219,1614.16z"/>
		<path style="fill:#642A85;" d="M1268.309,967.801c0,0-1.419,374.1-0.788,435.268c0.631,61.168,6.096,144.827,7.777,173.834
			c1.682,29.007,7.147,41.619,31.53,42.46s41.199,1.682,52.129,2.102c10.93,0.42,16.395-11.771,18.077-41.199
			c1.682-29.428,23.542-366.375,29.218-417.453c0,0,7.567,216.609,48.24,417.138c11.246,48.661,17.131,47.4,37.731,47.4
			s24.803,0.006,30.794,0.003c5.991-0.003,11.456,1.678,12.297-14.191c0.841-15.87-8.933-659.391-8.933-659.391l-157.964-28.377
			l-70.942,5.675l-18.918,17.972L1268.309,967.801z"/>
		<path style="fill:#E4446D;" d="M1424.22,477.568c0,0,112.145-7.568,149.98,69.365c37.836,76.932,33.737,244.46,8.933,248.244
			c-19.14,3.08-22.228,2.397-22.228,2.397s-0.158,119.307-0.158,141.378s0.315,29.007-28.061,30.899s-199.268,1.524-244.671,1.708
			c-45.403,0.184-45.718,6.805-45.718-84.316c0-66.633-1.051-73.99-1.051-73.99s-26.065,22.071-50.027,18.708
			c-23.963-3.363-71.677-30.689-106.781-98.793l29.848-34.052c0,0,60.957,27.746,68.945,35.944c0,0,9.173-214.192,164.652-250.766
			L1424.22,477.568z"/>
		<path style="fill:#FFB5A6;" d="M1468.681,752.611c0,0-15.134-3.153-30.584-22.071c-15.45-18.918-43.196-16.395-48.24-15.765
			c-5.045,0.631-4.204,6.831,4.835,10.825c9.038,3.994,13.873,7.882,8.408,8.618c-5.465,0.736-20.81,1.366-35.944-1.577
			c-15.134-2.943-18.077,5.991-11.14,13.453c6.937,7.462,13.873,16.08,34.052,24.488c20.179,8.408,38.256,10.3,48.24,10.615
			s22.701,0.525,31.214,4.519L1468.681,752.611z"/>
		<g>
			<path style="fill:#E4446D;" d="M1519.443,617.349c0,0,19.548,71.257,14.504,109.093c0,0-60.222,0-71.888,12.297l5.675,52.97
				c0,0,0.946,8.198,62.744,5.675l30.426,0.19"/>
			<path style="fill:#C12955;" d="M1519.443,617.349c2.447,8.885,4.605,17.848,6.611,26.845c1.012,4.497,1.923,9.015,2.841,13.533
				c0.841,4.533,1.698,9.063,2.411,13.62c1.473,9.102,2.73,18.251,3.383,27.464c0.656,9.2,0.945,18.482-0.205,27.703l-0.058,0.467
				l-0.479,0.004c-6.142,0.047-12.299,0.265-18.439,0.607c-6.142,0.345-12.276,0.829-18.382,1.526
				c-6.103,0.705-12.191,1.601-18.16,2.976c-2.979,0.696-5.936,1.5-8.779,2.574c-2.818,1.083-5.614,2.426-7.698,4.479l0.159-0.471
				l3.882,36.706l0.971,9.177l0.485,4.588l0.243,2.294l0.015,0.143l0.008,0.065c0.003-0.009,0.002-0.017-0.001-0.025
				c0.014,0.019,0.053,0.087,0.072,0.133c0.095,0.11,0.188,0.232,0.297,0.346c0.271,0.211,0.511,0.447,0.843,0.615
				c0.596,0.4,1.31,0.659,1.982,0.97c0.714,0.239,1.424,0.492,2.147,0.71l2.209,0.563c0.741,0.172,1.497,0.295,2.244,0.445
				c3.001,0.565,6.049,0.92,9.102,1.206c12.229,1.082,24.549,0.969,36.843,0.713c6.149-0.257,12.304-0.069,18.457,0l18.457,0.25
				l-18.455,0.019c-6.151,0.021-12.302-0.077-18.448,0.269l-4.61,0.179l-4.616,0.084l-4.617,0.081l-4.619-0.016
				c-6.158,0.005-12.32-0.223-18.469-0.707c-3.073-0.263-6.146-0.594-9.196-1.143c-0.761-0.146-1.526-0.265-2.284-0.434
				l-2.267-0.558c-0.75-0.219-1.493-0.476-2.238-0.721c-0.726-0.327-1.471-0.588-2.164-1.04c-0.359-0.18-0.686-0.473-1.017-0.739
				c-0.158-0.159-0.308-0.34-0.453-0.527c-0.068-0.126-0.129-0.224-0.191-0.38c-0.016-0.054-0.03-0.109-0.04-0.164l-0.009-0.078
				l-0.016-0.143l-0.249-2.294l-0.498-4.587l-0.996-9.175l-3.982-36.699l-0.031-0.283l0.19-0.188
				c2.326-2.299,5.232-3.663,8.126-4.794c2.918-1.11,5.917-1.937,8.934-2.644c6.045-1.375,12.17-2.259,18.304-2.951
				c6.137-0.684,12.292-1.152,18.453-1.482c6.162-0.327,12.323-0.529,18.501-0.559l-0.537,0.47l0.622-6.843
				c0.128-2.287,0.117-4.586,0.183-6.879l0.036-1.721l-0.05-1.722l-0.103-3.444l-0.104-3.445l-0.246-3.44
				c-0.576-9.18-1.755-18.32-3.152-27.417c-1.396-9.101-3.07-18.161-4.932-27.182
				C1523.789,635.259,1521.761,626.268,1519.443,617.349z"/>
		</g>
		<path style="fill:#FFB5A6;" d="M1110.625,708.415c0,0-11.759-10.036-16.221-34.049c-4.462-24.014-30.009-35.13-34.736-37.001
			s-6.969,3.972-0.96,11.817c6.009,7.845,8.381,13.578,3.234,11.598c-5.147-1.98-18.907-8.798-30.767-18.65
			c-11.86-9.851-18.732-3.43-16.233,6.447c2.499,9.877,4.443,20.768,18.102,37.836c13.659,17.068,28.605,27.411,37.21,32.484
			s14.681,5.472,20.229,13.064L1110.625,708.415z"/>
		<path style="fill:#2D115F;" d="M1478.955,1652.836c14.754-4.223,21.168,2.039,24.375,6.699c3.207,4.66,2.886,12.815,8.499,13.252
			c5.613,0.437,7.537-15.291,12.669-15.291c5.132,0,7.537,5.825,7.698,24.611c0.16,18.786,2.245,35.388-10.263,35.679
			c-12.508,0.291-107.124,2.767-117.868,2.621c-10.744-0.146-30.79-1.456-12.348-12.524c18.442-11.068,32.073-12.233,59.495-36.407
			C1467.248,1657.35,1478.955,1652.836,1478.955,1652.836z"/>
		<path style="fill:#2D115F;" d="M1307.188,1652.836c14.754-4.223,21.168,2.039,24.375,6.699c3.207,4.66,2.887,12.815,8.499,13.252
			c5.613,0.437,7.537-15.291,12.669-15.291c5.132,0,7.537,5.825,7.698,24.611c0.16,18.786,2.245,35.388-10.263,35.679
			c-12.508,0.291-107.124,2.767-117.868,2.621c-10.744-0.146-30.79-1.456-12.348-12.524c18.442-11.068,32.073-12.233,59.495-36.407
			C1295.481,1657.35,1307.188,1652.836,1307.188,1652.836z"/>
		<path style="fill:#FFB5A6;" d="M1420.288,418.686c0,0,5.828,56.306,3.305,67.183s-9.301,29.796-29.953,36.259
			c-20.652,6.464-33.894,0.946-41.146-19.391s-3.778-63.832-3.778-63.832l4.409-28.865l6.937-9.617l15.134-4.414l11.824-8.04
			l7.725-0.946l12.612,5.675l3.784,6.621l6.148,8.04l2.995,6.306L1420.288,418.686z"/>
		<path style="fill:#FF9D8D;" d="M1386.927,396.706c0,0,3.473,47.05-38.891,55.731v-25.528l9.345-25.066l10.135-5.137l15.562-4.48
			l5.991-0.946L1386.927,396.706z"/>
		<path style="fill:#FFB5A6;" d="M1338.358,442.044c14.714-3.994,32.877-9.89,41.619-29.428c6.253-13.19,6.758-17.476,6.758-17.476
			l5.854,1.186l19.969-8.828l5.675-24.278l-10.089-18.287l-12.927-3.153l-12.612-3.784l-6.937-24.593l-26.485-7.252l-31.214-2.838
			l-17.341,4.414l-2.893,7.131c0,0-7.512,43.632-5.935,57.821c1.577,14.188,10.326,50.053,11.666,56.281s4.02,16.868,14.188,16.159
			S1338.358,442.044,1338.358,442.044z"/>
		<path style="fill:#481F70;" d="M1301.718,233.698c30.873,0,23.463,27.168,75.33,39.517c51.866,12.349,48.162,33.343,46.927,75.33
			s3.705,71.625-2.47,70.39c-6.175-1.235-28.011-5.812-34.578-22.228c-2.47-6.175,14.819-3.705,17.289-14.819
			c2.47-11.114,3.928-31.28-14.359-33.172s-3.784,27.956-12.402,28.167c-14.253,0.21-5.465-54.651-5.465-54.651
			s-77.983,7.988-97.952-25.434C1254.068,263.375,1276.218,235.13,1301.718,233.698z"/>
	</g>
	<g>
		<path style="fill:#170E30;" d="M974.179,651.946l-57.403,87.209c-0.871,1.323-2.356,2.11-3.939,2.088l-45.292-0.632
			c-3.667-0.051-5.827-4.136-3.805-7.195l57.205-86.577c0.859-1.3,2.312-2.081,3.87-2.081h45.49
			C973.997,644.757,976.209,648.862,974.179,651.946z"/>
		<path style="fill:#FFB5A6;" d="M876.347,748.195c0,0,10.457-8.754,14.782-29.283c4.325-20.529,26.854-30.447,31.02-32.123
			c4.166-1.676,6.022,3.259,0.63,10.046c-5.391,6.787-7.566,11.711-3.032,9.934s16.684-7.827,27.226-16.426
			s16.436-3.252,14.077,5.203c-2.359,8.455-4.251,17.764-16.493,32.54s-25.49,23.849-33.102,28.321s-12.93,4.919-17.914,11.483
			L876.347,748.195z"/>
		<path style="fill:#481F70;" d="M502.4,650.794c0,0,87.442-249.295,166.056-264.85s137.049,49.607,126.539,99.634
			c-10.51,50.027-63.795,152.709-78.614,151.763c-14.819-0.946-16.08-10.089-16.08-10.089l-13.242-9.354l-15.292-22.649
			l1.576-23.647l7.094-20.81l38.466-4.046l14.504-18.918l9.249-32.791l1.892-26.695l-7.987,1.682l-10.3,12.822l-19.548,9.459
			l-18.497,2.943l-8.618-4.624l-4.414,13.453l-10.72,23.963l-5.465,19.548l-14.714,56.333l-28.377,22.491l-35.313,16.185
			l-40.358,8.198h-31.95H502.4z"/>
		<path style="fill:#FFB5A6;" d="M622.739,1727.638l-11.981-141.568l38.151-6.621l11.035-1.577c0,0,0.315,81.977,0,95.85
			c-0.315,13.873,2.522,20.179,19.548,30.899s45.718,30.269,45.718,30.269l-35.313,8.513l-30.584,1.261l-18.918-1.576l-8.198-6.306
			L622.739,1727.638z"/>
		<path style="fill:#FFB5A6;" d="M608.55,1589.223c0,0-34.683,42.565-41.935,96.166l-16.08,2.522l-11.666-38.466l1.892-29.638
			l4.099-28.377l14.504-13.558l41.935-33.737L608.55,1589.223z"/>
		<path style="fill:#5A257E;" d="M730.78,889.369c0,0,46.138,147.769,81.452,271.366s70.627,233.32,27.746,266.111
			c-42.88,32.791-201.37,143.775-201.37,143.775l-3.363-47.925c0,0,60.957-59.276,81.557-81.557
			c20.599-22.281,58.015-63.059,55.492-69.365s-96.691-225.332-96.691-225.332s12.402,187.707-1.471,246.352
			c-13.873,58.645-9.039,185.184-8.408,192.541c0.631,7.357-58.855,11.981-59.276,7.567s-19.338-80.296-12.402-147.139
			c6.937-66.843-20.179-176.566-37.205-247.823c-17.026-71.257-49.344-179.246,34.919-309.385l2.286-16.001h15.134l35.944-6.937
			l39.727,4.414h22.071l16.395,1.261L730.78,889.369z"/>
		<path style="fill:#FFB5A6;" d="M535.825,895.392c0,0,10.349,7.868,29.421,8.109c19.072,0.24,33.546,18.787,36.085,22.244
			s-1.302,6.011-8.626,2.359c-7.325-3.652-12.192-4.735-9.47-0.963c2.722,3.772,11.141,13.649,21.376,21.622
			c10.235,7.973,7.075,14.241-0.929,13.621s-16.634-0.666-32.711-9.071c-16.077-8.405-27.423-18.733-33.294-24.8
			c-5.871-6.067-13.246-13.889-20.27-17.213L535.825,895.392z"/>
		<path style="fill:#FF8C42;" d="M538.344,889.579c-19.27-20.193-66.633-96.166-56.228-116.029
			c10.405-19.864,51.393-48.871,64.321-54.862l33.422,157.333c0,0,1.419,10.326,11.902,12.533
			c10.484,2.207,126.933,0.815,139.02,0.815c12.086,0,16.711-0.105,16.816-10.93c0.105-10.825-0.946-62.639-0.946-62.639
			s8.408,58.645,50.027,63.48c41.619,4.835,91.226-91.857,102.261-108.567c6.621-8.198-16.08-29.007-24.593-25.854
			c-8.513,3.153-62.744,64.321-62.744,64.321s-21.44-63.059-32.476-98.373s-23.332-87.968-64.636-95.85
			c-41.304-7.882-99.949-6.306-99.949-6.306s-36.259,0.315-50.973,4.519c-14.714,4.204-44.772,21.02-85.34,59.486
			s-61.063,64.951-70.837,78.824c-9.774,13.873-16.711,32.16,3.153,54.862c19.864,22.701,63.346,74.536,104.048,110.354
			C519.847,921.319,543.943,895.446,538.344,889.579z"/>
		<path style="fill:#FDF8F3;" d="M626.703,598.002l-12.162,10.647c0,0,14.031,35.156,44.063,40.043s40.122-19.706,39.649-36.89
			l-10.247-2.627l-14.188,1.524l-15.213,3.784l-16.159-1.261l-8.828-11.508L626.703,598.002z"/>
		<path style="fill:#FFB5A6;" d="M626.703,598.002c0,0,7.281,35.556,33.345,38.288c26.065,2.733,28.167-19.338,27.956-27.116
			s-3.922-41.516,4.68-51.046c8.602-9.53,9.823-18.53,9.823-18.53l-11.981-14.083l-16.185-2.522l-15.739,9.039
			C658.604,532.032,641.417,583.498,626.703,598.002z"/>
		<path style="fill:#FF9D8D;" d="M692.686,558.129c0,0-3.235,4.808-4.256,10.208l-29.826-36.305l0.416-1.095l4.55-0.35l9.643,1.787
			l5.702,1.156l10.852,8.776l4.125,4.362l0.657,8.513l-0.631,1.287L692.686,558.129z"/>
		<path style="fill:#FFB5A6;" d="M748.385,443.906c0,0,8.671,35.471,3.311,56.281c-5.36,20.81-23.963,64.478-35.944,65.582
			c-11.981,1.104-24.278-6.621-39.57-21.755c-10.405-9.853-17.578-11.981-17.578-11.981s12.165-31.53,13.637-48.766
			c0,0,29.638,6.306,47.505-7.357S748.385,443.906,748.385,443.906z"/>
		<path style="fill:#2D115F;" d="M532.645,1564.795c2.089-1.04,4.239-1.943,6.44-2.718c27.075-9.528,43.241-15.095,32.26,13.272
			c-11.351,29.323-24.278,78.194-18.918,90.175c5.675,15.765,21.755,2.838,19.548,27.746c-2.207,24.909-7.252,53.285-10.405,53.285
			c-3.153,0-43.196-46.033-39.097-85.288c4.099-39.255,15.45-55.65-2.522-57.542c-10.09-1.892-8.828-9.459-9.144-17.341
			c-0.315-7.882,3.613-11.645,13.242-17.026C527.72,1567.309,530.6,1565.814,532.645,1564.795z"/>
		<path style="fill:#2D115F;" d="M614.707,1740.578c-0.58-2.157-1.029-4.354-1.358-6.58c-4.041-27.386-6.346-43.72,16.824-29.025
			c23.951,15.19,64.826,34.757,76.212,31.366c14.761-3.139,5.974-20.469,27.509-14.702c21.535,5.766,45.663,14.765,45.158,17.792
			c-0.504,3.027-47.361,34.724-81.199,25.041c-33.838-9.683-46.429-22.981-50.967-6.005c-3.276,9.408-9.724,7.089-16.701,6.238
			s-9.655-5.174-12.843-15.206C616.128,1745.674,615.275,1742.69,614.707,1740.578z"/>
	</g>
</g>
</svg>
