<?xml version="1.0" encoding="utf-8"?>
<!-- Generator: Adobe Illustrator 27.5.0, SVG Export Plug-In . SVG Version: 6.00 Build 0)  -->
<svg version="1.1" id="Layer_1" xmlns="http://www.w3.org/2000/svg" xmlns:xlink="http://www.w3.org/1999/xlink" x="0px" y="0px"
	 viewBox="0 0 3500 2000" style="enable-background:new 0 0 3500 2000;" xml:space="preserve">
<rect style="fill:#FFFFFF;" width="3500" height="2000"/>
<g>
	<g>
		<path style="fill:#184655;" d="M722.898,1711.49c-3.76,0-6.809,3.203-6.809,7.156c0,3.952,3.048,7.156,6.809,7.156H2882.38
			c3.899,0,7.066-3.152,7.084-7.053c0.001-0.047,0.001-0.095,0.001-0.143c0.018-3.926-3.158-7.117-7.084-7.117H722.898z"/>
	</g>
	<path style="fill:#F47458;" d="M1855.344,959.022l-11.775-17.03l-20.704,0.046c-2.358,0.005-3.698-2.695-2.269-4.571l12.557-16.462
		l-6.441-19.677c-0.734-2.241,1.421-4.351,3.646-3.57l19.536,6.856l16.724-12.207c1.904-1.391,4.577,0.006,4.521,2.364
		l-0.482,20.699l16.777,12.132c1.911,1.382,1.408,4.355-0.852,5.031l-19.835,5.937l-6.354,19.706
		C1859.67,960.521,1856.685,960.962,1855.344,959.022z"/>
	<path style="fill:#F7CC7F;" d="M2401.73,583.753l10.916-25.277l-14.635-23.322c-1.666-2.656,0.436-6.071,3.559-5.778l27.413,2.57
		l17.658-21.126c2.011-2.406,5.908-1.461,6.595,1.599l6.027,26.866l25.547,10.266c2.91,1.169,3.217,5.168,0.518,6.766
		l-23.688,14.034l-1.868,27.47c-0.214,3.128-3.922,4.655-6.275,2.583l-20.667-18.192l-26.703,6.712
		C2403.086,589.687,2400.488,586.632,2401.73,583.753z"/>
	<path style="fill:#9BC1F9;" d="M976.009,1278.486l-14.006-26.797l-30.015-3.654c-3.419-0.416-4.876-4.571-2.466-7.031
		l21.157-21.603l-5.8-29.675c-0.661-3.38,2.841-6.05,5.925-4.519l27.083,13.446l26.43-14.687c3.011-1.673,6.632,0.833,6.129,4.24
		l-4.42,29.911l22.135,20.599c2.521,2.346,1.258,6.564-2.138,7.139l-29.813,5.04l-12.75,27.417
		C982.007,1281.436,977.604,1281.538,976.009,1278.486z"/>
	<polygon style="fill:#466EB6;" points="2576.529,634.621 2576.881,649.265 2553.38,652.432 2551.252,673.907 2534.053,679.152 
		2536.708,687.858 2559.711,680.843 2561.729,660.492 2586.176,657.197 2585.648,635.161 	"/>
	<path style="fill:#F48C7F;" d="M1275.23,484.709c1.282-9.607,10.467-16.587,20.067-15.249c9.989,1.393,15.749,9.462,14.802,19.63
		c-1.138,10.148-8.819,16.993-19.356,15.812C1280.046,503.704,1273.848,495.065,1275.23,484.709z M1284.696,458.385l4.705-77.157
		c0.389-6.384,6.046-11.141,12.402-10.428l7.678,0.861c6.347,0.711,10.808,6.586,9.79,12.891l-12.331,76.327L1284.696,458.385z"/>
	<g>
		<path style="fill:#184655;" d="M1226.298,873.039c0.522,19.139,5.459,60.207,48.856,66.993
			c26.939,4.212,61.441-19.986,59.22-37.753c-2.221-17.766-7.156-63.045-35.285-73.408
			C1275.585,820.211,1225.132,830.338,1226.298,873.039z"/>
		<path style="fill:#F7A491;" d="M1588.4,1491.633c6.136,25.768,10.966,62.95,12.762,65.025c0.862,0.996,2.647,7.492,3.514,8.548
			c28.025,10.192,52.653-0.326,72.172-11.899c-15.303-2.713-35.904-5.532-38.779-7.561c-10.649-7.516-8.104-34.277-10.021-58.298
			C1620.47,1488.79,1602.076,1484.002,1588.4,1491.633z"/>
		<path style="fill:#466EB6;" d="M1600.58,1555.197c0.179,10.179,6.731,31.904,8.754,31.878c2.418-0.03,86.644-7.329,94.581-20.249
			c4.773-7.77-8.197-9.794-27.067-13.52C1657.329,1564.88,1602.922,1561.57,1600.58,1555.197z"/>
		<path style="fill:#F7A491;" d="M1188.428,1549.137c-19.485,15.273-39.191,27.468-41.671,28.642
			c-1.191,0.564-7.928,0.544-9.178,1.097c-17.328,24.27-13.792,50.814-7.871,72.722c6.713-14.017,14.618-33.591,17.673-35.336
			c4.865-2.779,22.414-13.201,53.92-26.016C1190.628,1578.668,1192.115,1564.356,1188.428,1549.137z"/>
		<path style="fill:#F7A491;" d="M1232.8,1010.698l-60.197,109.507c0,0-40.25,50.65-60.971,76.65
			c4.462,7.305,8.777,14.788,12.632,22.479c20.619-17.534,64.481-54.735,80.141-75.294c23.135-30.373,65.001-102.488,65.001-102.488
			L1232.8,1010.698z"/>
		<path style="fill:#3C8F7C;" d="M1392.855,1201.29l-64.384,94.978c0,0-3.694-6.362,19.362,2.069
			c23.057,8.431,171.758,36.207,180.556,46.708c6.228,7.433,52.349,153.299,61.231,172.025c13.375,5.424,32.831-0.597,46.563-2.573
			c0.873-70.269-36.335-198.191-46.259-213.184c-22.19-33.521-127.837-69.735-175.396-90.047
			c-7.714-3.295-13.698-6.253-17.411-8.042C1394.37,1201.901,1392.855,1201.29,1392.855,1201.29z"/>
		<path style="fill:#466EB6;" d="M1145.721,1578.026c-9.854-2.555-29.942-2.479-30.459-0.522
			c-0.618,2.338-16.152,85.439-5.831,96.548c6.207,6.681,11.633-5.273,20.277-22.455
			C1123.788,1629.689,1138.954,1578.574,1145.721,1578.026z"/>
		<path style="fill:#50BFA5;" d="M1375.961,1268.146c0.558-7.132,15.811-48.77,21.214-64.979c0.171-0.514-3.821-9.886-8.134-23.373
			l-6.177,0.989l-91.54,4.147c0,0-36.864,62.267-32.573,90.872c5.991,39.938,63.729,181.891,54.948,188.58
			c-15.847,12.071-93.478,57.054-133.371,83.801c2.55,15.45,9.693,37.007,19.481,49.343
			c32.463-11.287,172.748-67.841,187.177-111.226C1399.732,1447.979,1375.014,1280.271,1375.961,1268.146z"/>
		<path style="fill:#F7CC7F;" d="M1374.486,918.194c0,0-25.212,39.608-40.077,41.037l52.577,48.646c0,0,35.816-53.7,39.554-62.913
			C1426.541,944.964,1393.943,915.93,1374.486,918.194z"/>
		<path style="fill:#FAE0B2;" d="M1392.894,1157.534c-2.358,21.809,4.367,45.662,4.367,45.662
			c-21.142,4.541-96.083,14.095-114.412-8.219c-0.656-0.8,25.953-47.732,22.289-66.896c-5.405-28.267-28.875-76.198-30.822-78.767
			c-3.267-4.31-15.27,17.992-15.27,17.992c-14.06,0.072-46.26-32.604-46.26-32.604s33.301-58.015,42.466-63.47
			c9.162-5.453,84.875-13.695,84.932-13.699c5.571-0.402,20.791,12.807,24.974,16.979
			C1413.014,1022.26,1400.124,1090.68,1392.894,1157.534z"/>
		<path style="fill:#F7A491;" d="M1297.502,933.193c0,0,8.252,27.267,8.31,38.352c0.058,11.086,4.479,26.171,27.722,23.888
			c23.242-2.283,4.176-25.675,0.877-36.203c-3.3-10.528-7.257-43.767-7.257-43.767L1297.502,933.193z"/>
		<path style="fill:#F47458;" d="M1329.359,932.118c-1.302-9.07-2.206-16.654-2.206-16.654l-29.651,17.729
			c0,0,1.688,5.575,3.542,12.709C1314.962,947.235,1324.322,941.167,1329.359,932.118z"/>
		<path style="fill:#F7A491;" d="M1273.32,850.884c0,0-12.229,8.538-15.361,24.627c-3.131,16.089,6.425,55.784,40.941,62.035
			c34.516,6.25,45.741-27.122,36.264-51.329C1325.688,862.01,1307.414,832.005,1273.32,850.884z"/>
		<path style="fill:#F7A491;" d="M1338.358,876.125c0.035,6.761-3.129,12.258-7.068,12.278c-3.938,0.02-7.159-5.444-7.194-12.205
			c-0.035-6.761,3.13-12.258,7.067-12.278C1335.102,863.9,1338.323,869.365,1338.358,876.125z"/>
		<path style="fill:#F7A491;" d="M1272.96,909.805c4.542,5.443,5.24,12.345,1.56,15.415c-3.679,3.069-10.343,1.144-14.884-4.299
			c-4.542-5.444-5.24-12.345-1.56-15.414C1261.755,902.437,1268.419,904.361,1272.96,909.805z"/>
		<path style="fill:#184655;" d="M1237.956,835.735c1.355-18.542,14.475-87.497-27.708-94.034
			c-42.183-6.537-51.189,39.542-74.577-22.484c-21.667-57.461-86.067-35.214-88.758,8.422c-6.112-0.519-12.375,0.37-18.343,2.885
			c-20.642,8.699-29.923,33.434-20.729,55.248c1.461,3.468,0.631,6.905,2.775,9.775c-4.946,19.006-1.533,40.732,13.139,62.802
			c40.074,60.28,80.27-3.172,107.368,0.208c27.099,3.379,9.436,24.565,32.909,41.101c23.473,16.535,42.369,12.205,80.579-32.9
			l9.432-12.432C1254.043,854.326,1236.601,854.277,1237.956,835.735z"/>
	</g>
	<g>
		<path style="fill:#F8A492;" d="M2423.639,1360.924c21.142-8.443,40.074-19.922,42.307-21.1c1.721-0.909,8.898-6.193,9.915-6.932
			c18.638,11.088,25.45,20.516,40.137,35.338c-10.868,0.592-15.473-8.324-19.634-7.396c-5.027,1.12-20.846,11.728-45.582,30.864
			C2446.503,1377.864,2434.038,1370.883,2423.639,1360.924z"/>
		<path style="fill:#F8A492;" d="M2124.395,1577.587c4.811,22.251,13.582,42.044,14.646,44.331c0.512,1.098,3.785,1.946,4.344,3.071
			c-14.031,16.535-20.098,44.046-37.156,56.063c1.225-10.816,8.481-31.121,8.26-35.378c-0.27-5.144-8.1-22.505-22.856-50.08
			C2105.984,1593.678,2112.846,1586.186,2124.395,1577.587z"/>
		<path style="fill:#3C8F7C;" d="M2133.266,1626.472c1.912-4.81,8.236-8.136,12.728-5.291c4.525,2.866,10.548,6.003,15.042,9.115
			c5.055,3.503,5.411,7.44,5.284,8.333c-0.368,2.578-60.12,72.451-67.774,73.464c-7.655,1.012,6.5-58.078,14.896-64.154
			C2120.91,1642.534,2124.658,1648.107,2133.266,1626.472z"/>
		<path style="fill:#3C8F7C;" d="M2474.086,1339.873c-4.391-2.743-6.531-9.561-2.928-13.47c3.631-3.938,7.793-9.303,11.66-13.167
			c4.352-4.347,8.289-3.993,9.145-3.708c2.471,0.823,60.521,72.116,60.146,79.829c-0.375,7.712-55.977-16.79-60.452-26.139
			C2487.677,1354.903,2493.832,1352.213,2474.086,1339.873z"/>
		<path style="fill:#B75742;" d="M2147.26,1317.123c0,0,117.85,158.81,138.356,160.274c19.179,1.37,167.809-81.507,167.809-81.507
			l-19.333-42.796l-119.023,42.796l-82.877-156.85L2147.26,1317.123z"/>
		<path style="fill:#F47458;" d="M2215.103,1182.924c0,0,21.574,5.137,33.902,38.012s-8.286,60.189-59.964,107.832
			c-50.313,46.385-100,89.954-100,89.954l40.791,167.949l-33.901,28.766c0,0-78.579-170.688-80.862-211.327
			c-0.872-15.521,119.901-195.502,119.901-195.502L2215.103,1182.924z"/>
		<path style="fill:#F7A491;" d="M2123.923,977.292l-65.704,36.749l-52.055,25c0,0-12.708-43.205-8.447-64.384
			c0.609-3.025,3.607-6.609,4.681-8.219c8.585-12.874-9.761-32.877-9.761-32.877s-11.052-3.143-18.565,15.096
			c-7.513,18.239,6.358,25.976,6.358,25.976s-15.824,55.221-9.197,95.457c3.473,21.083,56.182,5.604,98.174-12.557
			c35.313-15.271,61.305-32.315,61.305-32.315L2123.923,977.292z"/>
		<path style="fill:#3C8F7C;" d="M2138.699,970.991c-1.391-1.299-3.674-2.064-7.398-0.68c-8.14,3.024-87.008,46.354-87.008,46.354
			s7.076,37.9,25.57,49.544l39.734-12.129l30.391-76.824C2140.842,975.098,2140.395,972.577,2138.699,970.991z"/>
		<path style="fill:#FE875E;" d="M2320.279,808.977c-29.939-18.338-67.266-14.799-89.484,9.842
			c-18.289-6.874-39.254-6.341-56.221,1.583c-33.472,15.634-63.098,56.453-37.87,86.087c-5.364,39.34,18.173,62.219,47.497,64.835
			c15.941,31.985,72.455,35.269,104.966,8.924c26.863,10.381,58.768,5.907,78.63-13.472c4.767-4.651,11.751-12.102,13.346-12.785
			c-1.918,0.966,74.844-9.209,71.34-76.876C2448.908,808.065,2366.279,781.562,2320.279,808.977z"/>
		<path style="fill:#50BFA5;" d="M2184.246,965.753l48.729,2.686l-8.089,68.09c0,0-23.517,65.525-13.927,97.032
			c9.589,31.507,18.836,54.452,18.836,54.452s-27.74,31.85-105.48,25.343c0,0,1.027-56.507,0-73.63
			c-1.027-17.124-20.89-88.356-18.15-104.452c2.74-16.097,19.863-60.617,24.315-64.384c4.452-3.768,22.089-5.651,22.089-5.651
			L2184.246,965.753z"/>
		<path style="fill:#F7A491;" d="M2186.537,928.363c0,0-0.836,5.506-1.633,12.575c-0.994,8.823-1.926,20.082-1.09,26.105
			c1.507,10.851-8.707,39.448-31.76,40.49c-23.053,1.043-0.486-31.59,1.256-42.352c1.742-10.762,1.729-49.979,1.729-49.979
			L2186.537,928.363z"/>
		<path style="fill:#F47458;" d="M2155.229,931.802c-0.004-9.054-0.189-16.598-0.189-16.598l31.498,13.16
			c0,0-0.864,5.691-1.672,12.93C2171.44,944.558,2161.431,939.942,2155.229,931.802z"/>
		<path style="fill:#F7A491;" d="M2188.916,847.49c0,0,13.33,4.722,20.246,18.639c6.917,13.917,8.185,52.608-21.79,67.019
			c-29.974,14.412-48.644-13.265-46.081-37.778C2143.854,870.856,2152.995,838.825,2188.916,847.49z"/>
		<path style="fill:#F7A491;" d="M2135.829,886.951c1.671,6.188,5.95,10.416,9.554,9.442c3.605-0.974,5.172-6.78,3.502-12.968
			c-1.673-6.188-5.95-10.417-9.555-9.442C2135.725,874.956,2134.158,880.763,2135.829,886.951z"/>
		<path style="fill:#F7A491;" d="M2205.547,900.197c-2.779,6.12-1.679,12.604,2.457,14.482c4.138,1.878,9.744-1.56,12.522-7.68
			c2.779-6.12,1.679-12.605-2.458-14.482C2213.932,890.638,2208.326,894.076,2205.547,900.197z"/>
	</g>
	<g>
		<path style="fill:#355389;" d="M1555.909,1197.934c-4.582-13.346-191.12-556.739-199.269-580.475
			c-12.476-36.342-52.4-55.875-89.175-43.627l-278.233,92.662c-36.774,12.247-56.472,51.637-43.997,87.978l199.269,580.476
			c12.476,36.341,52.4,55.874,89.175,43.627l278.233-92.662C1548.687,1273.664,1568.385,1234.275,1555.909,1197.934z
			 M1488.331,1212.583l-281.089,93.613c-21.21,7.063-44.237-4.202-51.434-25.163L971.505,744.15
			c-7.195-20.961,4.165-43.679,25.376-50.743l281.089-93.613c21.21-7.064,44.237,4.202,51.433,25.163
			c44.755,130.373,180.278,525.154,184.304,536.883C1520.902,1182.801,1509.542,1205.52,1488.331,1212.583z"/>
		<path style="fill:#184655;" d="M1416.266,1275.538c4.289,12.492-15.392,30.332-43.958,39.846
			c-28.566,9.513-55.2,7.098-59.488-5.395c-4.288-12.493,15.393-30.332,43.958-39.846
			C1385.344,1260.631,1411.978,1263.045,1416.266,1275.538z"/>
		<path style="fill:#355389;" d="M1408.661,1276.543c4.029,11.735-12.269,27.765-36.402,35.802
			c-24.133,8.037-46.962,5.039-50.991-6.696c-4.028-11.735,12.27-27.764,36.402-35.802
			C1381.803,1261.81,1404.633,1264.808,1408.661,1276.543z"/>
	</g>
	<g>
		<path style="fill:#86B1F2;" d="M2433.049,654.521l-312.656-70.683c-41.325-9.342-82.066,15.115-90.998,54.626l-142.673,631.094
			c-8.933,39.512,17.326,79.115,58.65,88.458l312.657,70.683c41.324,9.343,82.065-15.114,90.998-54.625l142.674-631.095
			C2500.633,703.468,2474.374,663.864,2433.049,654.521z M2330.025,1318.349c-5.152,22.789-28.65,36.895-52.484,31.506
			l-315.867-71.408c-23.835-5.389-38.98-28.23-33.828-51.02l131.959-583.701c5.151-22.789,28.65-36.895,52.484-31.506
			l315.867,71.409c23.834,5.389,38.98,28.23,33.827,51.019L2330.025,1318.349z"/>
		<path style="fill:#466EB6;" d="M2174.481,1366.505c-3.069,13.582-31.581,18.709-63.682,11.452s-55.634-24.149-52.563-37.732
			c3.071-13.582,31.581-18.709,63.682-11.452S2177.553,1352.923,2174.481,1366.505z"/>
		<path style="fill:#86B1F2;" d="M2166.803,1363.201c-2.885,12.76-27.208,18.133-54.326,12.002
			c-27.119-6.131-46.766-21.444-43.881-34.203c2.884-12.759,27.207-18.132,54.325-12.001
			C2150.04,1335.13,2169.687,1350.443,2166.803,1363.201z"/>
	</g>
	<path style="fill:#F7A491;" d="M2231.011,986.104c0,0,102.748-24.954,125.653-29.153c22.904-4.199,102.39-32.87,105.443-34.083
		c3.051-1.213,14.377-42.1,18.859-39.245c4.482,2.854-6.879,20.614-1.266,22.914c5.613,2.301,53.479-19.133,53.811-15.257
		c0.621,7.252-28.792,14.231-27.863,17.562c0.93,3.331,30.032-10.099,33.595-5.112c3.563,4.987-28.737,10.167-29.324,12.978
		c-0.587,2.812,31.022-0.845,29.303,5.15c-0.934,3.255-28.187,2.576-27.035,6.36c1.151,3.783,21.904,7.509,20.465,11.158
		c-1.439,3.649-16.965-5.439-27.69-2.714c-10.725,2.725-19.877-0.789-35.672,8.483c-15.793,9.272-67.61,48.374-104.461,56.453
		c-36.85,8.079-118.228,26.148-118.228,26.148L2231.011,986.104z"/>
	<path style="fill:#50BFA5;" d="M2206.121,970.288c3.477-1.661,14.148-1.932,26.842-1.838c4.668,0.035,11.248,0.072,16.238-0.071
		c18.557-0.531,36.188,0.342,36.188,0.342s9.335,45.094,1.566,56.613c0,0-72.609,10.371-70.859,15.42L2206.121,970.288z"/>
	<path style="fill:#F7A491;" d="M1954.338,970.548l6.257-7.91c0,0,3.886-6.028,9.736-6.618c5.851-0.59,5.673-7.928-0.524-6.882
		c-6.198,1.046-10.092,2.522-10.092,2.522s12.313-6.328,12.531-7.148c1.225-4.609-5.573-6.4-14.676,0.356
		C1948.467,951.626,1954.338,970.548,1954.338,970.548z"/>
	<path style="fill:#F7A491;" d="M1115.354,1207.971c-3.972,2.151-6.746,4.128-7.992,5.07c0.06-0.129,0.122-0.26,0.188-0.392
		c1.31-1.374,5.807-6.183,5.846-6.212c5.912-4.511,2.806-9.335-2.721-6.343c-5.527,2.992-8.734,5.647-8.734,5.647
		s9.59-9.352,9.548-10.813c-0.138-4.768-7.342-4.257-13.773,5.079c-5.629,8.173,2.675,22.467,5.083,25.849
		c2.38,4.909,6.735,7.191,6.735,7.191l1.468-9.325c0,0,1.729-6.961,7.075-9.408
		C1123.421,1211.865,1120.881,1204.979,1115.354,1207.971z"/>
	<path style="fill:#F7A491;" d="M1977.033,941.898c0,0,14.594-11.729,16.917-6.738c2.322,4.991,1.311,15.78-0.87,15.018
		c-2.182-0.762-1.885-8.453-8.158-6.447C1983.174,944.291,1974.486,947.032,1977.033,941.898z"/>
	<g>
		<path style="fill:#96D9C9;" d="M2232.81,541.709l-524.372-111.817c-29.467-6.283-48.261-35.264-41.977-64.732l10.06-47.178
			c6.283-29.467,35.265-48.261,64.732-41.978l524.373,111.816c29.467,6.284,48.261,35.265,41.978,64.732l-10.061,47.178
			C2291.258,529.199,2262.277,547.993,2232.81,541.709z"/>
		<polygon style="fill:#96D9C9;" points="2139.286,502.855 2187.574,568.82 2203.055,520.011 		"/>
		<g>
			<path style="fill:#FFFFFF;" d="M1835.935,354.674c-2.524,11.839-15.367,19.134-28.687,16.293
				c-13.318-2.84-22.068-14.739-19.544-26.578c2.524-11.838,15.367-19.134,28.687-16.293
				C1829.709,330.935,1838.459,342.835,1835.935,354.674z"/>
			<path style="fill:#FFFFFF;" d="M1811.889,370.556l-8.709-1.857c-16.74-3.57-33.205,7.107-36.775,23.848l-3.393,15.909
				l69.332,14.784l3.393-15.909C1839.306,390.591,1828.629,374.126,1811.889,370.556z"/>
		</g>
		<path style="fill:#FFFFFF;" d="M2043.539,414c-4.893,22.938-41.996,34.465-82.877,25.748
			c-40.881-8.718-70.057-34.379-65.165-57.316c4.891-22.938,41.996-34.465,82.877-25.748
			C2019.254,365.401,2048.43,391.062,2043.539,414z"/>
		<polygon style="fill:#FFFFFF;" points="1976.01,431.815 1952.352,454.083 2008.404,440.824 2006.312,404.661 		"/>
		<path style="fill:#FFFFFF;" d="M2147.971,428.54l8.477-4.21c2.613-1.298,3.945-4.259,3.187-7.077
			c-1.486-5.517-4.649-14.609-10.628-21.728c-1.803-2.147-4.844-2.782-7.363-1.551l-14.827,7.241
			c-1.87,0.914-3.147,2.714-3.393,4.781c-1.04,8.734-2.163,32.836,13.044,53.183c17.332,23.187,35.146,34.922,47.641,40.595
			c2.031,0.922,4.4,0.672,6.19-0.658l13.657-10.155c2.395-1.779,3.155-5.023,1.807-7.684c-2.727-5.377-8.561-14.118-19.659-20.24
			c-2.269-1.251-5.08-0.933-7.017,0.787l-5.109,4.539c-2.086,1.854-5.16,2.058-7.479,0.504c-4.992-3.344-13.48-11.443-21.453-30.491
			C2143.799,433.403,2145.085,429.974,2147.971,428.54z"/>
	</g>
	<g>
		<path style="fill:#96D9C9;" d="M1632.601,963.125l-79.065-48.047c-8.026-4.878-10.579-15.339-5.701-23.365l48.047-79.065
			c4.878-8.027,15.339-10.58,23.365-5.702l79.065,48.047c8.027,4.878,10.58,15.339,5.702,23.366l-48.047,79.065
			C1651.088,965.45,1640.627,968.002,1632.601,963.125z"/>
		<g>
			<path style="fill:#FFFFFF;" d="M1674.254,898.477c2.928-2.989,1.964-8.713-2.36-12.537
				c-18.934-16.751-40.629-30.107-64.127-39.474c-5.365-2.144-10.899-0.35-12.231,3.709l0,0
				c-10.954,32.385-7.176,20.227-11.912,39.045c-1.068,4.399,1.36,8.86,5.521,10.52l0,0c4.416,1.748,9.573-0.104,11.646-4.409
				c1.116-2.376,2.231-4.753,3.347-7.129c1.261-2.732,4.818-3.777,7.88-2.214c8.055,4.106,15.798,8.796,23.169,14.033
				c2.803,1.991,3.535,5.606,1.712,7.961c-1.578,2.066-3.155,4.133-4.733,6.199c-2.836,3.792-2.041,9.15,1.598,12.206h0
				c3.439,2.876,8.518,2.984,11.872,0.072C1649.106,923.394,1668.208,904.764,1674.254,898.477z"/>
			<g>
				<path style="fill:#96D9C9;" d="M1613.038,859.07c1.027,0.625,1.819,1.489,2.346,2.479l2.654-4.368l-5.626-3.419l-2.654,4.367
					C1610.879,858.142,1612.011,858.446,1613.038,859.07z"/>
				<path style="fill:#96D9C9;" d="M1604.156,861.237c0.625-1.027,1.489-1.818,2.479-2.346l-4.367-2.653l-3.419,5.625l4.367,2.654
					C1603.229,863.397,1603.532,862.265,1604.156,861.237z"/>
				<path style="fill:#96D9C9;" d="M1606.324,870.119c-1.027-0.624-1.818-1.489-2.346-2.478l-2.654,4.368l5.626,3.418l2.653-4.367
					C1608.483,871.048,1607.351,870.743,1606.324,870.119z"/>
				<path style="fill:#96D9C9;" d="M1616.146,864.672c-0.012,1.121-0.316,2.253-0.941,3.28c-0.624,1.027-1.489,1.818-2.478,2.346
					l4.367,2.654l3.418-5.626L1616.146,864.672z"/>
			</g>
			<path style="fill:#96D9C9;" d="M1613.052,866.643c-1.132,1.861-3.558,2.454-5.419,1.322c-1.861-1.131-2.453-3.557-1.322-5.418
				c1.131-1.861,3.557-2.454,5.419-1.322C1613.591,862.356,1614.183,864.781,1613.052,866.643z"/>
			<path style="fill:#96D9C9;" d="M1662.937,897.563c-2.42,3.982-7.609,5.248-11.592,2.828c-3.982-2.42-5.248-7.609-2.828-11.591
				c2.419-3.982,7.609-5.249,11.591-2.829C1664.09,888.391,1665.356,893.581,1662.937,897.563z"/>
		</g>
	</g>
	<path style="fill:#F48C7F;" d="M1707.083,596.994c0,0,2.862-16.392,19.884-24.288c15.176-7.041,31.539,0.834,38.415,15.656
		c7.959,17.156,3.117,44.069-25.711,78.881c-45.197-0.472-68.871-14.157-76.83-31.313c-6.876-14.822-2.321-32.4,12.855-39.441
		C1692.719,588.594,1707.083,596.994,1707.083,596.994z"/>
	<g>
		<path style="fill:#FAE0B2;" d="M1158.764,523.429l-100.458,47.867c-11.851,5.648-26.035,0.618-31.682-11.232l-26.954-56.568
			c-5.647-11.851-0.618-26.035,11.233-31.681l100.458-47.868c11.851-5.646,26.034-0.617,31.681,11.233l26.955,56.568
			C1175.644,503.598,1170.614,517.782,1158.764,523.429z"/>
		<polygon style="fill:#FAE0B2;" points="1017.305,529.2 995.791,593.306 1043.579,557.969 		"/>
		<g>
			<path style="fill:#FFFFFF;" d="M1052.767,504.414l12.708-6.457c0,0,10.294-19.911,8.718-24.415s-8.607-12.241-6.652-14.591
				c1.956-2.35,6.828-5.823,12.922-1.806c4.424,2.916,9.665,18.859,11.657,19.128c1.247,0.169,8.655-3.337,14.026-5.985
				c3.532-1.741,7.734-1.374,10.914,0.948l0.01,0.007c2.149,1.57,2.907,4.43,1.816,6.858l-1.698,3.779l3.703,1.897
				c2.756,1.412,3.855,4.785,2.461,7.55l-1.421,2.819l2.401,1.01c3.092,1.3,4.37,4.998,2.739,7.93l-1.324,2.381l0.571,0.409
				c2.375,1.7,3.056,4.933,1.57,7.447l-1.368,2.313l-33.85,17.191c-3.172,1.611-6.639,2.556-10.189,2.779l-12.905,4.078
				c-1.387,0.438-2.885-0.205-3.524-1.511l-14.595-29.851C1050.754,506.881,1051.336,505.141,1052.767,504.414z"/>
		</g>
	</g>
	<g>
		<path style="fill:#FAE0B2;" d="M1883.877,661.545c75.932-17.245,146.074,6.589,156.668,53.233
			c5.297,23.322-5.297,47.932-26.707,68.866l46.436,61.773l-76.992-38.733c-17.551,10.32-38.264,18.602-61.043,23.776
			c-75.932,17.244-146.074-6.589-156.668-53.233C1754.977,730.582,1807.945,678.79,1883.877,661.545z"/>
		<g>
			<path style="fill:#F7CC7F;" d="M1957.006,742.53c-1.093,27.117-23.958,48.21-51.07,47.112
				c-27.113-1.097-48.206-23.969-47.113-51.085c1.093-27.116,23.957-48.209,51.07-47.112
				C1937.006,692.542,1958.099,715.414,1957.006,742.53z"/>
			<path style="fill:#EFEFEF;" d="M1881.354,747.26c-0.584,14.498,10.693,26.726,25.189,27.313
				c14.496,0.587,26.721-10.691,27.305-25.189L1881.354,747.26z"/>
		</g>
	</g>
	<polygon style="fill:#F48C7F;" points="928.673,878.797 903.621,883.795 906.731,907.399 882.269,913.412 882.458,936.336 
		864.888,943.829 868.681,952.724 892.181,942.703 892.001,920.978 917.449,914.723 914.39,891.508 937.093,886.979 	"/>
	<polygon style="fill:#F7CC7F;" points="2597.51,1072.949 2590.518,1048.378 2567.24,1053.37 2559.285,1029.47 2536.451,1031.498 
		2527.572,1014.584 2519.011,1019.078 2530.883,1041.698 2552.523,1039.777 2560.8,1064.642 2583.695,1059.73 2590.029,1081.997 	
		"/>
	<polygon style="fill:#50BFA5;" points="932.821,616.691 918.817,620.989 909.413,599.221 888.163,602.979 878.462,587.839 
		870.798,592.75 883.773,612.999 903.911,609.438 913.694,632.083 934.766,625.616 	"/>
	<g>
		<path style="fill:#F7A491;" d="M1451.94,704.724c-4.888-4.031-16.302-7.34-21.983-7.851c-5.681-0.511-30.489-0.495-33.703,5.47
			c-3.214,5.965,22.831,22.866,24.219,29.889c1.388,7.023-15.083,116.077-19.838,137.733c-2.345,10.68-11.349,30.797-19.874,48.448
			c12.26,1.959,27.242,11.988,36.651,19.143c12.06-26.38,24.397-56.035,25.933-69.975
			C1446.445,839.443,1456.829,708.754,1451.94,704.724z"/>
		<g>
			<g>
				<path style="fill:#466EB6;" d="M1523.88,516.595c-8.454-0.71-52.668,33.008-52.668,33.008l-1.975,2.644
					c0,0,59.693,10.086,62.495,8.212C1539.295,555.398,1530.825,517.179,1523.88,516.595z M1471.356,550.632
					c14.409-10.479,44.091-23.315,50.484-26.015c3.289,6.062,6.291,22.032,5.411,28.611
					C1520.212,552.698,1488.819,553.411,1471.356,550.632z"/>
			</g>
			<g>
				<path style="fill:#466EB6;" d="M1459.305,488.643c-7.65-20.469-15.121-19.513-20.418-18.823
					c-5.299,0.689-29.113,17.554-26.888,30.521c2.227,12.966,49.875,50.829,49.875,50.829l3.154-3.652
					C1465.028,547.517,1466.954,509.111,1459.305,488.643z M1419.249,499.07c-1.108-6.468,15.408-20.25,20.844-21.984
					c1.258-0.162,2.346-0.281,3.184-0.042c1.007,0.288,4.641,2.16,9.131,14.175c4.909,13.135,10.045,43.522,9.973,55.654
					C1443.381,530.993,1420.49,504.64,1419.249,499.07z"/>
			</g>
			<path style="fill:#466EB6;" d="M1462.269,559.177l2.595,0.741c2.572,0.734,5.252-0.755,5.987-3.327l2.18-7.634
				c0.734-2.572-0.755-5.252-3.327-5.986l-2.596-0.741c-2.572-0.734-5.252,0.755-5.987,3.327l-2.18,7.634
				C1458.208,555.762,1459.697,558.442,1462.269,559.177z"/>
			<path style="fill:#F47458;" d="M1510.713,726.235l-164.417-46.95c-8.886-2.537-14.278-11.536-12.325-20.568l29.09-134.527
				l214.114,61.141l-48.258,134.986C1526.899,725.961,1518.881,728.568,1510.713,726.235z"/>
			<path style="fill:#FAE0B2;" d="M1577.787,616.672l-232.566-65.931l1.796-15.648c1.077-9.387,10.333-15.555,19.411-12.936
				l210.17,60.64c7.472,2.156,12.008,8.433,9.818,13.585L1577.787,616.672z"/>
			
				<rect x="1447.034" y="564.926" transform="matrix(0.2745 -0.9616 0.9616 0.2745 516.3055 1818.7894)" style="fill:#466EB6;" width="32.946" height="4.601"/>
			
				<rect x="1385.135" y="641.023" transform="matrix(0.2745 -0.9616 0.9616 0.2745 430.6188 1858.5736)" style="fill:#466EB6;" width="123.845" height="5.752"/>
		</g>
		<path style="fill:#F7A491;" d="M1409.565,704.54l0.595-6.995c-5.651-1.598-12.161-3.954-15.502-5.36l-0.908-5.341
			c-2.954-7.32-6.234-2.098-7.192-0.428c0,0-0.241,9.391,0.813,10.488c0,0,11.085,11.706,15.815,16.134
			c2.343,2.192,9.822,8.264,9.822,8.264l5.947-8.244L1409.565,704.54z"/>
	</g>
</g>
</svg>
