<?xml version="1.0" encoding="utf-8"?>
<!-- Generator: Adobe Illustrator 27.5.0, SVG Export Plug-In . SVG Version: 6.00 Build 0)  -->
<svg version="1.1" xmlns="http://www.w3.org/2000/svg" xmlns:xlink="http://www.w3.org/1999/xlink" x="0px" y="0px"
	 viewBox="0 0 500 500" style="enable-background:new 0 0 500 500;" xml:space="preserve">
<g id="BACKGROUND">
	<g>
		<rect style="fill:#FFFFFF;" width="500" height="500"/>
		<path style="opacity:0.5;fill:#FFC0A9;" d="M474.37,417.091H25.63c-1.729,0-3.13,1.401-3.13,3.13l0,0
			c0,1.729,1.401,3.13,3.13,3.13h448.74c1.729,0,3.13-1.401,3.13-3.13l0,0C477.5,418.493,476.099,417.091,474.37,417.091z"/>
	</g>
</g>
<g id="OBJECTS">
	<g>
		<polygon style="fill:#FFD05B;" points="170.215,183.862 204.295,189.333 186.619,212.71 200.193,214.889 168.857,249.374 
			175.19,220.127 164.664,218.438 		"/>
		<polygon style="fill:#FFE79F;" points="186.619,212.71 204.295,189.333 199.785,188.609 182.109,211.986 		"/>
		<polygon style="fill:#FFE79F;" points="170.474,241.907 168.857,249.374 200.193,214.889 195.683,214.165 		"/>
	</g>
	<g>
		<g>
			<path style="fill:#FFC0A9;" d="M53.189,394.895l-6.095,5.909c-2.311,2.241-2.368,5.931-0.128,8.242l13.445,13.868
				c1.176,1.213,3.201,0.878,3.924-0.649l0,0c0.417-0.88,0.265-1.923-0.384-2.648l-1.199-1.286
				c-4.118-4.415-4.389-12.852-0.963-17.824L53.189,394.895z"/>
			<path style="fill:#193441;" d="M64.335,422.264c0.417-0.88,0.265-1.923-0.384-2.648l-1.199-1.286
				c-3.287-3.525-4.256-8.493-2.774-12.884c-2.712,1.09-5.97,0.868-8.629-1.702c-1.573-1.521-2.261-3.199-2.306-4.829l-1.948,1.888
				c-2.311,2.241-2.368,5.931-0.128,8.242l13.445,13.868C61.587,424.126,63.612,423.79,64.335,422.264z"/>
		</g>
		<path style="fill:#EB3434;" d="M89.637,276.711l18.224,35.999c2.143,4.233,1.9,9.281-0.638,13.288l-44.368,76.416l-13.82-9
			c0,0,26.107-57.704,33.688-65.704l-9.886-13.333l-1.866-37.667H89.637z"/>
		<g>
			<path style="fill:#FFC0A9;" d="M101.409,408.849l-0.277,8.484c-0.105,3.217,2.418,5.91,5.635,6.016l19.305,0.63
				c1.688,0.055,2.912-1.593,2.37-3.193l0,0c-0.312-0.922-1.146-1.567-2.116-1.638l-1.756-0.091
				c-6.029-0.314-12.087-6.192-13.078-12.147L101.409,408.849z"/>
			<path style="fill:#193441;" d="M128.443,420.785c-0.312-0.922-1.146-1.567-2.116-1.638l-1.756-0.091
				c-4.813-0.25-8.963-3.15-10.949-7.337c-1.192,2.669-3.69,4.773-7.388,4.773c-2.188,0-3.849-0.729-5.014-1.87l-0.088,2.711
				c-0.105,3.217,2.418,5.91,5.635,6.016l19.305,0.63C127.761,424.033,128.985,422.385,128.443,420.785z"/>
		</g>
		<path style="fill:#FFC0A9;" d="M82.554,208.961l15.901-9.98l8.662,27.23c0,0,3.87-3.108,5.898-5.178
			c2.038-2.069,3.971-4.161,5.776-6.184c1.807-2.023,3.439-4.013,4.921-5.872c0.729-0.94,1.429-1.84,2.094-2.697
			c0.67-0.855,1.283-1.682,1.728-2.545c0.876-1.736,1.443-3.369,2.215-4.516c0.728-1.176,1.497-1.975,2.102-2.47
			c0.594-0.503,1.014-0.693,1.014-0.693l0.18-0.082c0.442-0.197,0.931-0.31,1.445-0.318c2.035-0.031,3.711,1.594,3.741,3.63
			c0,0,0.008,0.496-0.185,1.272c-0.181,0.785-0.573,1.857-1.341,3.052c-0.725,1.222-1.989,2.458-3.248,3.991
			c-0.621,0.772-1.151,1.679-1.695,2.647c-0.559,0.959-1.147,1.968-1.761,3.02c-1.24,2.111-2.584,4.399-4.005,6.818
			c-1.434,2.429-2.993,4.978-4.718,7.591c-1.739,2.606-3.592,5.304-5.84,7.97c-1.142,1.323-2.346,2.673-3.815,3.98
			c-0.741,0.655-2.78,3.338-6.516,3.665c-3.736,0.327-6.531-1.614-10.535-6.164C90.568,232.579,82.554,208.961,82.554,208.961z"/>
		<path style="fill:#FB523A;" d="M37.021,273.025c0,0-0.882,16.375,3.949,23.019c16,22,31.909,44.488,34.366,58
			c4.183,23,22.682,57.983,22.682,57.983c6.33-0.688,15.697-5.472,15.697-5.472s-19.727-59.324-24.518-77.047
			c-4.79-17.724-13.063-46.455-15.795-56.535c-0.31-1.142-0.577-2.21-0.825-3.241C62.99,272.929,37.021,273.025,37.021,273.025z"/>
		<g>
			<path style="fill:#FFC0A9;" d="M46.05,178.552c11.046-1.091,8.895-16.089,8.895-16.089l7.909,5.449l7.864,0.243
				c0,0-1.059,9.995,10.699,10.351c3.821,0.115,11.488,12.526,11.488,12.526H38.989C38.989,191.032,42.98,181.787,46.05,178.552z"/>
		</g>
		<path style="fill:#193441;" d="M34.311,211.208l-10.091-2.936c3.197-14.272,5.449-20.92,10.941-25.059
			c5.558-4.189,12.476-5.128,12.476-5.128s2.982,9.384,15.298,9.384c12.316,0,14.982-9.422,14.982-9.422s7.966-0.493,12.929,4.387
			c4.963,4.879,5.837,6.193,8.868,17.178l-8.154,7.596c0,0-2.41,19.336-1.735,38.041c0.675,18.705,2.226,32.537,2.226,32.537
			s-8.571,4.384-26.219,4.384c-22.534,0-31.589-3.621-31.589-3.621L34.311,211.208z"/>
		<g>
			<g>
				<defs>
					<path id="SVGID_1_" d="M87.061,145.13c-0.689-9.821-6.646-15.163-17.753-15.673c-6.62-0.304-12.885,3.03-16.69,8.456
						l-0.549,0.784c-3.146,4.485-4.311,11.854-3.024,17.179l7.075,11.262l-2.156,14.85c0,0,11.917,5.585,15.6-1.699l-0.004-8.735
						c0,0,6.137,2.852,10.893,0.618C82.94,171.002,88.466,165.172,87.061,145.13z"/>
				</defs>
				<use xlink:href="#SVGID_1_"  style="overflow:visible;fill:#FFC0A9;"/>
				<clipPath id="SVGID_00000159435396410210606470000003064948211712897445_">
					<use xlink:href="#SVGID_1_"  style="overflow:visible;"/>
				</clipPath>
			</g>
			<g>
				<path style="fill:#FFFFFF;" d="M75.663,161.749c-0.575,0.106-0.838,0.824-0.423,1.237c1.213,1.207,2.973,1.823,4.784,1.489
					c1.779-0.328,3.185-1.493,3.9-3.013c0.266-0.566-0.19-1.2-0.805-1.087L75.663,161.749z"/>
			</g>
		</g>
		<path style="fill:#FFC0A9;" d="M40.048,282.151c0.191,1.663,0.175,3.16,0.524,4.299c0.12,0.474,0.276,0.883,0.442,1.253
			c2.619-1.645,4.79-3.766,6.776-6.084c-0.198-0.427-0.4-0.866-0.597-1.335c-0.318-0.773-0.509-1.635-0.656-2.557
			c-0.163-0.918-0.335-1.883-0.514-2.89c-0.717-4.029-1.35-8.782-2.056-13.868c-0.36-2.541-0.731-5.167-1.109-7.835
			c-0.41-2.66-0.877-5.348-1.38-8.028l-0.387-2.006l-0.049-0.25l-0.023-0.158l-0.042-0.312l-0.056-0.624
			c-0.055-0.805-0.009-1.711,0.107-2.393c0.177-1.279,0.351-2.547,0.524-3.801c0.171-1.302,0.339-2.589,0.505-3.855
			c0.663-5.062,1.226-9.791,1.664-13.848c0.176-1.539,0.453-4.309,0.453-4.309l-17.086-4.445c0,0-0.228,5.022-0.341,7.382
			c-0.219,4.075-0.423,8.833-0.581,13.936c-0.039,1.276-0.08,2.573-0.121,3.886c-0.033,1.362-0.067,2.741-0.101,4.131
			c-0.026,1.991,0.159,3.795,0.542,5.664c0.094,0.461,0.205,0.919,0.323,1.374l0.191,0.679l0.179,0.578l0.644,1.939
			c0.872,2.583,1.78,5.156,2.724,7.677c0.976,2.512,1.936,4.984,2.866,7.376c1.872,4.781,3.645,9.237,4.99,13.101
			c0.336,0.966,0.659,1.892,0.965,2.772C39.693,280.476,39.947,281.321,40.048,282.151z"/>
		<path style="fill:#426DC0;" d="M51.476,159.747c0,0-5.756-9.036-7.506-13.036s-3.667-13.833,7.378-20.333
			c8.484-4.993,20.756-15.439,23.689-3.553c0,0,5.064-8.34,12.248-4.977c7.185,3.363,9.803,12.033,5.619,17.448
			c-4.184,5.415-30.434,5.99-30.434,5.99s1.25,11.762-3,12.344C55.221,154.211,51.982,147.532,51.476,159.747z"/>
		<path style="fill:#FFC0A9;" d="M58.776,152.904c0,2.116-1.715,3.831-3.831,3.831c-2.116,0-3.831-1.715-3.831-3.831
			c0-2.116,1.715-3.831,3.831-3.831C57.061,149.073,58.776,150.788,58.776,152.904z"/>
		<g>
			<g>
				<path style="fill:#193441;" d="M127.954,211.249l-4.048-5.377c-0.342-0.454-0.427-1.051-0.227-1.583l5.829-15.465
					c0.461-1.223,2.091-1.457,2.877-0.412l4.048,5.377c0.342,0.454,0.427,1.051,0.227,1.583l-5.829,15.465
					C130.37,212.06,128.74,212.294,127.954,211.249z"/>
				<polygon style="fill:#D3E3F8;" points="130.207,191.127 125.69,203.243 129.426,208.271 134.077,195.939 				"/>
			</g>
		</g>
		<path style="fill:#FFAD94;" d="M71.251,172.184c0,0-4.376-0.559-6.876-1.809c0,0,4.502,4.577,8.313,4.476L71.251,172.184z"/>
	</g>
	<g>
		<path style="fill:#91BAEE;" d="M235.907,75.998c-16.14,0-28.16,15.081-24.115,31.92c2.402,10,11.026,17.244,21.226,18.553
			c8.785,1.128,15.487-1.903,20.83-7.328l6.445,9.183v-28.74C260.294,86.414,249.316,75.998,235.907,75.998z"/>
		<g>
			<path style="fill:#FFFFFF;" d="M241.155,111.25h-14.302c-1.728,0-3.129-1.401-3.129-3.129v-9.237
				c0-1.728,1.401-3.129,3.129-3.129h2.682l-0.492-0.841c-0.906-1.55-1.384-3.313-1.384-5.108v-0.504
				c0-1.316,1.067-2.383,2.383-2.383l0,0c1.298,0,2.358,1.039,2.382,2.338l0,0c0.011,1.188,0.437,2.335,1.205,3.241l0,0
				c1.23,1.452,3.037,2.289,4.94,2.289h2.587V111.25z"/>
			<path style="fill:#193441;" d="M242.633,111.874h3.29c1.41,0,2.553-1.143,2.553-2.553V96.235c0-1.41-1.143-2.553-2.553-2.553
				h-3.29c-1.41,0-2.553,1.143-2.553,2.553v13.085C240.08,110.731,241.223,111.874,242.633,111.874z"/>
		</g>
	</g>
	<g>
		<g>
			<path style="fill:#FB523A;" d="M143.334,113.895c12.631,0,22.633,10.239,22.633,22.87s-10.358,22.87-22.988,22.87
				c-6.376,0-11.724-2.612-15.87-6.821L121,161.097v-25.924C121,123.291,131.239,113.895,143.334,113.895z"/>
			<path style="fill:#FB523A;" d="M143.752,146.929l-10.143-10.143c-1.985-1.985-1.985-5.203,0-7.189
				c1.985-1.985,5.204-1.985,7.189,0l2.954,2.954l2.954-2.954c1.986-1.985,5.204-1.985,7.189,0c1.985,1.985,1.985,5.204,0,7.189
				L143.752,146.929z"/>
		</g>
		<g>
			<path style="fill:#FB523A;" d="M143.334,113.895c12.631,0,22.633,10.239,22.633,22.87s-10.358,22.87-22.988,22.87
				c-6.376,0-11.724-2.612-15.87-6.821L121,161.097v-25.924C121,123.291,131.239,113.895,143.334,113.895z"/>
			<path style="fill:#FFFFFF;" d="M143.752,146.929l-10.143-10.143c-1.985-1.985-1.985-5.203,0-7.189
				c1.985-1.985,5.204-1.985,7.189,0l2.954,2.954l2.954-2.954c1.986-1.985,5.204-1.985,7.189,0c1.985,1.985,1.985,5.204,0,7.189
				L143.752,146.929z"/>
		</g>
	</g>
	<g>
		<g>
			<circle style="fill:#EB3434;" cx="195.271" cy="270.166" r="10.474"/>
			<path style="fill:#70A7EE;" d="M175,381.765l21.144,0.074l21.144-0.074l11.473,22.168c0,0-15.101,14.499-32.617,14.499
				s-32.617-14.499-32.617-14.499L175,381.765z"/>
			<g>
				<path style="fill:#E89A49;" d="M166.067,414.758l-6.231-3.95c-2.363-1.498-5.492-0.797-6.99,1.566l-8.988,14.177
					c-0.786,1.24-0.092,2.883,1.345,3.184l0,0c0.828,0.173,1.679-0.167,2.16-0.862l0.843-1.275c2.895-4.376,8.443-6.151,13.34-4.266
					l0,0L166.067,414.758z"/>
				<path style="fill:#193441;" d="M145.204,429.736c0.828,0.173,1.679-0.167,2.16-0.862l0.843-1.275
					c2.311-3.493,6.312-5.322,10.324-4.961c-1.472-2.07-1.946-4.868-0.315-7.637c0.965-1.638,2.244-2.56,3.612-2.929l-1.991-1.262
					c-2.363-1.498-5.492-0.797-6.99,1.566l-8.988,14.177C143.073,427.792,143.767,429.435,145.204,429.736z"/>
			</g>
			<path style="fill:#E89A49;" d="M214.86,323.886c-11.639-0.352-10.59-10.246-10.59-10.246l-7.785-0.24l-7.785,0.24
				c0,0,1.049,9.894-10.59,10.246c-3.782,0.114-11.372,12.399-11.372,12.399h53.371C220.109,336.285,216.601,323.939,214.86,323.886
				z"/>
			<path style="fill:#E88620;" d="M188.329,316.722c-0.225,0.922-0.582,1.948-1.159,2.932c3.645,7.906,13.746,8.91,18.284-0.542
				c-0.348-0.584-0.6-1.486-0.78-2.39H188.329z"/>
			<path style="fill:#E89A49;" d="M179.021,290.224c1.037-11.051,9.122-17.394,17.077-17.266
				c7.955,0.127,15.883,6.727,16.651,17.808c0.45,6.49-0.963,13.485-1.981,17.506c-0.605,2.393-1.738,4.567-3.309,6.284
				c-3.6,3.935-8.276,7.073-11.952,7.014c-3.676-0.059-8.274-3.345-11.777-7.395c-1.528-1.767-2.607-3.977-3.155-6.388
				C179.656,303.734,178.413,296.697,179.021,290.224z"/>
			<path style="fill:#E89A49;" d="M176.261,344.626c0,0-0.237,0.25-0.682,0.718c-0.436,0.458-1.071,1.124-1.907,1.939
				c-0.838,0.813-1.855,1.801-3.021,2.934c-1.169,1.133-2.541,2.359-4.053,3.7c-1.516,1.339-3.21,2.744-5.072,4.222
				c-1.886,1.471-3.909,2.967-6.421,4.497c-0.635,0.383-1.309,0.766-2.086,1.145c-0.4,0.191-0.774,0.378-1.262,0.572
				c-0.238,0.096-0.448,0.186-0.712,0.282l-0.852,0.279l-0.214,0.065l-0.053,0.016c-1.119,0.289-0.327,0.083-0.584,0.148
				l-0.058,0.009l-0.262,0.042c-0.929,0.175-2.093,0.142-2.552,0.048c-0.655-0.084-1.141-0.23-1.659-0.398
				c-0.463-0.165-0.892-0.356-1.266-0.55c-1.449-0.782-2.282-1.572-3.01-2.294c-0.713-0.729-1.269-1.419-1.764-2.092
				c-0.499-0.674-0.94-1.334-1.333-1.992c-0.798-1.314-1.473-2.603-2.095-3.886c-1.214-2.579-2.215-5.136-3.054-7.686
				c-0.848-2.543-1.592-5.045-2.237-7.48c-0.652-2.432-1.195-4.798-1.691-7.042c-0.505-2.241-0.927-4.372-1.307-6.344
				c-0.379-1.975-0.567-3.815-1.154-5.385c-0.551-1.58-0.972-3.013-1.043-4.253c-0.103-1.235,0.063-2.257,0.262-2.953
				c0.192-0.696,0.418-1.065,0.418-1.065c0.921-1.503,2.885-1.976,4.389-1.055c0.37,0.227,0.678,0.516,0.917,0.847l0.263,0.368
				c0,0,0.2,0.279,0.415,0.796c0.217,0.517,0.463,1.276,0.602,2.294c0.168,1.013,0.141,2.305,0.164,3.829
				c-0.003,1.532,0.566,3.173,1.144,4.963c1.141,3.589,2.847,7.694,4.924,11.935c1.033,2.121,2.153,4.28,3.353,6.406
				c1.214,2.116,2.451,4.236,3.755,6.184c0.637,0.979,1.294,1.915,1.95,2.732c0.643,0.805,1.315,1.562,1.751,1.877
				c0.193,0.156,0.355,0.177,0.033-0.029c-0.091-0.055-0.226-0.126-0.394-0.185c-0.215-0.086-0.401-0.129-0.741-0.192
				c-0.148-0.031-0.998-0.1-1.614,0.069l0.198-0.053l0.057-0.015c-0.238,0.061,0.574-0.147-0.527,0.135l0.001-0.004l0.006-0.014
				c0.008-0.018,0.018-0.031,0.028-0.04l0.139-0.098l0.393-0.266c0.305-0.213,0.672-0.477,1.049-0.763
				c1.533-1.161,3.151-2.642,4.657-4.048c1.523-1.412,2.94-2.842,4.264-4.153c1.317-1.335,2.524-2.558,3.594-3.642
				c1.065-1.099,1.993-2.058,2.757-2.847c1.503-1.566,2.363-2.461,2.363-2.461l0.054-0.056c2.85-2.969,7.568-3.065,10.537-0.215
				C178.974,336.96,179.079,341.655,176.261,344.626z"/>
			<path style="fill:#E89A49;" d="M229.244,336.162c0,0,1.962,4.164,4.726,10.5c1.368,3.168,2.964,6.865,4.674,10.826
				c0.84,1.971,1.709,4.008,2.591,6.078c0.438,1.011,0.88,2.03,1.324,3.052l0.805,1.799c0.208,0.47,0.513,1.424,0.564,1.87
				c0.105,0.552,0.14,1.12,0.136,1.685c-0.028,1.12-0.275,2.152-0.609,3.001c-0.683,1.665-1.548,2.661-2.297,3.44
				c-0.761,0.761-1.47,1.313-2.16,1.776c-1.369,0.906-2.63,1.543-3.859,2.082c-2.46,1.053-4.795,1.718-7.053,2.267
				c-2.249,0.553-4.403,0.981-6.441,1.339c-2.027,0.335-3.944,0.651-5.713,0.943c-0.878,0.144-1.719,0.281-2.52,0.412
				c-0.798,0.137-1.568,0.202-2.262,0.394c-1.383,0.399-2.515,1.126-3.54,1.323c-2.027,0.518-3.376-0.254-3.376-0.254
				c-1.726-0.987-2.326-3.187-1.339-4.913c0.089-0.156,0.188-0.302,0.295-0.439l0.113-0.141c0,0,0.234-0.294,0.71-0.607
				c0.473-0.329,1.19-0.658,2.159-0.808c0.957-0.199,2.226,0.016,3.587-0.213c1.34-0.319,2.799-0.899,4.398-1.462
				c1.587-0.612,3.291-1.305,5.043-2.135c1.754-0.815,3.574-1.714,5.375-2.695c0.899-0.492,1.795-1.003,2.658-1.539
				c0.867-0.523,1.723-1.048,2.49-1.6c0.776-0.53,1.486-1.078,1.955-1.557c0.223-0.235,0.392-0.437,0.415-0.524
				c0.026-0.071-0.149-0.027-0.417,0.556c-0.137,0.305-0.272,0.765-0.287,1.307c-0.019,0.277,0.009,0.556,0.046,0.826
				c0.013,0.159,0.202,0.844,0.322,1.041l-0.104-0.19l-0.026-0.047c-0.156-0.311,0.198,0.397,0.155,0.314l-0.015-0.026l-0.06-0.102
				l-0.24-0.409l-0.478-0.819c-0.6-1.046-1.182-2.082-1.727-3.099c-1.087-2.029-2.156-4.026-3.191-5.959
				c-2.011-3.871-3.853-7.487-5.39-10.605c-3.086-6.228-4.98-10.46-4.98-10.46l-0.004-0.008c-1.681-3.757,0.001-8.166,3.758-9.847
				C223.168,330.875,227.517,332.503,229.244,336.162z"/>
			<path style="fill:#FFFFFF;" d="M191.534,309.377c-0.665,0-1.107,0.749-0.728,1.296c1.108,1.601,2.95,2.652,5.045,2.652
				c2.058,0,3.871-1.014,4.985-2.566c0.414-0.578,0.035-1.382-0.676-1.382H191.534z"/>
			<path style="fill:#D3E3F8;" d="M167.878,327.774c4.913-4.83,13.358-4.408,13.358-4.408s3.231,9.582,14.908,9.733
				c11.677-0.151,14.908-9.733,14.908-9.733s8.444-0.422,13.358,4.408c4.913,4.83,7.941,12.186,7.941,12.186l-12.242,13.862
				l-1.662-3.672c0,0-2.153,23.784-1.053,31.54c0,0-8.598,4.259-21.249,4.259c-12.65,0-21.249-4.259-21.249-4.259
				c1.1-7.756-1.089-32.604-1.089-32.604l-4.098,1.937l-11.924-13.502C157.784,337.522,162.965,332.603,167.878,327.774z"/>
			<path style="fill:#91BAEE;" d="M162.741,424.549l73.276-9.576c7.815-1.221,12.991-8.767,11.316-16.497l-0.002-0.007
				c-1.675-7.73-9.51-12.457-17.129-10.333l-70.312,22.379L162.741,424.549z"/>
			<path style="fill:#70A7EE;" d="M160.867,415.323l-0.977-4.807l19.232-6.121c4.692,4.261,10.625,7.463,16.161,9.803
				c4.036,1.706,8.77,3.425,13.587,4.324l-28.966,3.785C173.331,421.43,166.941,418.635,160.867,415.323z"/>
			<path style="fill:#70A7EE;" d="M219.623,415.071c-10.533-5.474-21.715-9.33-32.937-13.084l13.002-4.138
				c5.135,1.637,10.212,3.379,15.283,5.357c6.152,2.399,13.762,4.429,17.518,7.882c2.003,1.841,4.131,2.831,6.232,3.175
				c-0.859,0.321-1.761,0.565-2.704,0.712l-13.876,1.813C221.377,416.133,220.541,415.548,219.623,415.071z"/>
			<g>
				<path style="fill:#E89A49;" d="M226.173,414.758l6.231-3.95c2.363-1.498,5.492-0.797,6.99,1.566l8.988,14.177
					c0.786,1.24,0.092,2.883-1.345,3.184l0,0c-0.828,0.173-1.679-0.167-2.16-0.862l-0.843-1.275
					c-2.895-4.376-8.443-6.151-13.34-4.266l0,0L226.173,414.758z"/>
				<path style="fill:#193441;" d="M247.036,429.736c-0.828,0.173-1.679-0.167-2.16-0.862l-0.843-1.275
					c-2.311-3.493-6.312-5.322-10.324-4.961c1.472-2.07,1.946-4.868,0.315-7.637c-0.965-1.638-2.244-2.56-3.612-2.929l1.991-1.262
					c2.363-1.498,5.492-0.797,6.99,1.566l8.988,14.177C249.168,427.792,248.473,429.435,247.036,429.736z"/>
			</g>
			<path style="fill:#91BAEE;" d="M229.5,424.549l-73.276-9.576c-7.815-1.221-12.991-8.767-11.316-16.497l0.002-0.007
				c1.675-7.73,9.51-12.457,17.129-10.333l70.312,22.379L229.5,424.549z"/>
			<path style="fill:#FB523A;" d="M203.483,292.014c3.99,0.557,6.709,5.04,7.632,8.961c0.226,0.959,0.308,1.971,0.764,2.845
				s1.445,1.584,2.392,1.311c1.063-0.306,1.457-1.581,1.656-2.67c1.18-6.465,1.354-13.259-0.734-19.49
				c-2.089-6.23-6.689-11.831-12.886-14.019c-8.462-2.987-18.502,1.258-23.337,8.819c-4.834,7.561-2.967,26.426-0.11,26.572
				c2.856,0.145,0-3.262,3.893-9.558c1.56-2.523,4.576-13.706,4.576-13.706S193.526,290.625,203.483,292.014z"/>
		</g>
		<g>
			<path style="fill:#193441;" d="M222.857,392.847h-49.463c-1.535,0-2.779-1.244-2.779-2.779v-29.087
				c0-1.535,1.244-2.779,2.779-2.779h49.463c1.535,0,2.779,1.244,2.779,2.779v29.087
				C225.635,391.603,224.391,392.847,222.857,392.847z"/>
			<path style="fill:#FFFFFF;" d="M198.688,368.286l2.115,4.286l4.73,0.687c0.515,0.075,0.721,0.708,0.348,1.071l-3.423,3.336
				l0.808,4.711c0.088,0.513-0.451,0.904-0.911,0.662l-4.23-2.224l-4.231,2.224c-0.461,0.242-0.999-0.149-0.911-0.662l0.808-4.711
				l-3.423-3.336c-0.373-0.363-0.167-0.996,0.348-1.071l4.73-0.687l2.115-4.286C197.792,367.82,198.458,367.82,198.688,368.286z"/>
		</g>
	</g>
	<g>
		<path style="fill:#E89A49;" d="M285.039,416.846c-0.262-1.528-0.518-3.056-0.738-4.584c-0.242-1.528-0.426-3.057-0.64-4.586
			c-0.216-1.528-0.376-3.058-0.567-4.587c-0.192-1.529-0.358-3.058-0.511-4.587l-0.475-4.588l-0.404-4.589
			c-0.129-1.53-0.284-3.059-0.382-4.589l-0.328-4.59c-0.233-3.06-0.414-6.12-0.508-9.182c-0.043-1.531-0.072-3.062-0.081-4.594
			l0.019-4.595l0.125-9.191c-0.004-3.063-0.004-6.126-0.154-9.187c-0.019-0.39,0.006-0.772,0.07-1.141l0.097-0.531
			c0.28-1.544,0.523-3.15,0.724-4.741c0.212-1.595,0.366-3.202,0.546-4.803l0.986-9.617c0.333-3.201,0.547-6.419,0.784-9.623
			c0.216-3.208,0.463-6.402,0.585-9.601c0.135-3.197,0.239-6.383,0.305-9.544c0.033-3.164,0.003-6.309-0.084-9.384
			c-0.041-1.536-0.147-3.057-0.253-4.539c-0.116-1.481-0.241-2.929-0.439-4.285c-0.199-1.347-0.445-2.628-0.743-3.563
			c-0.15-0.471-0.336-0.829-0.488-0.908c-0.113-0.054-0.379,0.021,0.058,1.61c-3.387-8.467,0.732-18.076,9.198-21.462
			c8.467-3.387,18.076,0.732,21.462,9.198c1.026,3.1,1.062,4.78,1.161,6.328c0.061,1.526,0,2.784-0.091,3.93
			c-0.168,2.3-0.471,4.259-0.808,6.147c-0.338,1.879-0.689,3.661-1.08,5.406c-0.382,1.743-0.81,3.444-1.21,5.126
			c-0.808,3.36-1.69,6.635-2.58,9.88c-0.863,3.246-1.759,6.459-2.681,9.65l-2.727,9.54l-2.773,9.474l-2.776,9.441l-1.408,4.711
			c-0.459,1.578-0.883,3.141-1.288,4.761l0.168-1.672c-0.061,3.064,0.028,6.126,0.112,9.188l0.392,9.184l0.152,4.593
			c0.035,1.531,0.051,3.063,0.052,4.594c-0.005,3.063-0.098,6.128-0.241,9.193l-0.195,4.598c-0.053,1.532-0.163,3.066-0.248,4.598
			l-0.271,4.599l-0.341,4.6c-0.109,1.533-0.23,3.066-0.378,4.6c-0.146,1.534-0.262,3.067-0.434,4.601
			c-0.17,1.534-0.309,3.068-0.507,4.602c-0.176,1.534-0.387,3.069-0.604,4.604c-0.297,2.093-2.235,3.548-4.327,3.251
			C286.587,419.748,285.315,418.438,285.039,416.846z"/>
		<g>
			<path style="fill:#E89A49;" d="M293.509,410.15l0.249,7.643c0.095,2.898-2.178,5.324-5.077,5.419l-17.39,0.567
				c-1.521,0.05-2.623-1.435-2.135-2.876l0,0c0.281-0.831,1.032-1.412,1.906-1.475l1.582-0.082
				c5.431-0.283,10.888-5.578,11.781-10.943L293.509,410.15z"/>
			<path style="fill:#193441;" d="M269.156,420.902c0.281-0.831,1.032-1.412,1.906-1.475l1.582-0.082
				c4.336-0.226,8.074-2.838,9.863-6.609c1.074,2.404,3.324,4.299,6.655,4.299c1.971,0,3.467-0.657,4.517-1.684l0.079,2.442
				c0.095,2.898-2.178,5.324-5.077,5.419l-17.39,0.567C269.771,423.828,268.669,422.344,269.156,420.902z"/>
		</g>
		<g>
			<path style="fill:#E89A49;" d="M311.89,395.177l7.127,2.771c2.703,1.051,4.042,4.094,2.991,6.796l-6.305,16.217
				c-0.552,1.418-2.35,1.849-3.484,0.835l0,0c-0.654-0.584-0.893-1.503-0.608-2.332l0.545-1.487
				c1.872-5.106,0.631-9.707-5.361-14.901L311.89,395.177z"/>
			<path style="fill:#193441;" d="M312.22,421.796c-0.654-0.584-0.893-1.503-0.608-2.332l0.545-1.487
				c1.495-4.076,0.56-8.54-2.207-11.666c2.633-0.044,5.259-1.369,6.567-4.433c0.774-1.813,0.757-3.447,0.224-4.815l2.278,0.886
				c2.703,1.051,4.042,4.094,2.991,6.796l-6.305,16.217C315.152,422.379,313.354,422.81,312.22,421.796z"/>
		</g>
		<path style="fill:#E89A49;" d="M307.318,403.804c-1.283-1.263-2.532-2.551-3.772-3.846c-1.251-1.287-2.453-2.609-3.681-3.912
			l-3.613-3.962l-3.572-3.993c-4.717-5.357-9.316-10.801-13.825-16.311c-2.269-2.745-4.476-5.534-6.605-8.382
			c-1.066-1.423-2.12-2.854-3.141-4.31c-1.022-1.455-2.065-2.895-3.069-4.363c-2.026-2.923-4.042-5.854-6.107-8.749
			c-1.036-1.445-2.086-2.879-3.162-4.295c-1.071-1.419-2.162-2.823-3.282-4.207c-1.654-2.044-2.05-4.698-1.286-7.023l0.314-0.929
			c0.838-2.485,1.506-5.041,2.23-7.573c0.725-2.532,1.401-5.084,2.096-7.628c1.366-5.099,2.689-10.215,3.933-15.364
			c0.633-2.57,1.23-5.155,1.83-7.738l1.713-7.787l0.8-3.917c0.259-1.309,0.541-2.608,0.78-3.925
			c0.494-2.628,0.982-5.257,1.388-7.921c1.553-10.179,11.064-17.171,21.243-15.618c10.179,1.553,17.171,11.064,15.618,21.243
			c-0.464,3.042-1.693,5.866-3.384,8.196c-1.591,2.174-3.1,4.383-4.604,6.593c-0.759,1.102-1.476,2.222-2.216,3.332l-2.196,3.34
			l-4.279,6.727c-1.397,2.254-2.798,4.507-4.162,6.776c-2.751,4.527-5.422,9.087-8.051,13.664c-1.302,2.294-2.623,4.579-3.896,6.885
			c-1.274,2.305-2.603,4.588-3.762,6.94l-0.972-7.951c0.989,1.48,2.006,2.938,3.043,4.382c1.032,1.448,2.091,2.876,3.163,4.294
			c2.151,2.831,4.352,5.626,6.542,8.428c1.104,1.395,2.169,2.818,3.256,4.226c1.087,1.407,2.141,2.839,3.184,4.279
			c2.088,2.878,4.097,5.813,6.045,8.794c3.924,5.941,7.758,11.949,11.474,18.043l2.753,4.596l2.712,4.626
			c0.88,1.56,1.786,3.1,2.643,4.676c0.869,1.568,1.728,3.143,2.553,4.743c1.063,2.061,0.253,4.595-1.808,5.657
			C310.536,405.395,308.576,405.039,307.318,403.804z"/>
		<path style="fill:#FFD05B;" d="M254.314,339.524l24.919,35.013l3.329,32.135l11.94,0.888l0.843-15.268l8.744,8.522l4.971-13.138
			l-12.428-18.819c0,0-1.065-23.08,0-25.921c1.065-2.841,16.334-47.581,19.529-59.653c3.196-12.073,1.42-22.015-2.486-33.377
			l-43.148-5.37c0,0-3.722,13.181-5.142,25.609c-0.994,8.696-9.237,34.669-14.097,49.483
			C249.076,326.365,250.202,333.746,254.314,339.524z M270.356,332.282l12.428-21.66c0,0-3.996,23.364-4.266,30.904
			C278.497,342.089,270.356,332.282,270.356,332.282z"/>
		<path style="fill:#FFC0A9;" d="M275.334,200.429c0,0-0.289,0.245-0.829,0.704c-0.53,0.441-1.287,1.095-2.286,1.878
			c-1.998,1.566-4.816,3.823-8.405,6.338c-1.791,1.263-3.762,2.608-5.939,3.965c-2.178,1.362-4.521,2.77-7.213,4.098
			c-1.354,0.666-2.78,1.324-4.433,1.934c-0.834,0.303-1.721,0.596-2.751,0.851c-1.04,0.24-2.203,0.473-3.796,0.485
			c-0.822-0.01-1.721-0.06-2.862-0.359c-0.272-0.069-0.546-0.148-0.861-0.267l-0.45-0.175l-0.222-0.094
			c-0.197-0.093,0.284,0.141-0.468-0.221l-0.028-0.016l-0.224-0.133l-0.341-0.201l-0.44-0.28l-0.427-0.298l-0.269-0.213
			l-0.488-0.414c-0.27-0.253-0.554-0.526-0.775-0.769c-0.453-0.492-0.828-0.959-1.142-1.392c-1.249-1.741-1.978-3.2-2.675-4.644
			c-1.33-2.868-2.319-5.555-3.247-8.201c-0.878-2.603-1.742-5.165-2.579-7.645c-0.842-2.438-1.688-4.754-2.558-6.897
			c-0.874-2.14-1.806-4.091-2.769-5.79c-0.485-0.847-0.969-1.639-1.451-2.364c-0.471-0.732-0.973-1.378-1.556-1.859
			c-1.187-0.949-2.352-1.433-3.078-1.986c-0.76-0.522-1.244-1.009-1.576-1.418c-0.333-0.398-0.5-0.715-0.5-0.715l-0.604-1.141
			c-0.823-1.555-0.23-3.482,1.325-4.305c0.37-0.196,0.772-0.312,1.165-0.354c0,0,0.122-0.013,0.359-0.037
			c0.233-0.01,0.59-0.026,1.022,0.039c0.877,0.097,2.131,0.469,3.381,1.354c0.637,0.429,1.245,0.993,1.833,1.655
			c0.577,0.666,1.127,1.425,1.714,2.19c0.58,0.77,1.262,1.503,1.979,2.273c0.703,0.779,1.402,1.618,2.101,2.507
			c1.407,1.772,2.811,3.736,4.238,5.825c1.432,2.086,2.851,4.318,4.257,6.627c1.4,2.311,2.814,4.691,4.192,7.069
			c0.674,1.171,1.353,2.35,2.035,3.535c0.661,1.161,1.328,2.294,1.993,3.318c0.641,1.013,1.324,1.988,1.794,2.449
			c0.114,0.118,0.199,0.176,0.23,0.184c0.019,0.009-0.002-0.036-0.018-0.052c-0.025-0.032-0.052-0.061-0.082-0.088l-0.064-0.053
			c-0.068-0.054-0.138-0.106-0.21-0.154c-0.072-0.049-0.147-0.094-0.223-0.136c-0.059-0.035-0.212-0.107-0.119-0.064l0.237,0.107
			l0.03,0.013l-0.408-0.197l-0.1-0.049l-0.206-0.085l-0.363-0.123c-0.471-0.122-0.672-0.141-0.807-0.157
			c-0.212-0.028-0.019-0.068,0.257-0.19c0.287-0.111,0.68-0.28,1.1-0.482c0.851-0.41,1.814-0.954,2.768-1.54
			c1.918-1.193,3.857-2.526,5.673-3.851c1.815-1.337,3.541-2.651,5.126-3.891c3.159-2.497,5.811-4.618,7.614-6.148
			c1.788-1.491,2.809-2.343,2.809-2.343l0.106-0.088c3.46-2.885,8.604-2.419,11.489,1.041
			C279.188,192.427,278.74,197.535,275.334,200.429z"/>
		<path style="fill:#FFC0A9;" d="M311.965,184.617c-12.065-0.365-10.978-10.621-10.978-10.621l-8.069-0.249l-6.635-2.315
			c0,0-0.347,12.82-12.412,13.185c-3.921,0.118-11.788,12.852-11.788,12.852h55.322C317.406,197.469,313.77,184.671,311.965,184.617
			z"/>
		<path style="fill:#5493E3;" d="M268.58,186.167c3.196-1.598,8.179-1.716,8.179-1.716s3.396,9.559,15.781,9.715
			c12.385-0.157,15.72-10.13,15.72-10.13s5.56-1.012,10.652,3.995c5.092,5.006-0.666,13.981-0.666,13.981
			s-6.791,23.036-3.693,42.521c0,0-8.535,4.414-22.013,4.414c-13.478,0-22.013-4.414-22.013-4.414
			c3.024-14.87-1.414-22.682-2.479-29.339C266.982,208.537,272.841,201.613,268.58,186.167z"/>
		<path style="opacity:0.6;fill:#FFAA03;" d="M282.606,310.711c0,0,5.264-25.558,3.196-34.176c0,0-3.551,25.122-15.446,55.747
			L282.606,310.711z"/>
		<g>
			<g>
				<defs>
					<path id="XMLID_11_" d="M271.005,147.012c0.758-9.333,6.473-14.361,17.028-14.749c6.291-0.231,12.207,2.993,15.763,8.186
						l0.513,0.75c2.941,4.292,3.969,11.309,2.69,16.362c0,0-0.982,0.186-4.219,6.257c-3.237,6.072-1.12,16.822-1.12,16.822
						s-10.988,6.914-14.409-0.044l0.096-8.306c0,0-5.86,2.659-10.353,0.493C274.646,171.65,269.458,166.058,271.005,147.012z"/>
				</defs>
				<use xlink:href="#XMLID_11_"  style="overflow:visible;fill:#FFC0A9;"/>
				<clipPath id="XMLID_00000117678321685348616120000011598806611218135436_">
					<use xlink:href="#XMLID_11_"  style="overflow:visible;"/>
				</clipPath>
			</g>
		</g>
		<path style="fill:#193441;" d="M281.295,146.037c3.135,2.775,5.931,4.931,6.131,9.879c0.2,4.948,3.26,6.367,5.454,3.481
			c0.598-0.787,2.53-3.303,3.502-3.481c1.402-0.257,1.421,2.721,1.799,4.095c0.378,1.374,0.168,2.834,0.282,4.255
			c0.114,1.421,0.705,2.98,2.027,3.513c6.281-1.639,10.734-7.767,11.694-14.187c0.96-6.42-1.085-12.984-4.305-18.621
			c-1.589-2.782-3.542-5.472-6.279-7.137c-5.682-3.457-12.518-3.695-19.881-0.82c-3.328,1.3-10.364,5.99-9.375,10.75
			C273.157,141.668,278.525,143.584,281.295,146.037z"/>
		<g>
			<polygon style="fill:#E89A49;" points="309.496,264.359 294.26,267.092 285.451,237.636 307.516,233.677 			"/>
			<g>
				<polygon style="fill:#FFFFFF;" points="309.252,256.858 308.161,241.101 287.426,244.821 291.881,259.974 				"/>
			</g>
			<path style="fill:#FFE79F;" d="M307.581,236.092l-21.353,3.831c-0.544,0.098-1.063-0.264-1.161-0.808l-0.691-3.854
				c-0.098-0.544,0.264-1.063,0.808-1.161l21.353-3.831c0.544-0.098,1.063,0.264,1.161,0.808l0.691,3.854
				C308.487,235.474,308.125,235.994,307.581,236.092z"/>
		</g>
		<path style="fill:#FFC0A9;" d="M296.764,255.059c0.288,0.186,0.593,0.326,0.905,0.422l0.43,0.129c0,0,0.475,0.144,1.217,0.131
			c0.733-0.016,1.765-0.166,2.991-0.684c1.242-0.468,2.666-1.532,4.579-1.808c1.903-0.278,4.066-0.572,6.457-0.718
			c2.387-0.183,4.998-0.21,7.756-0.219c2.761,0.01,5.673,0.065,8.679,0.197c1.497,0.057,3.019,0.115,4.559,0.174
			c0.761,0.028,1.527,0.057,2.297,0.085l1.204,0.047l0.151,0.006l0.038,0.001c0.017,0-0.036,0.003,0.015,0.002l0.116,0.001h0.467
			l0.937-0.036c2.501-0.175,5.015-0.882,7.298-2.084c0.288-0.146,0.566-0.31,0.847-0.47l0.886-0.562l0.258-0.167
			c0.248-0.171,0.591-0.452,0.865-0.698c0.576-0.527,1.095-1.132,1.519-1.771c0.849-1.277,1.29-2.602,1.505-3.696
			c0.215-1.104,0.247-2.043,0.224-2.868c-0.062-1.643-0.324-2.891-0.615-4.036c-0.297-1.132-0.639-2.137-0.997-3.088
			c-0.719-1.893-1.507-3.573-2.317-5.182c-1.621-3.204-3.344-6.096-5.078-8.82c-3.451-5.445-6.912-10.203-9.936-14.234
			c-3.054-4.002-5.67-7.258-7.523-9.532c-1.912-2.263-3.004-3.556-3.004-3.556c-0.863-1.022-4.225-4.31-5.38-4.793
			c-3.058,0.643-5.473,15.748-2.339,20.949c1.807,2.137,2.56,3.072,5.524,6.814c2.997,3.738,6.439,8.149,9.822,12.918
			c1.672,2.387,3.344,4.869,4.797,7.338c0.72,1.23,1.383,2.465,1.896,3.595c0.116,0.255,0.221,0.502,0.318,0.74
			c-0.018,0.005-0.033,0.014-0.051,0.019l-0.267,0.068l-0.136,0.029l-0.034,0.008c0.026,0-0.052,0.004-0.06,0.005l-0.037,0.004
			l-0.15,0.016l-1.198,0.128c-0.787,0.087-1.655,0.179-2.468,0.288c-1.627,0.235-3.217,0.451-4.78,0.739
			c-3.122,0.571-6.124,1.187-8.959,1.831c-2.837,0.643-5.499,1.361-7.96,1.984c-1.228,0.333-2.406,0.651-3.525,0.954
			c-1.12,0.331-2.179,0.612-3.173,0.936c-1.977,0.629-3.906,0.509-5.404,0.884c-0.75,0.192-1.403,0.425-1.949,0.678
			c-0.549,0.254-0.988,0.594-1.332,0.859c-0.686,0.552-0.973,0.997-0.973,0.997C294.583,251.708,295.07,253.967,296.764,255.059z
			 M339.976,238.683c-0.004,0.003-0.01,0.005-0.014,0.009c0.063-0.063,0.121-0.13,0.187-0.188c0.119-0.113,0.31-0.257,0.391-0.308
			l-0.236,0.196c-0.11,0.091-0.076,0.065-0.094,0.084c-0.013,0.014-0.003,0.019-0.033,0.044
			C340.109,238.572,340.046,238.634,339.976,238.683z"/>
		<path style="fill:#FFC0A9;" d="M301.305,159.747c0,2.116-1.715,3.831-3.831,3.831c-2.116,0-3.831-1.715-3.831-3.831
			c0-2.116,1.715-3.831,3.831-3.831C299.589,155.915,301.305,157.631,301.305,159.747z"/>
		<circle style="fill:#193441;" cx="306.258" cy="130.139" r="9.875"/>
		<path style="fill:#FFAD94;" d="M286.154,172.741l-0.703,3.037c0,0,5.758-1.598,7.264-5.431
			C292.715,170.347,287.98,172.233,286.154,172.741z"/>
		<g>
			<path style="fill:#FFFFFF;" d="M275.157,163.866c-0.483,0.01-0.793,0.562-0.509,0.953c0.831,1.145,2.185,1.88,3.707,1.846
				c1.495-0.032,2.796-0.798,3.58-1.943c0.292-0.426,0.004-1.004-0.513-0.993L275.157,163.866z"/>
		</g>
	</g>
	<g>
		<g>
			<g>
				<polygon style="fill:#FB523A;" points="424.53,370.249 446.853,423 449.483,423 432.662,362.719 				"/>
				<polygon style="fill:#FB523A;" points="392.719,370.249 370.396,423 367.767,423 384.587,362.719 				"/>
			</g>
			<path style="fill:#FFD05B;" d="M361.234,358.772c-8.967,7.742,9.533,27.953,38.533,30.097c29,2.145,53.116-17.132,69.654-50.598
				c16.539-33.465,17.798-79.799-30.428-60.529c-48.226,19.271-47.111,79.403-47.111,79.403L361.234,358.772z"/>
		</g>
		<g>
			<path style="fill:#DB8832;" d="M407.038,293.581c-1.943,2.013-4.032,4.123-6.258,6.265c-1.811,1.719-3.682,3.47-5.614,5.118
				c-1.924,1.647-3.927,3.204-5.834,4.487c-0.951,0.636-1.889,1.189-2.688,1.572c-0.781,0.401-1.494,0.582-1.467,0.619
				c-0.01,0.015,0.012,0.02,0.049,0.026c0.025,0.012,0.055,0.029,0.126,0.04c0.029,0.008,0.058,0.019,0.086,0.033l0.021,0.011
				c0.427,0.109,0.1,0.027,0.187,0.05l-0.032-0.005l-0.127-0.022c-0.137-0.022-0.439-0.083-0.325-0.047
				c0.104,0.062-0.037,0.048-0.146,0.033c-0.112-0.016-0.237-0.048-0.372-0.085c-0.538-0.189-1.284-0.53-2.019-1.082
				c-1.524-1.061-3.092-2.66-4.448-4.334c-1.358-1.69-2.612-3.45-3.627-5.172c-1.039-1.714-1.861-3.381-2.57-4.873
				c-0.815-1.461-0.646-3.036-0.854-4.197c-0.198-1.168-0.63-1.997-1.07-2.522c-0.221-0.262-0.416-0.455-0.574-0.575
				c-0.152-0.127-0.246-0.165-0.246-0.165l-1.434-0.584c-0.043-0.017-0.087-0.034-0.131-0.05c-1.837-0.657-3.859,0.3-4.515,2.137
				c0,0-0.041,0.113-0.119,0.333c-0.073,0.208-0.139,0.502-0.187,0.873c-0.094,0.741-0.001,1.767,0.521,2.942
				c0.514,1.182,1.601,2.439,1.935,4.194c0.441,1.723,0.998,3.655,1.633,5.797c0.659,2.131,1.378,4.483,2.426,6.966
				c1.065,2.478,2.339,5.141,4.487,7.848c1.099,1.324,2.423,2.708,4.222,3.883c0.456,0.293,0.929,0.577,1.438,0.841
				c0.512,0.26,1.004,0.501,1.759,0.771l0.659,0.24l0.121,0.045l0.03,0.011c0.108,0.028-0.199-0.047,0.25,0.066l0.147,0.034
				l0.592,0.123c0.408,0.085,0.78,0.129,1.149,0.161c0.381,0.04,0.746,0.06,1.081,0.058c1.396,0.017,2.606-0.157,3.668-0.392
				c1.074-0.235,2.045-0.53,2.933-0.856c1.796-0.649,3.346-1.401,4.81-2.185c2.921-1.566,5.463-3.311,7.876-5.067
				c2.404-1.762,4.657-3.547,6.753-5.337c1.165-0.984,2.28-1.96,3.361-2.925C411.895,303.766,409.283,298.78,407.038,293.581z"/>
			<polygon style="fill:#325290;" points="386.971,328.264 352.885,306.028 351.138,332.709 383.346,346.764 395.721,338.514 			"/>
			<path style="fill:#E89A49;" d="M329.625,411.164l-1.407-5.774l-10.283,1.65c0.091,2.197-0.425,4.299-1.404,6.136
				C320.562,415.968,326.911,415.581,329.625,411.164z"/>
			<path style="fill:#193441;" d="M329.443,410.417c-1.091,2.17-3.213,3.837-6.285,3.837c-2.954,0-4.807-1.524-5.646-3.553
				c-1.106,4.046-4.281,7.333-8.51,8.45l-1.587,0.419c-0.874,0.25-1.512,1-1.621,1.902c-0.188,1.566,1.245,2.838,2.778,2.465
				l17.523-4.269c2.921-0.711,4.711-3.656,4-6.576L329.443,410.417z"/>
			<path style="fill:#E89A49;" d="M308.616,386.739c2.492,0.568,4.631-0.743,6.504-2.322l0.744-6.091l-10.204-2.083
				c-0.604,1.828-1.622,3.422-2.914,4.714C303.476,383.678,305.851,386.108,308.616,386.739z"/>
			<path style="fill:#193441;" d="M315.237,383.462c-1.786,1.646-4.36,2.457-7.234,1.373c-2.764-1.042-3.96-3.122-4.03-5.317
				c-2.462,3.396-6.592,5.351-10.944,4.905l-1.633-0.167c-0.906-0.074-1.768,0.402-2.188,1.208c-0.729,1.399,0.164,3.095,1.73,3.286
				l17.903,2.187c2.984,0.364,5.698-1.759,6.063-4.743L315.237,383.462z"/>
			<path style="fill:#426DC0;" d="M345.401,353.126c-1.12,5.501-2.402,10.971-3.823,16.415
				c-1.424,5.444-11.234,41.141-11.236,41.145c0,0-9.457-0.016-13.699-2.899c-0.192-7.535,8.566-52.74,9.517-58.272
				c0.471-2.767,1.025-5.518,1.582-8.269c0.607-2.742,1.201-5.486,1.982-8.194c1.437-4.986,6.333-8.038,11.329-7.298l0.427,0.064
				c0,0,0.385,8.686,4.813,0.691c4.427-7.995,55.176,13.505,55.176,13.505c11.022,1.621,20.502,8.281,18.881,19.303
				c-1.621,11.022-11.87,18.643-22.892,17.022c-1.825-0.268-3.645-0.818-5.257-1.524l-44.919-31.232
				C346.99,345.232,345.738,351.484,345.401,353.126z"/>
			<path style="fill:#193441;" d="M458.33,292.245c-3.184-5.074-5.288-6.788-11.319-10.991l-9.099-3.324
				c-4.196-2.76-7.476-2.93-10.083-2.93c-0.001,0-0.002,0-0.003,0c-3.062,0-8.255,5.096-8.255,5.096s-0.889,0.939-2.445,2.68
				c-1.588,1.764-3.872,4.268-6.666,7.236c-1.418,1.518-2.973,3.138-4.631,4.834c1.247,2.325,2.438,4.669,3.591,7.038
				c-2.77,8.597-5.926,11.154-10.67,18.977l-12.499,6.616c0,0,0,12.627,33.118,34.88c6.124-11.821,10.401-17.6,18.102-26.844
				C449.318,321.29,464.137,301.502,458.33,292.245z"/>
			<g>
				<defs>
					<path id="XMLID_52_" d="M415.879,243.023c1.165-9.879,7.432-14.986,18.667-14.969c6.695,0.01,12.859,3.674,16.44,9.332
						l0.517,0.817c2.961,4.677,3.784,12.17,2.23,17.483l-7.526,11.908l1.313,14.21c0,0-12.295,5.067-15.664-2.46l0.422-8.816
						c0,0-6.331,2.585-11.023,0.103C418.801,269.333,413.502,263.184,415.879,243.023z"/>
				</defs>
				<use xlink:href="#XMLID_52_"  style="overflow:visible;fill:#E89A49;"/>
				<clipPath id="XMLID_00000106848584022807910240000002948546927549726641_">
					<use xlink:href="#XMLID_52_"  style="overflow:visible;"/>
				</clipPath>
			</g>
			<path style="fill:#325290;" d="M347.848,302.96c-2.587-1.427-5.694-1.82-8.455-0.77c-2.098,0.798-3.95,2.289-5.177,4.375
				c-1.429,2.43-2.688,4.94-3.957,7.445c-1.224,2.526-2.444,5.053-3.588,7.616c-2.296,5.122-22.016,46.732-23.703,54.078
				c3.393,3.848,12.549,6.213,12.549,6.213c0.002-0.003,27.818-50.953,31.378-54.932c3.56-3.979,16.81-1.1,16.81-1.1l-10.613-19.733
				L347.848,302.96z"/>
			<path style="fill:#193441;" d="M377.813,306.993l-6.829-4.01c-0.576-0.339-0.939-0.948-0.962-1.616l-0.664-19.435
				c-0.052-1.538,1.612-2.528,2.939-1.749l6.829,4.01c0.576,0.338,0.94,0.948,0.962,1.616l0.664,19.435
				C380.803,306.781,379.139,307.772,377.813,306.993z"/>
			<path style="fill:#E89A49;" d="M422.101,313.816c-1.604,1.689-3.284,3.401-5.056,5.079c-1.994,1.898-4.139,3.715-6.202,5.199
				c-1.024,0.733-2.046,1.353-2.859,1.743c-0.401,0.195-0.733,0.315-0.906,0.381c-0.176,0.071-0.152,0.068,0.117,0.162
				c-0.169,0.092-1.307-0.274-2.37-0.825c-1.098-0.558-2.307-1.244-3.49-2.019c-2.389-1.542-4.806-3.281-7.082-5.076
				c-2.285-1.792-4.47-3.62-6.518-5.396c-2.05-1.776-3.923-3.541-5.63-5.196c-0.844-0.839-1.652-1.643-2.421-2.407
				c-0.773-0.762-1.487-1.505-2.039-2.303c-1.09-1.61-1.861-3.157-2.773-4.197c-0.872-1.073-1.737-1.768-2.4-2.181
				c-0.653-0.423-1.094-0.558-1.094-0.558l-0.189-0.059c-0.464-0.139-0.963-0.189-1.474-0.131c-2.023,0.229-3.477,2.055-3.247,4.078
				c0,0,0.056,0.493,0.346,1.238c0.28,0.755,0.806,1.769,1.72,2.855c0.875,1.12,2.286,2.184,3.731,3.544
				c0.715,0.687,1.356,1.519,2.019,2.409c0.677,0.88,1.389,1.805,2.132,2.77c1.5,1.936,3.124,4.033,4.843,6.252
				c1.732,2.226,3.604,4.555,5.648,6.927c2.058,2.363,4.24,4.802,6.81,7.159c1.301,1.166,2.668,2.351,4.292,3.46
				c0.819,0.555,1.691,1.103,2.694,1.628c0.512,0.265,1.022,0.509,1.656,0.767l0.569,0.21l0.497,0.172l0.285,0.097l0.143,0.049
				c-0.179-0.044,0.276,0.071,0.267,0.069l0.084,0.02l0.169,0.038c1.84,0.42,3.491,0.373,4.892,0.193
				c1.407-0.189,2.618-0.516,3.709-0.885c2.171-0.748,3.955-1.654,5.605-2.588c3.28-1.874,6.001-3.943,8.547-5.97
				c1.384-1.107,2.686-2.223,3.931-3.331C427.962,322.814,425.078,318.283,422.101,313.816z"/>
			<polygon style="fill:#D18536;" points="432.279,270.528 439.757,268.049 431.962,275.341 			"/>
			<path style="fill:#D3E3F8;" d="M422.078,235.337c0,0-4.283,2.141-6.424,9.903c0,0-4.818-12.312,9.101-15.792L422.078,235.337z"/>
			<g>
				<path style="fill:#FFFFFF;" d="M419.046,260.757c-0.654-0.008-1.097,0.723-0.732,1.265c1.07,1.586,2.866,2.641,4.925,2.666
					c2.022,0.025,3.815-0.949,4.928-2.461c0.414-0.563,0.051-1.357-0.647-1.366L419.046,260.757z"/>
			</g>
			<path style="fill:#D3E3F8;" d="M429.471,216.749c-5.283,1.001-14.622,5.515-11.218,17.478c0.729,2.561,3.196,4.542,5.858,4.591
				c2.725,0.051,5.851-1.576,7.926,0.192c1.663,1.418,1.34,4.007,1.091,6.178c-0.249,2.171,0.119,4.961,2.209,5.601
				c1.49,0.457,3.158-0.495,4.631,0.015c1.474,0.51,2.11,2.247,2.266,3.798c0.156,1.551,0.045,3.203,0.793,4.571
				c0.849,1.552,2.659,2.406,4.424,2.514c3.27,0.201,2.856,3.592,7.053,2.951c3.217-0.492,2.592-3.864,5.456-6.367
				c1.952-1.706,4.144-3.403,4.657-5.945c0.992-4.914-3.334-9.388-3.65-14.391c-0.201-3.177,0.961-5.151-0.127-8.487
				c-1.088-3.337-3.491-5.385-7.589-6.475C444.637,220.68,443.471,214.097,429.471,216.749z"/>
			<polygon style="fill:#D3E3F8;" points="446.841,266.593 448.221,257.817 452.221,260.775 			"/>
		</g>
	</g>
	<g>
		<path style="fill:#FFD05B;" d="M386.51,152.964c-16.14,0-28.16,15.081-24.115,31.92c2.402,10,11.026,17.244,21.226,18.553
			c8.785,1.128,15.487-1.903,20.83-7.328l6.445,9.183v-28.74C410.896,163.38,399.919,152.964,386.51,152.964z"/>
		<path style="fill:#FFFFFF;" d="M394.409,187.518v1.897h-6.451h-0.238h-6.451v-1.897c0-0.459,0.221-0.735,0.664-0.831
			c0.22-0.039,1.603-0.157,4.148-0.354V172.53c0-0.536,0.017-1.1,0.049-1.692l-3.416,2.858c-0.142,0.121-0.288,0.203-0.435,0.246
			c-0.148,0.044-0.293,0.066-0.435,0.066c-0.22,0-0.419-0.046-0.599-0.14c-0.181-0.093-0.315-0.199-0.403-0.32l-1.281-1.758
			l7.243-6.16h3.334v20.744c2.2,0.172,3.402,0.276,3.607,0.312C394.188,186.782,394.409,187.059,394.409,187.518z"/>
	</g>
</g>
</svg>
