<svg width="3500" height="2000" xmlns="http://www.w3.org/2000/svg" xml:space="preserve" version="1.1">

 <g>
  <title>Layer 1</title>
  <g stroke="null" id="svg_2">
   <g stroke="null" id="svg_3">
    <path stroke="null" id="svg_4" fill="#184655" d="m307.40804,1970.96463c-5.02292,0 -9.09603,4.37294 -9.09603,9.76982c0,5.39552 4.07177,9.76982 9.09603,9.76982l2884.81522,0c5.20861,0 9.43935,-4.30331 9.46339,-9.6292c0.00134,-0.06417 0.00134,-0.1297 0.00134,-0.19523c0.02405,-5.36002 -4.21872,-9.71658 -9.46339,-9.71658l-2884.81656,0l0,0.00137z"/>
   </g>
   <path stroke="null" id="svg_5" fill="#F47458" d="m1820.22336,943.64775l-15.73002,-23.25043l-27.65812,0.0628c-3.15001,0.00683 -4.9401,-3.67938 -3.03112,-6.24062l16.77468,-22.47496l-8.60442,-26.86428c-0.98054,-3.05955 1.89829,-5.94026 4.87063,-4.87399l26.09781,9.36024l22.34131,-16.66577c2.54352,-1.89908 6.11434,0.00819 6.03953,3.22748l-0.6439,28.25958l22.41211,16.56337c2.55287,1.88679 1.88092,5.94572 -1.13817,6.86864l-26.49724,8.10557l-8.4882,26.90388c-0.96584,3.06502 -4.95345,3.6671 -6.74487,1.01849z"/>
   <path stroke="null" id="svg_6" fill="#F7CC7F" d="m2550.13111,431.30679l14.5825,-34.50976l-19.55065,-31.84067c-2.22558,-3.62614 0.58244,-8.28851 4.75441,-7.88849l36.62056,3.50873l23.58902,-28.84255c2.68646,-3.28482 7.8924,-1.99465 8.81015,2.18306l8.05137,36.67916l34.1278,14.01579c3.88742,1.59599 4.29754,7.05568 0.69199,9.23737l-31.6444,19.1601l-2.49543,37.50378c-0.28588,4.27054 -5.23933,6.3553 -8.38267,3.52647l-27.60869,-24.83687l-35.67208,9.16365c-4.06242,1.0417 -7.53304,-3.12918 -5.87388,-7.05978z"/>
   <path stroke="null" id="svg_7" fill="#9BC1F9" d="m645.53471,1379.8002l-18.71038,-36.58496l-40.09653,-4.98867c-4.56738,-0.56795 -6.51377,-6.24062 -3.29429,-9.59917l28.26328,-29.49378l-7.74812,-40.51419c-0.88302,-4.61459 3.79524,-8.25984 7.91511,-6.16962l36.17972,18.35733l35.30739,-20.05162c4.02234,-2.28409 8.85958,1.13726 8.18763,5.78872l-5.9046,40.83639l29.56977,28.12306c3.36776,3.20291 1.68054,8.96159 -2.85612,9.74661l-39.82668,6.88093l-17.03251,37.43142c-1.94104,4.26508 -7.82293,4.40434 -9.95366,0.23756z"/>
   <polygon stroke="null" id="svg_8" fill="#466EB6" points="2783.642547607422,500.7549133300781 2784.112518310547,520.7479248046875 2752.717742919922,525.0717163085938 2749.874969482422,554.3906860351562 2726.899383544922,561.551513671875 2730.446014404297,573.4374389648438 2761.175018310547,563.8601684570312 2763.871307373047,536.07568359375 2796.529510498047,531.5771484375 2795.823699951172,501.4922180175781 "/>
   <path stroke="null" id="svg_9" fill="#F48C7F" d="m1045.25895,296.08566c1.7126,-13.11608 13.98269,-22.64562 26.80716,-20.8189c13.34413,1.90181 21.03882,12.91812 19.77374,26.80012c-1.52023,13.85469 -11.78115,23.19992 -25.85735,21.58754c-14.28994,-1.63559 -22.56974,-13.43009 -20.72355,-27.56876zm12.64547,-35.93919l6.28533,-105.33961c0.51966,-8.71584 8.07675,-15.2104 16.56762,-14.23696l10.25691,1.17549c8.47885,0.9707 14.43822,8.99162 13.07829,17.59961l-16.47277,104.20645l-29.71538,-3.40497z"/>
   <g stroke="null" id="svg_10">
    <path stroke="null" id="svg_11" fill="#184655" d="m979.89152,826.25832c0.69733,26.12977 7.29259,82.1984 65.2659,91.46308c35.98735,5.75049 82.07799,-27.28615 79.11099,-51.54278c-2.967,-24.25527 -9.55958,-86.07302 -47.13663,-100.22124c-31.39859,-11.82318 -98.7979,2.00284 -97.24026,60.30095z"/>
    <path stroke="null" id="svg_12" fill="#F7A491" d="m1463.61742,1670.80196c8.19698,35.1801 14.64929,85.94332 17.04854,88.77624c1.15153,1.3598 3.53608,10.22855 4.69429,11.67027c37.43812,13.91476 70.33825,-0.44508 96.41335,-16.24527c-20.44302,-3.70396 -47.96354,-7.55264 -51.80421,-10.32276c-14.22582,-10.26132 -10.826,-46.79713 -13.38688,-79.59212c-10.12332,1.83218 -34.69555,-4.7047 -52.96509,5.71363z"/>
    <path stroke="null" id="svg_13" fill="#466EB6" d="m1479.88847,1757.58355c0.23912,13.89701 8.99183,43.55736 11.69432,43.52186c3.23017,-0.04096 115.74624,-10.00601 126.34915,-27.64521c6.37617,-10.6081 -10.95023,-13.37139 -36.15834,-18.45836c-26.0751,15.80156 -98.75648,11.28254 -101.88512,2.58171z"/>
    <path stroke="null" id="svg_14" fill="#F7A491" d="m929.30164,1749.31005c-26.02968,20.85167 -52.35459,37.50105 -55.66758,39.10387c-1.59104,0.77001 -10.59088,0.7427 -12.26073,1.49769c-23.14818,33.13494 -18.4245,69.37449 -10.51473,99.28467c8.96778,-19.13689 19.52794,-45.86056 23.60906,-48.24294c6.49907,-3.79407 29.94248,-18.02284 72.03081,-35.51869c-14.25788,-15.80702 -12.27142,-35.34666 -17.19682,-56.12461z"/>
    <path stroke="null" id="svg_15" fill="#F7A491" d="m988.57744,1014.19909l-80.41615,149.50588c0,0 -53.76929,69.15058 -81.45012,104.64743c5.96071,9.97325 11.72504,20.18951 16.87487,30.68975c27.54457,-23.93853 86.13907,-74.72768 107.059,-102.79613c30.90565,-41.46714 86.83373,-139.9231 86.83373,-139.9231l-48.90133,-42.12383z"/>
    <path stroke="null" id="svg_16" fill="#3C8F7C" d="m1202.39218,1274.40734l-86.00949,129.66997c0,0 -4.93475,-8.6858 25.86537,2.82473c30.80145,11.51053 229.44859,49.43209 241.20169,63.76871c8.31988,10.148 69.93214,209.29349 81.79745,234.85941c17.86743,7.40519 43.85837,-0.81506 62.20272,-3.51282c1.16623,-95.93568 -48.53931,-270.58288 -61.79661,-291.05227c-29.64324,-45.76499 -170.77527,-95.20663 -234.30853,-122.93786c-10.305,-4.49854 -18.29892,-8.53699 -23.25906,-10.97945c-3.66967,-1.80624 -5.69353,-2.64042 -5.69353,-2.64042z"/>
    <path stroke="null" id="svg_17" fill="#466EB6" d="m872.25008,1788.75114c-13.16379,-3.48825 -39.99901,-3.38449 -40.68966,-0.71267c-0.82558,3.19199 -21.57718,116.64672 -7.78953,131.81343c8.29183,9.12132 15.54033,-7.19903 27.0877,-30.65699c-7.90843,-29.91019 12.35157,-99.69562 21.39149,-100.44378z"/>
    <path stroke="null" id="svg_18" fill="#50BFA5" d="m1179.82378,1365.68338c0.74542,-9.73706 21.12165,-66.58389 28.33942,-88.71344c0.22844,-0.70175 -5.10441,-13.49699 -10.86607,-31.9103l-8.25175,1.35025l-122.28673,5.66175c0,0 -49.24599,85.01084 -43.51372,124.0642c8.00327,54.52588 85.13449,248.32909 73.4041,257.46134c-21.16974,16.48009 -124.87567,77.89373 -178.16805,114.41042c3.4065,21.09332 12.94871,50.5243 26.02434,67.36618c43.36677,-15.40973 230.77111,-92.62082 250.04657,-151.85277c17.02716,-52.31825 -15.99319,-281.28382 -14.72811,-297.83763z"/>
    <path stroke="null" id="svg_19" fill="#F7CC7F" d="m1177.85335,887.90678c0,0 -33.68028,54.07535 -53.53818,56.02631l70.23672,66.41459c0,0 47.84598,-73.31463 52.83951,-85.8928c0.00134,0 -43.54578,-39.63905 -69.53805,-36.5481z"/>
    <path stroke="null" id="svg_20" fill="#FAE0B2" d="m1202.44428,1214.66888c-3.15001,29.77503 5.8338,62.34065 5.8338,62.34065c-28.24324,6.19966 -128.35564,19.24339 -152.84104,-11.2211c-0.87634,-1.09221 34.67017,-65.16674 29.7755,-91.33065c-7.22045,-38.5919 -38.57362,-104.03033 -41.17458,-107.53769c-4.36433,-5.88428 -20.39893,24.56382 -20.39893,24.56382c-18.78251,0.0983 -61.79795,-44.51304 -61.79795,-44.51304s44.48624,-79.20575 56.72961,-86.65326c12.23936,-7.44478 113.38307,-18.69728 113.45921,-18.70274c7.4422,-0.54884 27.77434,17.48493 33.36234,23.1808c63.93002,65.18859 46.71048,158.5999 37.05205,249.8732z"/>
    <path stroke="null" id="svg_21" fill="#F7A491" d="m1075.01174,908.38437c0,0 11.02371,37.22663 11.10119,52.36057c0.07748,15.13531 5.98342,35.7303 37.03335,32.61341c31.04859,-3.1169 5.57865,-35.05313 1.17157,-49.42662c-4.40841,-14.37349 -9.6945,-59.75348 -9.6945,-59.75348l-39.6116,24.20612z"/>
    <path stroke="null" id="svg_22" fill="#F47458" d="m1117.56896,906.91671c-1.73932,-12.38294 -2.94696,-22.73709 -2.94696,-22.73709l-39.61027,24.20475c0,0 2.25497,7.61134 4.7317,17.35113c18.59282,1.8199 31.09668,-6.46452 37.82553,-18.81879z"/>
    <path stroke="null" id="svg_23" fill="#F7A491" d="m1042.70741,796.01092c0,0 -16.33651,11.65662 -20.5205,33.62234c-4.18265,21.96572 8.58305,76.15984 54.69238,84.6941c46.10934,8.5329 61.10462,-37.02867 48.44446,-70.0776c-12.65883,-33.04893 -37.07075,-74.01365 -82.61635,-48.23885z"/>
    <path stroke="null" id="svg_24" fill="#F7A491" d="m1129.59057,830.47153c0.04676,9.23054 -4.17998,16.7354 -9.44202,16.7627c-5.26071,0.02731 -9.56359,-7.43249 -9.61034,-16.66304c-0.04676,-9.23054 4.18131,-16.7354 9.44068,-16.7627c5.26204,-0.02731 9.56492,7.43386 9.61168,16.66304z"/>
    <path stroke="null" id="svg_25" fill="#F7A491" d="m1042.2265,876.45359c6.06758,7.43113 7.00003,16.85417 2.08398,21.04553c-4.91471,4.18999 -13.81704,1.56186 -19.88328,-5.86927c-6.06758,-7.43249 -7.00003,-16.85417 -2.08398,-21.04417c4.91471,-4.19136 13.81704,-1.56459 19.88328,5.8679z"/>
    <path stroke="null" id="svg_26" fill="#184655" d="m995.46525,775.32854c1.81012,-25.31471 19.33691,-119.45644 -37.01465,-128.38116c-56.35155,-8.92473 -68.38251,53.98524 -99.62614,-30.69658c-28.94458,-78.44939 -114.97544,-48.07638 -118.5703,11.49825c-8.16492,-0.70857 -16.53155,0.50515 -24.5041,3.93878c-27.5753,11.87642 -39.97363,45.64621 -27.69152,75.42806c1.95173,4.73473 0.84294,9.42714 3.70708,13.34545c-6.60728,25.94819 -2.04791,55.6099 17.55217,85.74126c53.53417,82.29807 107.23133,-4.33061 143.43108,0.28397c36.20109,4.61322 12.60539,33.53769 43.96257,56.11368c31.35718,22.57463 56.60003,16.66304 107.64411,-44.91716l12.60005,-16.97295c0,0 -23.30047,-0.0669 -21.49035,-25.38161z"/>
   </g>
   <g stroke="null" id="svg_27">
    <path stroke="null" id="svg_28" fill="#F8A492" d="m2579.39897,1492.34977c28.24324,-11.52692 53.53417,-27.19877 56.5172,-28.80705c2.29905,-1.24102 11.88669,-8.45508 13.24528,-9.464c24.89819,15.13804 33.99822,28.00974 53.61833,48.24567c-14.51838,0.80824 -20.67012,-11.36445 -26.22873,-10.09749c-6.71548,1.52909 -27.84782,16.01181 -60.89222,42.13748c-5.71624,-18.88705 -22.36802,-28.41795 -36.25987,-42.01461z"/>
    <path stroke="null" id="svg_29" fill="#F8A492" d="m2179.64401,1788.15179c6.42693,30.37847 18.14396,57.40113 19.56534,60.52348c0.68397,1.49906 5.05632,2.6568 5.80308,4.19272c-18.74377,22.57463 -26.84858,60.13438 -49.63607,76.54075c1.63646,-14.76669 11.32962,-42.48836 11.03439,-48.30028c-0.36069,-7.02291 -10.82065,-30.72525 -30.53294,-68.37238c19.17126,-2.61584 28.33809,-12.8444 43.7662,-24.58429z"/>
    <path stroke="null" id="svg_30" fill="#3C8F7C" d="m2191.49463,1854.89269c2.55421,-6.56692 11.00233,-11.10778 17.00312,-7.22361c6.04487,3.91284 14.09089,8.19568 20.09435,12.44437c6.75289,4.78252 7.22846,10.15756 7.05881,11.37674c-0.4916,3.51965 -80.31328,98.91469 -90.53813,100.2977c-10.22618,1.38165 8.68324,-79.29176 19.89931,-87.5871c9.97637,-7.37925 14.98326,0.22936 26.48254,-29.30811z"/>
    <path stroke="null" id="svg_31" fill="#3C8F7C" d="m2646.79026,1463.60961c-5.86586,-3.74492 -8.72465,-13.05328 -3.91147,-18.3901c4.85059,-5.37641 10.41054,-12.70104 15.5764,-17.97642c5.81376,-5.9348 11.07313,-5.4515 12.21665,-5.0624c3.30097,1.12361 80.84897,98.45732 80.34802,108.9876c-0.50096,10.52891 -74.77872,-22.92277 -80.7568,-35.68662c-5.31681,-11.35216 2.90555,-15.02472 -23.4728,-31.87207z"/>
    <path stroke="null" id="svg_32" fill="#B75742" d="m2210.18897,1432.54987c0,0 157.43381,216.81745 184.82742,218.8162c25.6209,1.87041 224.17318,-111.27851 224.17318,-111.27851l-25.82663,-58.4278l-159.0008,58.4278l-110.71397,-214.14154l-113.45921,106.60385z"/>
    <path stroke="null" id="svg_33" fill="#F47458" d="m2300.81928,1249.33292c0,0 28.82034,7.01336 45.2891,51.89639s-11.06913,82.17383 -80.10489,147.21906c-67.21228,63.32773 -133.5883,122.81089 -133.5883,122.81089l54.492,229.29459l-45.28777,39.27316c0,0 -104.97235,-233.03405 -108.02217,-288.51698c-1.16489,-21.19025 160.1737,-266.91169 160.1737,-266.91169l107.04831,-35.06542z"/>
    <path stroke="null" id="svg_34" fill="#F7A491" d="m2179.01347,968.59111l-87.77285,50.17206l-69.53939,34.13158c0,0 -16.9764,-58.9862 -11.2842,-87.90111c0.81355,-4.12992 4.81853,-9.02302 6.25327,-11.2211c11.46856,-17.5764 -13.03955,-44.88576 -13.03955,-44.88576s-14.76418,-4.29102 -24.80067,20.61001c-10.03649,24.90104 8.49354,35.46408 8.49354,35.46408s-21.13901,75.3912 -12.28612,130.32393c4.63952,28.78384 75.05258,7.65094 131.14897,-17.14361c47.17404,-20.84893 81.89631,-44.11848 81.89631,-44.11848l-9.06931,-65.43161z"/>
    <path stroke="null" id="svg_35" fill="#3C8F7C" d="m2198.75248,959.98859c-1.85821,-1.77348 -4.90803,-2.8179 -9.88286,-0.92838c-10.87409,4.12856 -116.23251,63.28541 -116.23251,63.28541s9.45271,51.74348 34.15853,67.6406l53.07997,-16.55928l40.59882,-104.88498c1.14084,-2.94624 0.5437,-6.38807 -1.72195,-8.55337z"/>
    <path stroke="null" id="svg_36" fill="#FE875E" d="m2441.32211,738.79683c-39.995,-25.0362 -89.8595,-20.20453 -119.54015,13.43692c-24.43196,-9.38482 -52.43875,-8.65713 -75.10468,2.16121c-44.71467,21.34453 -84.29154,77.0732 -50.58989,117.53141c-7.16568,53.70946 24.277,84.94531 63.45043,88.51684c21.29531,43.66794 96.7914,48.15147 140.22229,12.18361c35.88582,14.1728 78.50717,8.06461 105.04048,-18.39283c6.36815,-6.34984 15.69796,-16.52242 17.82869,-17.45489c-2.56222,1.31884 99.98282,-12.57271 95.30189,-104.95598c-4.77578,-94.27143 -115.15846,-130.455 -176.60907,-93.02631z"/>
    <path stroke="null" id="svg_37" fill="#50BFA5" d="m2259.59794,952.83734l65.09624,3.6671l-10.80596,92.96077c0,0 -31.41596,89.45887 -18.60484,132.47422c12.80978,43.01535 25.16269,74.34131 25.16269,74.34131s-37.05739,43.48363 -140.90894,34.59987c0,0 1.37195,-77.14693 0,-100.52433c-1.37195,-23.37877 -27.9066,-120.6292 -24.24628,-142.60447c3.66032,-21.97664 26.53464,-82.75816 32.48199,-87.90111c5.94735,-5.14431 29.50832,-7.7151 29.50832,-7.7151l42.31676,0.70175z"/>
    <path stroke="null" id="svg_38" fill="#F7A491" d="m2262.65845,901.79015c0,0 -1.1168,7.51714 -2.1815,17.16818c-1.32787,12.04572 -2.57291,27.41722 -1.45611,35.6402c2.01318,14.81447 -11.63153,53.8569 -42.42764,55.27951c-30.79611,1.42397 -0.64924,-43.12867 1.67787,-57.82163c2.32711,-14.69296 2.30974,-68.23449 2.30974,-68.23449l42.07764,17.96823z"/>
    <path stroke="null" id="svg_39" fill="#F47458" d="m2220.83463,906.48529c-0.00534,-12.36109 -0.25248,-22.66064 -0.25248,-22.66064l42.07764,17.96686c0,0 -1.1542,7.76971 -2.2336,17.65285c-17.93556,4.45622 -31.30642,-1.84584 -39.59156,-12.95908z"/>
    <path stroke="null" id="svg_40" fill="#F7A491" d="m2265.83651,791.37721c0,0 17.80732,6.44677 27.04629,25.44714c9.2403,19.00037 10.9342,71.82377 -29.10889,91.49858c-40.04176,19.67617 -64.98269,-18.11022 -61.55882,-51.57691c3.42387,-33.46806 15.63517,-77.19881 63.62143,-65.3688z"/>
    <path stroke="null" id="svg_41" fill="#F7A491" d="m2194.9185,845.25186c2.23226,8.44825 7.9485,14.22058 12.76303,12.89082c4.81586,-1.32977 6.90919,-9.25648 4.67826,-17.70473c-2.23493,-8.44825 -7.9485,-14.22195 -12.76436,-12.89082c-4.81586,1.3284 -6.90919,9.25648 -4.67693,17.70473z"/>
    <path stroke="null" id="svg_42" fill="#F7A491" d="m2288.05358,863.33614c-3.71242,8.35541 -2.24295,17.20778 3.28226,19.77174c5.52788,2.56396 13.01684,-2.12981 16.72793,-10.48522c3.71242,-8.35541 2.24295,-17.20914 -3.2836,-19.77174c-5.52521,-2.56533 -13.01417,2.12845 -16.72659,10.48522z"/>
   </g>
   <g stroke="null" id="svg_43">
    <path stroke="null" id="svg_44" fill="#355389" d="m1420.21325,1269.82552c-6.12102,-18.2208 -255.31395,-760.09528 -266.20006,-792.50117c-16.66648,-49.6164 -70.00027,-76.28408 -119.12736,-59.56234l-371.68673,126.50802c-49.12576,16.72038 -75.43998,70.4981 -58.77484,120.11313l266.20006,792.50253c16.66648,49.61503 70.00027,76.28272 119.12736,59.56234l371.68673,-126.50802c49.1271,-16.72311 75.44132,-70.49946 58.77484,-120.11449zm-90.2763,19.99974l-375.50201,127.80639c-28.33408,9.64285 -59.09545,-5.73684 -68.7098,-34.35412l-246.20724,-732.98661c-9.61168,-28.61728 5.56395,-59.63333 33.89937,-69.27755l375.50201,-127.80639c28.33408,-9.64422 59.09545,5.73684 68.70847,34.35412c59.78744,177.99346 240.83031,716.97344 246.20857,732.98661c9.61168,28.61728 -5.56395,59.6347 -33.89937,69.27755z"/>
    <path stroke="null" id="svg_45" fill="#184655" d="m1233.66654,1375.7754c5.7296,17.05487 -20.56191,41.41116 -58.72274,54.40028c-38.16083,12.98775 -73.74074,9.69064 -79.46901,-7.3656c-5.72827,-17.05623 20.56325,-41.41116 58.72274,-54.40028c38.16083,-12.98638 73.74074,-9.69064 79.46901,7.3656z"/>
    <path stroke="null" id="svg_46" fill="#355389" d="m1223.50715,1377.14749c5.38227,16.02136 -16.38995,37.90653 -48.62881,48.87915c-32.23886,10.97262 -62.73574,6.87956 -68.11801,-9.1418c-5.38094,-16.02136 16.39128,-37.90517 48.62881,-48.87915c32.23886,-10.97262 62.73707,-6.87956 68.11801,9.1418z"/>
   </g>
   <g stroke="null" id="svg_47">
    <path stroke="null" id="svg_48" fill="#86B1F2" d="m2591.96963,527.92373l-417.67183,-96.5009c-55.20536,-12.75429 -109.63057,20.63595 -121.56268,74.57887l-190.59443,861.60943c-11.93344,53.94428 23.14551,108.0128 78.34954,120.76845l417.67316,96.5009c55.20403,12.75565 109.62924,-20.63459 121.56268,-74.5775l190.59577,-861.61079c11.93211,-53.94292 -23.14684,-108.0128 -78.35221,-120.76845zm-137.62801,906.29995c-6.88247,31.11298 -38.27305,50.37139 -70.11248,43.01398l-421.96135,-97.49072c-31.84077,-7.3574 -52.07272,-38.54138 -45.19025,-69.65573l176.28178,-796.90551c6.88113,-31.11298 38.27305,-50.37139 70.11248,-43.01398l421.96135,97.49208c31.83943,7.3574 52.07272,38.54138 45.18891,69.65436l-176.28044,796.90551z"/>
    <path stroke="null" id="svg_49" fill="#466EB6" d="m2246.55304,1499.9693c-4.09982,18.54301 -42.18852,25.54271 -85.0717,15.63499s-74.32051,-32.96974 -70.21802,-51.51411c4.1025,-18.54301 42.18852,-25.54271 85.0717,-15.63499s74.32185,32.97111 70.21802,51.51411z"/>
    <path stroke="null" id="svg_50" fill="#86B1F2" d="m2236.29613,1495.45847c-3.85402,17.42076 -36.3467,24.75632 -72.57318,16.38589c-36.22781,-8.37043 -62.4739,-29.2767 -58.61988,-46.6961c3.85269,-17.41939 36.34537,-24.75495 72.57184,-16.38452c36.22781,8.37043 62.4739,29.2767 58.62122,46.69473z"/>
   </g>
   <path stroke="null" id="svg_51" fill="#F7A491" d="m2322.07051,980.62181c0,0 137.2593,-34.06878 167.8577,-39.80152c30.59706,-5.73274 136.78106,-44.8762 140.85951,-46.53227c4.07578,-1.65606 19.20599,-57.47758 25.19342,-53.57976c5.98743,3.89646 -9.18954,28.14354 -1.69123,31.28364c7.49831,3.14147 71.44169,-26.12158 71.8852,-20.82982c0.82958,9.90089 -38.46274,19.42906 -37.22171,23.97675c1.24237,4.54769 40.11924,-13.78779 44.87899,-6.97923c4.75975,6.80857 -38.38927,13.88063 -39.17343,17.71839c-0.78416,3.83912 41.44176,-1.15365 39.14538,7.03111c-1.24771,4.44393 -37.65453,3.51692 -36.1156,8.68307c1.5376,5.16479 29.26118,10.25176 27.33884,15.23361c-1.92234,4.98185 -22.66325,-7.42567 -36.9906,-3.70532c-14.32734,3.72034 -26.55335,-1.07719 -47.65362,11.58153c-21.0976,12.65872 -90.31905,66.04324 -139.54767,77.0732c-49.22729,11.02996 -157.93877,35.6989 -157.93877,35.6989l-20.82642,-56.85229z"/>
   <path stroke="null" id="svg_52" fill="#50BFA5" d="m2288.82038,959.02881c4.64487,-2.2677 18.90007,-2.63769 35.85777,-2.50935c6.2359,0.04778 15.02601,0.0983 21.69207,-0.09693c24.78998,-0.72495 48.34293,0.46692 48.34293,0.46692s12.47047,61.56518 2.09199,77.29165c0,0 -96.99713,14.15914 -94.65933,21.05236l-13.32543,-96.20464z"/>
   <path stroke="null" id="svg_53" fill="#F7A491" d="m1952.46776,959.38377l8.35862,-10.79923c0,0 5.19124,-8.22981 13.00616,-9.03531c7.81625,-0.80551 7.57846,-10.82381 -0.7,-9.39574c-8.2798,1.42807 -13.48173,3.44319 -13.48173,3.44319s16.44873,-8.63939 16.73995,-9.7589c1.63646,-6.2925 -7.44488,-8.73768 -19.60542,0.48603c-12.16054,9.22645 -4.31757,35.05996 -4.31757,35.05996z"/>
   <path stroke="null" id="svg_54" fill="#F7A491" d="m831.68332,1283.52866c-5.30613,2.93668 -9.01187,5.63581 -10.67638,6.92188c0.08015,-0.17612 0.16298,-0.35497 0.25115,-0.53518c1.75001,-1.87587 7.75747,-8.44142 7.80957,-8.48102c7.89774,-6.1587 3.74849,-12.74473 -3.63494,-8.65986c-7.38343,4.08487 -11.6676,7.70964 -11.6676,7.70964s12.81112,-12.76794 12.75501,-14.76259c-0.18435,-6.50958 -9.80805,-5.81193 -18.39912,6.93417c-7.51969,11.1583 3.57349,30.67337 6.79029,35.29069c3.1794,6.70208 8.99717,9.81761 8.99717,9.81761l1.96108,-12.73108c0,0 2.30974,-9.5036 9.45137,-12.8444c7.13896,-3.34353 3.74582,-12.74473 -3.63761,-8.65986z"/>
   <path stroke="null" id="svg_55" fill="#F7A491" d="m1982.78562,920.26898c0,0 19.49588,-16.01317 22.59913,-9.19914c3.10192,6.81403 1.75134,21.54385 -1.16222,20.50352c-2.9149,-1.04033 -2.51814,-11.54057 -10.89813,-8.80185c-2.33512,0.76455 -13.94127,4.50673 -10.53878,-2.50253z"/>
   <g stroke="null" id="svg_56">
    <path stroke="null" id="svg_57" fill="#96D9C9" d="m2324.47376,373.90566l-700.49962,-152.65964c-39.36446,-8.57795 -64.47105,-48.14464 -56.07636,-88.37622l13.43898,-64.41039c8.39335,-40.23021 47.10991,-65.88897 86.47438,-57.31102l700.50096,152.65827c39.36446,8.57931 64.47105,48.14601 56.0777,88.37622l-13.44032,64.41039c-8.39602,40.23294 -47.11125,65.8917 -86.47571,57.31238z"/>
    <polygon stroke="null" id="svg_58" fill="#96D9C9" points="2199.536590576172,320.8597106933594 2264.043670654297,410.9193115234375 2284.724578857422,344.28216552734375 "/>
    <g stroke="null" id="svg_59">
     <path stroke="null" id="svg_60" fill="#FFFFFF" d="m1794.29521,118.55365c-3.37177,16.16335 -20.52851,26.12295 -38.32247,22.24423c-17.79129,-3.87735 -29.48027,-20.12261 -26.1085,-36.28597c3.37177,-16.16199 20.52851,-26.12295 38.32247,-22.24423c17.79129,3.87598 29.48027,20.12261 26.1085,36.28597z"/>
     <path stroke="null" id="svg_61" fill="#FFFFFF" d="m1762.17257,140.23676l-11.6342,-2.53529c-22.36268,-4.87399 -44.35799,9.70293 -49.1271,32.5588l-4.53265,21.71997l92.61944,20.18405l4.53265,-21.71997c4.76777,-22.85451 -9.49546,-45.33357 -31.85814,-50.20755z"/>
    </g>
    <path stroke="null" id="svg_62" fill="#FFFFFF" d="m2071.62986,199.54926c-6.53648,31.31641 -56.10174,47.0538 -110.71397,35.1528c-54.61223,-11.90236 -93.58795,-46.93638 -87.05281,-78.25143c6.5338,-31.31641 56.10174,-47.0538 110.71397,-35.1528c54.6109,11.901 93.58662,46.93502 87.05281,78.25143z"/>
    <polygon stroke="null" id="svg_63" fill="#FFFFFF" points="1981.4191589355469,223.87142944335938 1949.8149108886719,254.2731170654297 2024.6938171386719,236.17111206054688 2021.8988952636719,186.799072265625 "/>
    <path stroke="null" id="svg_64" fill="#FFFFFF" d="m2211.13879,219.40019l11.32428,-5.74776c3.49066,-1.77211 5.27006,-5.81466 4.25746,-9.66197c-1.98512,-7.53216 -6.21052,-19.94513 -14.19776,-29.66444c-2.4086,-2.93122 -6.47102,-3.79816 -9.83611,-2.11752l-19.80714,9.88587c-2.4981,1.24785 -4.20402,3.70532 -4.53265,6.52732c-1.38932,11.92421 -2.88951,44.82978 17.42526,72.60879c23.15352,31.65636 46.95094,47.67772 63.6428,55.42286c2.71318,1.25877 5.87789,0.91746 8.26912,-0.89834l18.24415,-13.86425c3.19944,-2.4288 4.21471,-6.85772 2.41394,-10.49068c-3.64295,-7.34102 -11.43649,-19.27479 -26.26212,-27.63293c-3.03112,-1.70794 -6.78629,-1.27379 -9.37389,1.07446l-6.82503,6.19693c-2.78665,2.5312 -6.89316,2.80971 -9.99107,0.68809c-6.66873,-4.56544 -18.0077,-15.62271 -28.6587,-41.62824c-1.66585,-4.05893 0.0521,-8.74042 3.90746,-10.6982z"/>
   </g>
   <g stroke="null" id="svg_65">
    <path stroke="null" id="svg_66" fill="#96D9C9" d="m1522.66478,949.24943l-105.62159,-65.5968c-10.7218,-6.65975 -14.13231,-20.94177 -7.61587,-31.89938l64.18517,-107.94454c6.51644,-10.95897 20.49111,-14.44448 31.21291,-7.78473l105.62159,65.5968c10.72313,6.65975 14.13364,20.94177 7.6172,31.90074l-64.18517,107.94454c-6.51777,10.9576 -20.49244,14.44175 -31.21424,7.78337z"/>
    <g stroke="null" id="svg_67">
     <path stroke="null" id="svg_68" fill="#FFFFFF" d="m1578.30831,860.98789c3.91147,-4.08077 2.62367,-11.89554 -3.15268,-17.1163c-25.29361,-22.86952 -54.27559,-41.10398 -85.66617,-53.8924c-7.16701,-2.92712 -14.55979,-0.47784 -16.33918,5.06376l0,0c-14.63326,44.21405 -9.5863,27.61518 -15.91304,53.3067c-1.42672,6.00579 1.8168,12.09623 7.37541,14.36257l0,0c5.89926,2.38648 12.78841,-0.14199 15.55769,-6.01945c1.49085,-3.24387 2.98035,-6.4891 4.4712,-9.73296c1.68455,-3.7299 6.43628,-5.1566 10.52676,-3.02269c10.76054,5.60577 21.10428,12.00886 30.95107,19.15874c3.74448,2.71824 4.72235,7.65367 2.28703,10.86886c-2.10802,2.82063 -4.21471,5.64263 -6.32273,8.46327c-3.78856,5.17708 -2.72654,12.49216 2.13474,16.6644l0,0c4.5941,3.9265 11.37905,4.07395 15.8596,0.0983c4.63551,-4.18453 30.15355,-29.61939 38.2303,-38.2028z"/>
     <g stroke="null" id="svg_69">
      <path stroke="null" id="svg_70" fill="#96D9C9" d="m1496.5309,807.18696c1.37195,0.85329 2.42997,2.03288 3.13398,3.38449l3.54543,-5.96347l-7.51568,-4.66783l-3.54543,5.9621c1.49752,0.01775 3.00974,0.43279 4.3817,1.28471z"/>
      <path stroke="null" id="svg_71" fill="#96D9C9" d="m1484.66559,810.14549c0.83493,-1.40213 1.98913,-2.48205 3.31165,-3.20291l-5.8338,-3.62204l-4.56738,7.67961l5.8338,3.62341c0.01737,-1.52909 0.42214,-3.07457 1.25573,-4.47806z"/>
      <path stroke="null" id="svg_72" fill="#96D9C9" d="m1487.56178,822.27175c-1.37195,-0.85192 -2.42864,-2.03288 -3.13398,-3.38312l-3.54543,5.96347l7.51568,4.66647l3.5441,-5.9621c-1.49619,-0.01638 -3.00841,-0.43279 -4.38036,-1.28471z"/>
      <path stroke="null" id="svg_73" fill="#96D9C9" d="m1500.68283,814.83517c-0.01603,1.53046 -0.42214,3.07594 -1.25707,4.47806c-0.83359,1.40213 -1.98913,2.48205 -3.31032,3.20291l5.8338,3.62341l4.56605,-7.68097l-5.83247,-3.62341z"/>
     </g>
     <path stroke="null" id="svg_74" fill="#96D9C9" d="m1496.54961,817.5261c-1.51222,2.54075 -4.75307,3.35036 -7.23915,1.80488c-2.48608,-1.54411 -3.27692,-4.85624 -1.76604,-7.397c1.51088,-2.54075 4.75174,-3.35036 7.23915,-1.80488c2.48608,1.54411 3.27692,4.85488 1.76604,7.397z"/>
     <path stroke="null" id="svg_75" fill="#96D9C9" d="m1563.19013,859.74004c-3.23284,5.43648 -10.16473,7.1649 -15.48556,3.86096c-5.31949,-3.30394 -7.01071,-10.38829 -3.77788,-15.82477c3.2315,-5.43648 10.16473,-7.16627 15.48422,-3.86233c5.31949,3.30394 7.01071,10.38965 3.77921,15.82613z"/>
    </g>
   </g>
   <path stroke="null" id="svg_76" fill="#F48C7F" d="m1622.16402,449.38424c0,0 3.8233,-22.37939 26.5627,-33.15951c20.27336,-9.61282 42.13241,1.13863 51.31794,21.37456c10.63229,23.42246 4.16395,60.16578 -34.34689,107.69333c-60.3779,-0.6444 -92.0036,-19.32803 -102.63589,-42.75049c-9.18553,-20.23593 -3.10058,-44.23453 17.17278,-53.84735c22.74074,-10.77875 41.92936,0.68946 41.92936,0.68946z"/>
   <g stroke="null" id="svg_77">
    <path stroke="null" id="svg_78" fill="#FAE0B2" d="m889.674,348.94865l-134.20013,65.35105c-15.83155,7.71101 -34.77971,0.84373 -42.32344,-15.33464l-36.00739,-77.23021c-7.54373,-16.17973 -0.82558,-35.54463 15.00597,-43.2529l134.20013,-65.35242c15.83155,-7.70828 34.77838,-0.84237 42.32211,15.336l36.00873,77.23021c7.54373,16.17837 0.82424,35.54326 -15.00597,43.2529z"/>
    <polygon stroke="null" id="svg_79" fill="#FAE0B2" points="700.7013244628906,356.8276062011719 671.9612121582031,444.3491516113281 735.8002624511719,396.1048278808594 "/>
    <g stroke="null" id="svg_80">
     <path stroke="null" id="svg_81" fill="#FFFFFF" d="m748.07442,322.98817l16.9764,-8.8155c0,0 13.75158,-27.18376 11.64623,-33.3329s-11.49794,-16.71219 -8.88629,-19.92056c2.61299,-3.20837 9.12141,-7.94993 17.26228,-2.46567c5.90995,3.98111 12.91131,25.7475 15.57239,26.11475c1.66585,0.23073 11.56207,-4.55588 18.73709,-8.1711c4.71834,-2.37692 10.33172,-1.87587 14.57983,1.29427l0.01336,0.00956c2.87081,2.14346 3.88341,6.04812 2.42596,9.36298l-2.26833,5.15933l4.94677,2.5899c3.68169,1.92775 5.14983,6.53278 3.28761,10.30774l-1.89829,3.84868l3.20746,1.37892c4.13055,1.77484 5.83781,6.82359 3.65898,10.82654l-1.76871,3.25069l0.76279,0.55839c3.17272,2.32095 4.08246,6.73484 2.09734,10.16712l-1.82749,3.15785l-45.21964,23.47024c-4.23742,2.19944 -8.86893,3.48961 -13.61131,3.79407l-17.23957,5.56754c-1.85287,0.59799 -3.85402,-0.27988 -4.70765,-2.06291l-19.49721,-40.75447c-0.93913,-1.96734 -0.16164,-4.3429 1.75001,-5.33545z"/>
    </g>
   </g>
   <g stroke="null" id="svg_82">
    <path stroke="null" id="svg_83" fill="#FAE0B2" d="m1858.34011,537.51334c101.43627,-23.54396 195.13777,8.99572 209.29011,72.67706c7.07617,31.84067 -7.07617,65.4398 -35.67743,94.02022l62.03306,84.3364l-102.8523,-52.88074c-23.44608,14.08952 -51.11623,25.39663 -81.5463,32.4605c-101.43627,23.5426 -195.13777,-8.99572 -209.29011,-72.67706c-14.15234,-63.6827 56.6067,-134.39242 158.04297,-157.93638z"/>
    <g stroke="null" id="svg_84">
     <path stroke="null" id="svg_85" fill="#F7CC7F" d="m1956.0319,648.07919c-1.46012,37.02184 -32.00508,65.81934 -68.22354,64.32028c-36.21979,-1.49769 -64.39757,-32.72399 -62.93745,-69.74447c1.46012,-37.02048 32.00375,-65.81797 68.22354,-64.32028c36.21979,1.49769 64.39757,32.72399 62.93745,69.74447z"/>
     <path stroke="null" id="svg_86" fill="#EFEFEF" d="m1854.96968,654.53688c-0.78016,19.79359 14.2846,36.48802 33.64956,37.28943c19.36496,0.80141 35.69613,-14.59603 36.47628,-34.38962l-70.12584,-2.89982z"/>
    </g>
   </g>
   <polygon stroke="null" id="svg_87" fill="#F48C7F" points="582.2993469238281,834.1194458007812 548.8327331542969,840.9430541992188 552.9873962402344,873.168701171875 520.3089904785156,881.3781127929688 520.5615539550781,912.6753540039062 497.0900573730469,922.9052734375 502.1571350097656,935.0493774414062 533.5503234863281,921.3680419921875 533.3098449707031,891.7077026367188 567.3053894042969,883.1679077148438 563.2189636230469,851.473388671875 593.5475158691406,845.2901000976562 "/>
   <polygon stroke="null" id="svg_88" fill="#F7CC7F" points="2811.670379638672,1099.1881103515625 2802.329803466797,1065.6424560546875 2771.233123779297,1072.4576416015625 2760.605926513672,1039.8277587890625 2730.102752685547,1042.5966796875 2718.241180419922,1019.5045166015625 2706.804656982422,1025.64013671875 2722.664520263672,1056.5223388671875 2751.572723388672,1053.8995361328125 2762.630096435547,1087.846923828125 2793.215057373047,1081.1407470703125 2801.676483154297,1111.541015625 "/>
   <polygon stroke="null" id="svg_89" fill="#50BFA5" points="587.8405456542969,476.2757873535156 569.1329650878906,482.14373779296875 556.5702819824219,452.4246826171875 528.1827697753906,457.5553283691406 515.2232971191406,436.8852233886719 504.9850769042969,443.5900573730469 522.3182678222656,471.23529052734375 549.2202453613281,466.3735656738281 562.2891540527344,497.28997802734375 590.4388122558594,488.4608459472656 "/>
   <g stroke="null" id="svg_90">
    <path stroke="null" id="svg_91" fill="#F7A491" d="m1281.32283,596.46404c-6.5298,-5.50338 -21.77756,-10.02103 -29.36672,-10.71868c-7.58915,-0.69765 -40.72974,-0.67581 -45.02326,7.46799c-4.29353,8.1438 30.49954,31.21811 32.35375,40.80635c1.85421,9.58824 -20.14912,158.47566 -26.50125,188.0418c-3.13265,14.58101 -15.16094,42.04601 -26.54934,66.14427c16.37793,2.67455 36.39212,16.36678 48.96145,26.13523c16.11075,-36.01564 32.59154,-76.50252 34.64345,-95.53429c4.14124,-38.41578 18.01305,-216.84066 11.48191,-222.34267z"/>
    <g stroke="null" id="svg_92">
     <g stroke="null" id="svg_93">
      <path stroke="null" id="svg_94" fill="#466EB6" d="m1377.42625,339.61844c-11.29355,-0.96934 -70.35828,45.06461 -70.35828,45.06461l-2.63837,3.60976c0,0 79.74286,13.77004 83.48601,11.21154c10.10328,-6.9096 -1.21165,-59.08859 -10.48935,-59.88591zm-70.16592,46.46946c19.24874,-14.30659 58.90042,-31.83111 67.44072,-35.51732c4.39372,8.27623 8.40404,30.07948 7.22846,39.06155c-9.40328,-0.72359 -51.34065,0.24984 -74.66918,-3.54422z"/>
     </g>
     <g stroke="null" id="svg_95">
      <path stroke="null" id="svg_96" fill="#466EB6" d="m1291.16161,301.4566c-10.2195,-27.94557 -20.19989,-26.64038 -27.27606,-25.69835c-7.07884,0.94067 -38.89156,23.96583 -35.91922,41.6692c2.97501,17.702 66.62716,69.39496 66.62716,69.39496l4.21337,-4.98594c0,-0.00137 2.57291,-52.43566 -7.64526,-80.37987zm-53.51013,14.2356c-1.48016,-8.83052 20.58328,-27.64658 27.84514,-30.01395c1.68054,-0.22117 3.13398,-0.38364 4.25345,-0.05734c1.34523,0.3932 6.19983,2.94897 12.19795,19.35261c6.55785,17.93273 13.41894,59.41899 13.32276,75.98236c-25.38178,-21.68038 -55.96147,-57.65916 -57.6193,-65.26368z"/>
     </g>
     <path stroke="null" id="svg_97" fill="#466EB6" d="m1295.12116,397.75408l3.46662,1.01166c3.43589,1.0021 7.01606,-1.03077 7.99793,-4.54223l2.91222,-10.42242c0.98054,-3.51146 -1.00859,-7.17036 -4.44448,-8.17247l-3.46795,-1.01166c-3.43589,-1.0021 -7.01606,1.03077 -7.99793,4.54223l-2.91222,10.42242c-0.9792,3.51009 1.00993,7.169 4.44582,8.17247z"/>
     <path stroke="null" id="svg_98" fill="#F47458" d="m1359.83668,625.83222l-219.64187,-64.09911c-11.87066,-3.46367 -19.07374,-15.74968 -16.46476,-28.08073l38.86084,-183.66477l286.03125,83.47356l-64.46704,184.29142c-2.69581,7.70555 -13.40692,11.26479 -24.31841,8.07963z"/>
     <path stroke="null" id="svg_99" fill="#FAE0B2" d="m1449.43969,476.24989l-310.68096,-90.01317l2.39925,-21.36364c1.43875,-12.81573 13.80368,-21.23667 25.93082,-17.66105l280.76252,82.78956c9.98172,2.94351 16.04128,11.51326 13.1157,18.5471l-11.52733,27.70119z"/>
     <rect stroke="null" id="svg_100" fill="#466EB6" height="4.601" width="32.946" transform="matrix(0.3667 -1.31284 1.28459 0.374765 135.868 2119.42)" y="489.35193" x="1426.9568"/>
     <rect stroke="null" id="svg_101" fill="#466EB6" height="5.752" width="123.845" transform="matrix(0.3667 -1.31284 1.28459 0.374765 21.4009 2173.74)" y="565.44893" x="1365.0578"/>
    </g>
    <path stroke="null" id="svg_102" fill="#F7A491" d="m1224.71479,596.21284l0.79485,-9.55002c-7.54907,-2.18169 -16.24567,-5.39825 -20.70886,-7.31781l-1.21298,-7.29187c-3.9462,-9.99373 -8.32789,-2.86432 -9.60767,-0.58433c0,0 -0.32195,12.82119 1.08607,14.31888c0,0 14.80826,15.98177 21.12699,22.02716c3.12997,2.99266 13.12104,11.28254 13.12104,11.28254l7.9445,-11.25523l-12.54394,-11.62931z"/>
   </g>
  </g>
 </g>
</svg>