<?xml version="1.0" encoding="utf-8"?>
<!-- Generator: Adobe Illustrator 27.5.0, SVG Export Plug-In . SVG Version: 6.00 Build 0)  -->
<svg version="1.1" xmlns="http://www.w3.org/2000/svg" xmlns:xlink="http://www.w3.org/1999/xlink" x="0px" y="0px"
	 viewBox="0 0 500 500" style="enable-background:new 0 0 500 500;" xml:space="preserve">
<g id="BACKGROUND">
	<rect style="fill:#D5E6FD;" width="500" height="500"/>
	<path style="fill:#AECDF3;" d="M132.367,151.175c3.885-9.905,10.49-18.727,18.899-25.245c10.873-8.428,25.497-12.905,38.708-9.068
		c9.389,2.727,17.217,9.271,26.356,12.746c20.464,7.781,43.038-0.857,63.777-7.87c32.498-10.989,67.854-18.067,100.989-9.184
		c28.585,7.663,54.138,28.017,65.362,55.401c11.223,27.383,6.594,61.324-13.642,82.919c-12.049,12.858-29.386,21.982-35.321,38.573
		c-2.386,6.671-2.617,13.908-2.412,20.991c0.464,16.039,2.815,33.128-4.751,47.278c-6.239,11.67-18.516,19.269-31.395,22.311
		c-12.878,3.043-26.379,2.011-39.433-0.158c-46.687-7.756-90.307-29.835-127.263-59.4c-19.659-15.727-37.7-33.846-51.721-54.838
		c-6.93-10.376-13.238-21.612-17.455-33.391c-3.775-10.545,2.198-24.234,2.91-35.434
		C126.948,181.501,126.677,165.683,132.367,151.175z"/>
</g>
<g id="OBJECTS">
	<g>
		<g>
			<g>
				
					<rect x="222.921" y="162.968" transform="matrix(0.9815 0.1917 -0.1917 0.9815 45.2529 -39.3485)" style="fill:#F8FAFB;" width="6.13" height="102.467"/>
				<path style="fill:#A7A9AC;" d="M231.98,167.525l-9.8,50.175c1.921-0.028,3.976,0.215,6.079,0.854l9.538-48.835L231.98,167.525z"
					/>
				<path style="fill:#F8FAFB;" d="M270.126,215.237L184.7,198.552c-4.164-0.813-6.905-4.885-6.092-9.049l10.194-52.19
					c0.813-4.164,4.885-6.905,9.049-6.092l85.426,16.685c4.164,0.813,6.905,4.885,6.092,9.049l-10.194,52.19
					C278.362,213.309,274.29,216.051,270.126,215.237z"/>
				<g>
					<path style="fill:#2456A2;" d="M236.137,164.277c0.091-0.096,0.181-0.193,0.269-0.293c1.089-1.237,1.864-2.749,2.239-4.354
						c0.288-1.233,0.56-3.068,2.003-3.472c1.134-0.318,2.315,0.626,2.678,1.747c0.363,1.121,0.126,2.339-0.14,3.486
						c-0.465,2.004-1.013,3.99-1.641,5.949c1.942,0.62,3.884,1.24,5.826,1.86c1.129,0.361,2.297,0.743,3.172,1.543
						c0.875,0.8,1.373,2.143,0.842,3.203c-0.739,1.476-2.828,1.53-4.428,1.126c1.8,0.57,3.096,2.564,2.677,4.405
						c-0.419,1.84-2.674,3.083-4.381,2.279c1.22,0.3,1.9,1.773,1.593,2.991c-0.307,1.218-1.379,2.131-2.559,2.559
						c-1.181,0.429-2.467,0.447-3.722,0.413c-4.808-0.129-9.597-0.952-14.172-2.435c-0.681-0.221-1.382-0.47-1.894-0.97
						c-0.549-0.536-0.818-1.3-0.943-2.057c-0.375-2.27,0.383-4.568,1.274-6.689c0.761-1.809,1.627-3.573,2.593-5.281
						c0.522-0.923,1.087-1.845,1.888-2.54c1.084-0.94,2.324-0.655,3.549-1.187C234.088,166.027,235.211,165.247,236.137,164.277z"/>
					<path style="fill:#2456A2;" d="M221.577,181.234c0.106,0.829,0.149,1.705-0.404,2.153c-0.447,0.362-1.094,0.279-1.66,0.176
						c-0.952-0.172-1.905-0.345-2.858-0.518c-0.321-0.058-0.654-0.121-0.921-0.31c-0.524-0.37-0.633-1.093-0.664-1.734
						c-0.244-4.971,1.489-10.012,4.74-13.781c0.388-0.45,0.825-0.9,1.395-1.066c0.442-0.128,0.915-0.07,1.371-0.01
						c1.104,0.144,2.241,0.224,3.335,0.435c0.719,0.139,1.434,0.17,0.928,1.045c-0.538,0.93-1.348,1.754-1.922,2.684
						c-1.069,1.731-2.066,3.521-2.724,5.446c-0.454,1.33-0.742,2.728-0.764,4.136C221.426,180.252,221.513,180.734,221.577,181.234z
						"/>
				</g>
			</g>
		</g>
		<g>
			<path style="fill:#34414C;" d="M345.931,367.522c0,0,9.916,7.614,4.369,22.079c-4.35,11.344-8.744,13.245-29.103,15.481
				c-21.926,2.408-88.264,9.799-88.264,9.799s-18.945,1.473-36.632-19.199C178.615,375.009,43.929,219.138,43.929,219.138
				s-11.784-12.453-10.15-21.541c1.633-9.088,1.684-17.364,17.957-17.715c16.273-0.352,95.262-0.891,95.262-0.891
				s14.076-2.724,33.144,16.739C199.212,215.193,345.931,367.522,345.931,367.522z"/>
			<path style="fill:#1B242B;" d="M350.3,389.601c-4.35,11.344-8.744,13.245-29.103,15.481c-21.926,2.408-88.264,9.799-88.264,9.799
				s-18.945,1.473-36.632-19.199C178.615,375.009,43.929,219.138,43.929,219.138s-11.784-12.453-10.15-21.541
				c1.336-7.435,1.619-14.322,10.583-16.776c-6.981,6.969,2.307,14.605,2.307,14.605s148.219,169.189,162.684,184.916
				c14.465,15.728,33.853,13.756,33.853,13.756s76.973-7.799,97.439-9.696c6.057-0.561,9.323-3.434,10.93-7.228
				C352.285,380.492,352.201,384.644,350.3,389.601z"/>
			<path style="fill:#1B242B;" d="M270.023,367.365c-1.327,4.085,3.061,9.172,9.801,11.361c6.74,2.19,13.28,0.654,14.607-3.431
				c1.327-4.085-3.061-9.172-9.801-11.361C277.89,361.743,271.35,363.28,270.023,367.365z"/>
			<polygon style="fill:#B9E5FA;" points="325.073,353.165 202.514,362.889 64.463,206.81 179.993,203.473 			"/>
			<g>
				<path style="fill:#FFFFFF;" d="M122.591,254.209l89.613-7.266c0.874-0.071,1.734,0.252,2.345,0.88l35.556,36.544
					c1.639,1.684,0.737,4.515-1.573,4.941l-85.984,15.885c-1.024,0.189-2.072-0.178-2.755-0.964l-39.185-45.163
					C119.029,257.246,120.189,254.403,122.591,254.209z"/>
				<polyline style="fill:none;stroke:#B29CE5;stroke-miterlimit:10;" points="120.911,255.799 196.768,270.746 214.549,247.823 
									"/>
			</g>
			<g style="opacity:0.2;">
				<polygon style="fill:#FFFFFF;" points="137.893,204.689 155.945,204.167 166.325,321.974 145.735,298.695 				"/>
			</g>
			<g style="opacity:0.3;">
				<polygon style="fill:#FFFFFF;" points="180.075,337.519 163.878,203.938 179.993,203.473 206.718,231.047 224.754,361.124 
					202.514,362.889 				"/>
			</g>
			<path style="fill:#1B242B;" d="M91.276,192.771c-0.293,0.902,0.971,2.121,2.824,2.723c1.853,0.602,3.592,0.359,3.885-0.543
				c0.293-0.902-0.971-2.121-2.824-2.723C93.308,191.626,91.569,191.869,91.276,192.771z"/>
			<path style="fill:#1B242B;" d="M128.132,191.354c-0.506,1.557,1.676,3.662,4.874,4.701c3.198,1.039,6.201,0.619,6.706-0.938
				c0.506-1.557-1.677-3.661-4.875-4.7C131.641,189.378,128.638,189.797,128.132,191.354z"/>
			<path style="fill:#1B242B;" d="M84.901,196.123l-18.872,0.408c0,0-3.578,0.399-4.296-1.396c-0.718-1.795,0.129-2.301,2.711-2.438
				c2.582-0.137,17.509-0.119,17.509-0.119s3.914-0.632,5.013,1.092C88.066,195.394,86.842,196.081,84.901,196.123z"/>
			<path style="fill:#1B242B;" d="M164.808,194.232l-18.872,0.408c0,0-3.578,0.399-4.296-1.396
				c-0.718-1.795,0.129-2.301,2.712-2.438c2.582-0.137,17.509-0.119,17.509-0.119s3.914-0.632,5.013,1.092
				C167.973,193.503,166.748,194.189,164.808,194.232z"/>
			<path style="fill:#34414C;" d="M59.878,229.117l5.19,5.908c1.287,1.465,3.578,1.433,4.824-0.067l0,0
				c0.997-1.201,0.972-2.948-0.057-4.12l-5.191-5.908c-1.287-1.465-3.578-1.433-4.824,0.067l0,0
				C58.824,226.198,58.848,227.945,59.878,229.117z"/>
		</g>
		<path style="fill:#D1D3D4;" d="M116.725,216.318l17.801-2.66c0,0,25.985,5.236,32.578-20.943l-63.798-7.757
			c0,0,2.327,14.737,15.319,21.331L116.725,216.318z"/>
		<path style="fill:#D1D3D4;" d="M265.587,349.24l11.369-4.737l50.533,3.875c-3.47-3.601-7.34-7.618-11.513-11.949l-42.81-0.643
			L265.587,349.24z"/>
		<g>
			<path style="fill:#FFFFFF;" d="M330.382,188.388l108.015-14.196c2.78-0.365,4.851,2.506,3.627,5.028l-41.146,84.786
				c0,0-63.333,22-129.333,2c0,0,38.298-24.017,55.966-75.255C327.948,189.484,329.053,188.562,330.382,188.388z"/>
			
				<text transform="matrix(0.8862 -0.072 -0.5549 0.8319 329.7534 236.6364)" style="fill:#1B242B; font-family:'Raleway-Bold'; font-size:12.0367px;">feedback</text>
			<path style="fill:#2456A2;" d="M442.024,179.22c1.224-2.522-0.847-5.394-3.627-5.028l-108.015,14.196
				c-1.329,0.175-2.434,1.096-2.871,2.364c-1.524,4.419-3.21,8.622-5.003,12.638l114.504-13.841L442.024,179.22z"/>
			<g>
				<path style="fill:#FFFFFF;" d="M416.496,183.881c0.071,1.088-0.545,2.014-1.376,2.069c-0.831,0.054-1.562-0.784-1.634-1.872
					c-0.071-1.088,0.545-2.014,1.376-2.069C415.693,181.955,416.425,182.793,416.496,183.881z"/>
				<path style="fill:#FFFFFF;" d="M422.515,183.487c0.071,1.088-0.545,2.014-1.376,2.069c-0.831,0.054-1.562-0.784-1.634-1.872
					c-0.071-1.088,0.545-2.014,1.376-2.069C421.712,181.561,422.443,182.399,422.515,183.487z"/>
				<path style="fill:#FFFFFF;" d="M428.533,183.094c0.071,1.088-0.545,2.014-1.376,2.069c-0.831,0.054-1.562-0.784-1.634-1.872
					c-0.071-1.088,0.545-2.015,1.376-2.069C427.731,181.167,428.462,182.005,428.533,183.094z"/>
			</g>
			
				<path style="fill:none;stroke:#2456A2;stroke-width:0.5669;stroke-linecap:round;stroke-linejoin:round;stroke-miterlimit:10;" d="
				M326.079,212.27c0.407,0,91.345-9.758,91.345-9.758"/>
			
				<line style="fill:none;stroke:#2456A2;stroke-width:0.5669;stroke-linecap:round;stroke-linejoin:round;stroke-miterlimit:10;" x1="323.369" y1="220.808" x2="413.359" y2="211.457"/>
			
				<line style="fill:none;stroke:#2456A2;stroke-width:0.5669;stroke-linecap:round;stroke-linejoin:round;stroke-miterlimit:10;" x1="319.168" y1="230.16" x2="406.311" y2="221.757"/>
			
				<path style="fill:none;stroke:#2456A2;stroke-width:0.5669;stroke-linecap:round;stroke-linejoin:round;stroke-miterlimit:10;" d="
				M312.256,240.053c0,0,70.61-5.828,89.448-8.132"/>
			
				<path style="fill:none;stroke:#2456A2;stroke-width:0.5669;stroke-linecap:round;stroke-linejoin:round;stroke-miterlimit:10;" d="
				M305.073,248.998c0.407,0,42.827,0.407,91.345-6.641"/>
			
				<path style="fill:none;stroke:#2456A2;stroke-width:0.5669;stroke-linecap:round;stroke-linejoin:round;stroke-miterlimit:10;" d="
				M296.67,256.858c0,0,31.713,6.505,92.7-3.388"/>
			<g>
				<path style="fill:#FBCE67;" d="M326.965,205.888l-17.782,12.669l-61.592-86.451c-3.484-4.89-2.333-11.741,2.557-15.225l0,0
					c4.89-3.484,11.742-2.334,15.225,2.557L326.965,205.888z"/>
				
					<rect x="284.379" y="111.772" transform="matrix(0.8144 -0.5803 0.5803 0.8144 -45.3482 199.0259)" style="fill:#E5B553;" width="8.243" height="117.285"/>
				<path style="fill:#EA4E4E;" d="M250.148,116.881c-4.89,3.484-6.04,10.335-2.557,15.225l1.508,2.117
					c4.028-2.463,13.066-8.071,18.294-11.95l-2.02-2.835C261.889,114.547,255.038,113.397,250.148,116.881z"/>
				<path style="fill:#C64646;" d="M247.591,132.106l1.508,2.117c1.267-0.775,3.031-1.861,5.014-3.107
					c-2.9-5.854-4.038-10.46-4.241-14.018C245.224,120.642,244.176,127.312,247.591,132.106z"/>
				<path style="fill:#FFE8BB;" d="M309.183,218.556l18.611,10.395c1.167,0.63,2.553-0.342,2.358-1.653l-3.187-21.41
					C326.965,205.888,313.903,206.192,309.183,218.556z"/>
				<path style="fill:#23201A;" d="M330.152,227.298l-1.109-7.448c-4.358,1.002-6.8,3.385-8.098,5.276l6.848,3.825
					C328.96,229.581,330.346,228.61,330.152,227.298z"/>
				<path style="fill:#23201A;" d="M248.122,132.851l8.022,11.26c3.738-1.993,11.755-6.619,17.835-12.594l-8.036-11.28
					C263.412,122.84,257.739,127.924,248.122,132.851z"/>
				
					<path style="fill:none;stroke:#FBCE67;stroke-width:0.2634;stroke-linecap:round;stroke-linejoin:round;stroke-miterlimit:10;" d="
					M250.018,134.696c0,0,10.062-4.051,17.097-12.181"/>
				
					<path style="fill:none;stroke:#FBCE67;stroke-width:0.2634;stroke-linecap:round;stroke-linejoin:round;stroke-miterlimit:10;" d="
					M252.057,137.559c0,0,10.061-4.051,17.098-12.181"/>
				
					<path style="fill:none;stroke:#FBCE67;stroke-width:0.2634;stroke-linecap:round;stroke-linejoin:round;stroke-miterlimit:10;" d="
					M254.097,140.422c0,0,10.062-4.051,17.097-12.181"/>
			</g>
		</g>
		<g>
			<polygon style="fill:#FBB040;" points="186.034,113.737 167.485,137.6 175.336,141.068 163.429,172.988 185.982,137.911 
				177.545,135.34 			"/>
			<polygon style="fill:#FBB040;" points="253.318,194.118 233.661,200.916 236.887,205.864 218.036,219.803 244.212,208.04 
				240.312,203.389 			"/>
			<polygon style="fill:#FBB040;" points="320.238,283.625 300.584,276.819 300.061,282.703 276.627,282.009 304.475,288.941 
				304.283,282.874 			"/>
			<polygon style="fill:#FBB040;" points="358.186,375.274 334.077,357.047 330.714,364.943 298.637,353.467 334.014,375.546 
				336.472,367.075 			"/>
		</g>
		<g>
			<g>
				<path style="fill:#3C8CF8;" d="M415.762,338.723H265.748c-6.379,0-11.598-5.219-11.598-11.598v-20.243
					c0-6.379,5.219-11.598,11.598-11.598h150.014c6.379,0,11.598,5.219,11.598,11.598v20.243
					C427.36,333.504,422.141,338.723,415.762,338.723z"/>
				<polygon style="fill:#3C8CF8;" points="265.408,334.383 265.408,350.043 277.037,335.313 				"/>
			</g>
			<g>
				<polygon style="fill:#FBB040;" points="278.472,305.513 281.634,311.92 288.704,312.948 283.588,317.935 284.796,324.977 
					278.472,321.652 272.148,324.977 273.356,317.935 268.239,312.948 275.31,311.92 				"/>
				<polygon style="fill:#FBB040;" points="309.548,305.513 312.71,311.92 319.781,312.948 314.665,317.935 315.872,324.977 
					309.548,321.652 303.224,324.977 304.432,317.935 299.316,312.948 306.386,311.92 				"/>
				<polygon style="fill:#FBB040;" points="340.625,305.513 343.787,311.92 350.857,312.948 345.741,317.935 346.949,324.977 
					340.625,321.652 334.301,324.977 335.509,317.935 330.392,312.948 337.463,311.92 				"/>
				<polygon style="fill:#FBB040;" points="371.701,305.513 374.863,311.92 381.934,312.948 376.818,317.935 378.025,324.977 
					371.701,321.652 365.377,324.977 366.585,317.935 361.469,312.948 368.539,311.92 				"/>
				<polygon style="fill:#FFFFFF;" points="402.778,305.513 405.94,311.92 413.01,312.948 407.894,317.935 409.102,324.977 
					402.778,321.652 396.454,324.977 397.662,317.935 392.545,312.948 399.616,311.92 				"/>
			</g>
		</g>
		<path style="fill:#FBB040;" d="M175.07,208.214l1.496,2.545c0.119,0.202,0.329,0.333,0.563,0.349l2.945,0.21
			c0.589,0.042,0.874,0.741,0.482,1.182l-1.958,2.21c-0.155,0.175-0.215,0.416-0.158,0.643l0.71,2.866
			c0.142,0.573-0.435,1.06-0.976,0.824l-2.706-1.179c-0.215-0.094-0.462-0.076-0.661,0.049l-2.506,1.561
			c-0.501,0.312-1.142-0.086-1.085-0.673l0.285-2.938c0.023-0.233-0.071-0.463-0.25-0.614l-2.259-1.901
			c-0.452-0.38-0.271-1.113,0.305-1.24l2.883-0.637c0.229-0.051,0.418-0.21,0.506-0.428l1.11-2.736
			C174.018,207.761,174.771,207.706,175.07,208.214z"/>
		<path style="fill:#FBB040;" d="M374.66,380.028l0.525,1.451c0.042,0.115,0.137,0.202,0.256,0.233l1.492,0.39
			c0.298,0.078,0.378,0.464,0.134,0.654l-1.217,0.947c-0.097,0.075-0.15,0.193-0.143,0.315l0.09,1.54
			c0.018,0.308-0.325,0.503-0.58,0.33l-1.277-0.865c-0.101-0.069-0.23-0.083-0.344-0.038l-1.436,0.562
			c-0.287,0.112-0.579-0.154-0.493-0.45l0.428-1.482c0.034-0.118,0.008-0.244-0.07-0.339l-0.978-1.193
			c-0.196-0.238-0.033-0.598,0.275-0.608l1.542-0.051c0.122-0.004,0.235-0.068,0.301-0.171l0.832-1.299
			C374.163,379.695,374.555,379.738,374.66,380.028z"/>
		<g>
			<path style="fill:#FBB040;" d="M296.504,133.637l1.496,2.545c0.119,0.202,0.329,0.333,0.563,0.349l2.945,0.21
				c0.589,0.042,0.874,0.741,0.482,1.182l-1.958,2.21c-0.155,0.175-0.215,0.416-0.158,0.644l0.71,2.865
				c0.142,0.573-0.434,1.06-0.976,0.824l-2.706-1.179c-0.215-0.094-0.462-0.076-0.661,0.048l-2.506,1.561
				c-0.501,0.312-1.142-0.086-1.085-0.673l0.285-2.938c0.023-0.233-0.071-0.463-0.25-0.614l-2.259-1.901
				c-0.452-0.38-0.272-1.113,0.305-1.24l2.883-0.637c0.229-0.05,0.418-0.21,0.506-0.428l1.109-2.736
				C295.452,133.184,296.204,133.128,296.504,133.637z"/>
			<path style="fill:#FFFFFF;" d="M293.682,215.51l1.497,2.545c0.119,0.202,0.329,0.333,0.563,0.349l2.945,0.21
				c0.589,0.042,0.874,0.741,0.482,1.183l-1.958,2.21c-0.155,0.175-0.215,0.416-0.158,0.644l0.71,2.865
				c0.142,0.573-0.434,1.06-0.976,0.824l-2.707-1.179c-0.215-0.094-0.462-0.076-0.661,0.048l-2.506,1.561
				c-0.501,0.312-1.142-0.086-1.085-0.673l0.285-2.938c0.023-0.233-0.071-0.463-0.25-0.614l-2.259-1.901
				c-0.452-0.38-0.271-1.113,0.305-1.24l2.883-0.637c0.229-0.051,0.418-0.21,0.506-0.428l1.11-2.736
				C292.63,215.057,293.383,215.001,293.682,215.51z"/>
			<path style="fill:#FFFFFF;" d="M153.57,122.715l1.496,2.545c0.119,0.202,0.329,0.333,0.563,0.349l2.945,0.21
				c0.589,0.042,0.874,0.741,0.482,1.183l-1.958,2.21c-0.155,0.175-0.215,0.416-0.158,0.643l0.71,2.866
				c0.142,0.573-0.435,1.06-0.976,0.824l-2.706-1.179c-0.215-0.094-0.462-0.076-0.661,0.049l-2.506,1.561
				c-0.501,0.312-1.142-0.086-1.085-0.673l0.285-2.938c0.023-0.233-0.071-0.463-0.25-0.614l-2.259-1.901
				c-0.452-0.38-0.271-1.113,0.305-1.24l2.883-0.637c0.229-0.051,0.418-0.21,0.506-0.428l1.11-2.736
				C152.518,122.261,153.271,122.206,153.57,122.715z"/>
			<path style="fill:#FBB040;" d="M416.791,269.07l1.005,2.776c0.08,0.22,0.263,0.387,0.49,0.447l2.856,0.746
				c0.571,0.149,0.723,0.888,0.257,1.251l-2.33,1.813c-0.185,0.144-0.287,0.37-0.273,0.604l0.173,2.947
				c0.035,0.589-0.622,0.962-1.11,0.631l-2.444-1.655c-0.194-0.132-0.44-0.159-0.659-0.074l-2.749,1.075
				c-0.55,0.215-1.107-0.294-0.944-0.861l0.819-2.836c0.065-0.225,0.015-0.468-0.133-0.649l-1.872-2.283
				c-0.374-0.456-0.063-1.144,0.527-1.163l2.951-0.098c0.234-0.008,0.45-0.13,0.576-0.328l1.592-2.486
				C415.84,268.431,416.59,268.515,416.791,269.07z"/>
			<path style="fill:#FBB040;" d="M364.747,343.52l1.005,2.776c0.08,0.22,0.263,0.387,0.49,0.447l2.856,0.746
				c0.571,0.149,0.723,0.888,0.257,1.251l-2.33,1.813c-0.185,0.144-0.287,0.37-0.273,0.604l0.173,2.947
				c0.035,0.589-0.621,0.962-1.11,0.631l-2.444-1.655c-0.194-0.131-0.44-0.159-0.659-0.074l-2.749,1.075
				c-0.55,0.215-1.107-0.294-0.943-0.861l0.819-2.836c0.065-0.225,0.015-0.468-0.133-0.649l-1.872-2.283
				c-0.374-0.456-0.063-1.144,0.527-1.163l2.951-0.098c0.234-0.008,0.45-0.13,0.576-0.328l1.592-2.486
				C363.796,342.881,364.546,342.965,364.747,343.52z"/>
			<path style="fill:#FFFFFF;" d="M407.656,156.372l1.005,2.776c0.08,0.22,0.263,0.387,0.49,0.447l2.856,0.746
				c0.571,0.149,0.723,0.888,0.257,1.251l-2.33,1.813c-0.185,0.144-0.287,0.37-0.273,0.604l0.173,2.947
				c0.035,0.589-0.621,0.962-1.11,0.631l-2.444-1.655c-0.194-0.131-0.44-0.159-0.659-0.074l-2.749,1.075
				c-0.55,0.215-1.107-0.294-0.943-0.861l0.819-2.836c0.065-0.225,0.015-0.468-0.133-0.649l-1.872-2.283
				c-0.374-0.456-0.063-1.144,0.527-1.163l2.951-0.098c0.234-0.008,0.45-0.13,0.576-0.328l1.592-2.486
				C406.705,155.734,407.455,155.817,407.656,156.372z"/>
			<path style="fill:#FFFFFF;" d="M278.618,106.818l1.005,2.776c0.08,0.22,0.263,0.387,0.49,0.447l2.856,0.746
				c0.571,0.149,0.723,0.888,0.257,1.251l-2.33,1.813c-0.185,0.144-0.287,0.37-0.273,0.604l0.173,2.947
				c0.035,0.589-0.621,0.962-1.11,0.631l-2.444-1.655c-0.194-0.131-0.44-0.159-0.659-0.073l-2.749,1.075
				c-0.55,0.215-1.107-0.294-0.943-0.861l0.819-2.836c0.065-0.225,0.015-0.468-0.133-0.649l-1.872-2.283
				c-0.374-0.456-0.063-1.144,0.527-1.163l2.951-0.098c0.234-0.008,0.45-0.13,0.576-0.328l1.592-2.486
				C277.667,106.179,278.417,106.263,278.618,106.818z"/>
			<path style="fill:#FFFFFF;" d="M322.771,179.359l0.868,1.411c0.069,0.112,0.189,0.183,0.32,0.19l1.655,0.085
				c0.331,0.017,0.499,0.406,0.284,0.658l-1.074,1.262c-0.085,0.1-0.116,0.236-0.082,0.363l0.431,1.6
				c0.086,0.32-0.232,0.6-0.538,0.473l-1.532-0.632c-0.122-0.05-0.26-0.037-0.37,0.035l-1.389,0.904
				c-0.278,0.181-0.642-0.035-0.617-0.366l0.127-1.652c0.01-0.131-0.045-0.259-0.147-0.342l-1.289-1.042
				c-0.258-0.208-0.165-0.622,0.157-0.699l1.611-0.39c0.128-0.031,0.232-0.123,0.279-0.246l0.592-1.548
				C322.176,179.116,322.598,179.076,322.771,179.359z"/>
			<path style="fill:#FFFFFF;" d="M234.506,120.246l0.868,1.412c0.069,0.112,0.189,0.183,0.32,0.19l1.655,0.085
				c0.331,0.017,0.499,0.406,0.284,0.658l-1.074,1.262c-0.085,0.1-0.116,0.236-0.082,0.363l0.431,1.6
				c0.086,0.32-0.232,0.6-0.538,0.473l-1.532-0.632c-0.122-0.05-0.26-0.037-0.37,0.035l-1.389,0.904
				c-0.278,0.181-0.642-0.035-0.617-0.366l0.127-1.652c0.01-0.131-0.045-0.259-0.147-0.342l-1.289-1.042
				c-0.258-0.208-0.165-0.622,0.157-0.7l1.611-0.39c0.128-0.031,0.232-0.123,0.279-0.246l0.592-1.548
				C233.91,120.003,234.332,119.964,234.506,120.246z"/>
			<path style="fill:#FBB040;" d="M138.931,119.511l0.525,1.45c0.042,0.115,0.137,0.202,0.256,0.233l1.492,0.39
				c0.298,0.078,0.378,0.464,0.134,0.654l-1.217,0.947c-0.097,0.075-0.15,0.193-0.143,0.315l0.09,1.54
				c0.018,0.308-0.325,0.503-0.58,0.33l-1.277-0.865c-0.101-0.069-0.23-0.083-0.344-0.038l-1.437,0.562
				c-0.287,0.112-0.579-0.154-0.493-0.45l0.428-1.482c0.034-0.118,0.008-0.244-0.07-0.339l-0.978-1.193
				c-0.196-0.239-0.033-0.598,0.275-0.608l1.542-0.051c0.122-0.004,0.235-0.068,0.301-0.171l0.832-1.299
				C138.434,119.178,138.826,119.221,138.931,119.511z"/>
			<path style="fill:#FBB040;" d="M423.012,166.122l0.525,1.45c0.042,0.115,0.137,0.202,0.256,0.233l1.492,0.39
				c0.298,0.078,0.378,0.464,0.135,0.654l-1.217,0.947c-0.097,0.075-0.15,0.193-0.143,0.315l0.09,1.54
				c0.018,0.308-0.325,0.503-0.58,0.33l-1.277-0.865c-0.101-0.069-0.23-0.083-0.344-0.038l-1.437,0.562
				c-0.287,0.112-0.578-0.153-0.493-0.45l0.428-1.482c0.034-0.118,0.008-0.244-0.07-0.339l-0.978-1.193
				c-0.196-0.238-0.033-0.598,0.275-0.608l1.542-0.051c0.122-0.004,0.235-0.068,0.301-0.171l0.832-1.299
				C422.515,165.789,422.907,165.832,423.012,166.122z"/>
			<path style="fill:#FBB040;" d="M291.206,204.281l0.525,1.45c0.042,0.115,0.137,0.202,0.256,0.233l1.492,0.39
				c0.298,0.078,0.378,0.464,0.135,0.654l-1.217,0.947c-0.097,0.075-0.15,0.193-0.143,0.315l0.09,1.54
				c0.018,0.308-0.325,0.503-0.58,0.33l-1.277-0.865c-0.101-0.069-0.23-0.083-0.344-0.038l-1.436,0.562
				c-0.287,0.112-0.578-0.153-0.493-0.45l0.428-1.482c0.034-0.118,0.008-0.245-0.07-0.339l-0.978-1.193
				c-0.196-0.238-0.033-0.598,0.275-0.608l1.542-0.051c0.122-0.004,0.235-0.068,0.301-0.171l0.832-1.299
				C290.71,203.948,291.102,203.992,291.206,204.281z"/>
			<path style="fill:#FBB040;" d="M411.709,254.604l0.525,1.45c0.042,0.115,0.137,0.202,0.256,0.233l1.492,0.39
				c0.298,0.078,0.378,0.464,0.134,0.654l-1.217,0.948c-0.097,0.075-0.15,0.193-0.143,0.315l0.09,1.54
				c0.018,0.308-0.325,0.503-0.58,0.33l-1.277-0.865c-0.101-0.069-0.23-0.083-0.344-0.038l-1.436,0.562
				c-0.287,0.112-0.579-0.153-0.493-0.45l0.428-1.482c0.034-0.118,0.008-0.245-0.07-0.339l-0.978-1.193
				c-0.196-0.238-0.033-0.598,0.275-0.608l1.542-0.051c0.122-0.004,0.235-0.068,0.301-0.171l0.832-1.299
				C411.212,254.27,411.604,254.314,411.709,254.604z"/>
			<path style="fill:#FFFFFF;" d="M388.97,284.866l0.525,1.45c0.042,0.115,0.137,0.202,0.256,0.233l1.492,0.39
				c0.298,0.078,0.378,0.464,0.134,0.654l-1.217,0.948c-0.097,0.075-0.15,0.193-0.143,0.315l0.09,1.54
				c0.018,0.308-0.325,0.503-0.58,0.33l-1.277-0.865c-0.101-0.069-0.23-0.083-0.344-0.039l-1.437,0.562
				c-0.287,0.112-0.578-0.153-0.493-0.45l0.428-1.482c0.034-0.118,0.008-0.245-0.07-0.339l-0.978-1.193
				c-0.196-0.238-0.033-0.598,0.275-0.608l1.542-0.051c0.122-0.004,0.235-0.068,0.301-0.171l0.832-1.299
				C388.473,284.532,388.865,284.576,388.97,284.866z"/>
		</g>
		<g>
			<g>
				<polygon style="fill:#DAC7FF;" points="146.525,338.134 147.617,361.462 90.025,379.134 144.152,337.8 				"/>
				<polygon style="fill:#FFFFFF;" points="90.162,379.134 144.289,337.8 117.859,335.061 				"/>
				<polygon style="fill:#FFFFFF;" points="90.162,379.134 146.662,338.134 192.162,343.634 				"/>
			</g>
			<g>
				<g>
					<path style="fill:none;stroke:#383838;stroke-linecap:round;stroke-linejoin:round;" d="M151.485,333.932
						c0.359-0.308,0.714-0.62,1.066-0.936"/>
					<path style="fill:none;stroke:#383838;stroke-linecap:round;stroke-linejoin:round;stroke-dasharray:2.8291,2.8291;" d="
						M154.61,331.055c9.611-9.49,16.061-22.16,17.99-35.535c0.368-2.553,0.566-5.225-0.309-7.651
						c-1.974-5.47-9.436-7.717-14.554-4.955c-5.118,2.762-7.465,9.355-6.164,15.023c1.301,5.668,5.706,10.292,10.914,12.879
						c5.208,2.587,11.151,3.345,16.966,3.312c11.748-0.065,23.708-3.383,32.89-10.712c8.442-6.739,14.236-17.093,14.515-27.83"/>
					<path style="fill:none;stroke:#383838;stroke-linecap:round;stroke-linejoin:round;" d="M226.864,274.174
						c-0.009-0.471-0.029-0.943-0.06-1.416"/>
				</g>
			</g>
		</g>
		<g>
			<g>
				<circle style="fill:#EA4E4E;" cx="137.445" cy="172.727" r="36"/>
				<polygon style="fill:#EA4E4E;" points="123.179,199.752 116.725,216.318 143.188,204.485 				"/>
			</g>
			<path style="fill:#FFFFFF;" d="M152.118,164.002c-4.332-7.346-14.302-0.977-14.345-0.939c-0.044-0.038-10.013-6.408-14.346,0.939
				c-5.95,10.089,14.255,22.221,14.344,22.274v0.002l0.002-0.001l0.002,0.001v-0.002
				C137.863,186.223,158.067,174.091,152.118,164.002z"/>
		</g>
	</g>
</g>
</svg>
