<?xml version="1.0" encoding="utf-8"?>
<!-- Generator: Adobe Illustrator 27.5.0, SVG Export Plug-In . SVG Version: 6.00 Build 0)  -->
<svg version="1.1" xmlns="http://www.w3.org/2000/svg" xmlns:xlink="http://www.w3.org/1999/xlink" x="0px" y="0px"
	 viewBox="0 0 500 500" style="enable-background:new 0 0 500 500;" xml:space="preserve">
<g id="BACKGROUND">
	<rect style="fill:#C6E0DC;" width="500" height="500"/>
	<g>
		<defs>
			<rect id="SVGID_1_" width="500" height="500"/>
		</defs>
		<clipPath id="SVGID_00000057118245803097421180000000345665413503360189_">
			<use xlink:href="#SVGID_1_"  style="overflow:visible;"/>
		</clipPath>
		<g style="clip-path:url(#SVGID_00000057118245803097421180000000345665413503360189_);">
			<path style="fill:#426B70;" d="M259.992,46.773c-7.277-3.372-24.419-11.982-43.085-6.496
				c-15.803,4.644-26.132,17.461-35.391,29.233c-20.08,25.53-14.605,34.562-26.928,47.098
				c-25.029,25.462-58.333-0.894-88.477,21.113c-25.992,18.975-28.729,58.645-30.006,77.143
				c-3.799,55.055,23.059,96.816,36.93,117.744c12.607,19.021,63.716,96.13,157.721,105.564
				c80.883,8.117,162.37-36.992,201.574-112.872c49.146-95.122,23.505-222.459-32.313-254.977
				C362.479,48.453,320.381,74.759,259.992,46.773z"/>
		</g>
		<g style="clip-path:url(#SVGID_00000057118245803097421180000000345665413503360189_);">
			<path style="fill:#426B70;" d="M-6.765,168.537l-1.946-0.462c7.197-30.335,20.108-50.95,38.376-61.271
				c11.654-6.584,21.893-7.018,31.795-7.437c10.516-0.445,21.39-0.904,34.218-8.786c19.547-12.009,33.057-34.122,35.257-57.707
				c2.495-26.747-10.388-47.039-16.043-54.522l1.596-1.206c5.795,7.669,18.999,28.47,16.439,55.914
				c-2.258,24.2-16.129,46.894-36.202,59.226c-13.271,8.153-24.409,8.624-35.181,9.08c-10.111,0.427-19.661,0.832-30.896,7.179
				C12.886,118.582,0.298,138.766-6.765,168.537z"/>
		</g>
		<g style="clip-path:url(#SVGID_00000057118245803097421180000000345665413503360189_);">
			<path style="fill:#426B70;" d="M510.856,49.482c-17.992,0-39.459-4.132-58.871-18.852
				c-19.503-14.789-28.899-34.142-33.348-47.773l4.753-1.551c4.227,12.952,13.143,31.332,31.616,45.34
				c39.638,30.058,88.548,13.535,93.995,11.553l1.71,4.698C547.658,44.008,531.558,49.482,510.856,49.482z"/>
		</g>
		<g style="clip-path:url(#SVGID_00000057118245803097421180000000345665413503360189_);">
			<path style="fill:#426B70;" d="M-13.38,97.346l-3.873-3.163C-7.184,81.854,4.512,73.569,17.51,69.557
				c9.881-3.051,17.202-2.624,24.281-2.214c6.911,0.401,13.44,0.78,22.234-2.104c1.136-0.373,27.899-9.381,35.213-31.959
				c6.746-20.826-4.887-46.826-28.289-63.228l2.87-4.095c25.184,17.65,37.593,45.968,30.176,68.863
				C95.906,59.79,66.817,69.586,65.583,69.991c-9.695,3.18-17.009,2.754-24.081,2.344c-6.942-0.403-13.498-0.784-22.517,1.999
				C6.944,78.05-3.945,85.793-13.38,97.346z"/>
		</g>
		<g style="clip-path:url(#SVGID_00000057118245803097421180000000345665413503360189_);">
			<path style="fill:#FFFFFF;" d="M457.079,290.622c-18.184,0-36.403-2.753-54.042-8.297
				c-41.443-13.024-76.122-40.263-97.651-76.698C263.976,135.546,278.167,43.5,339.13-13.238l1.363,1.464
				c-60.28,56.103-74.32,147.105-33.384,216.383c31.744,53.724,89.308,84.2,149.408,84.203c24.219,0.001,48.843-4.947,72.366-15.316
				l0.807,1.83C506.625,285.493,481.887,290.621,457.079,290.622z"/>
		</g>
		<g style="clip-path:url(#SVGID_00000057118245803097421180000000345665413503360189_);">
			<path style="fill:#FFFFFF;" d="M307.641,515.409c-24.184-29.336-50.575-46.705-78.44-51.622
				c-20.266-3.576-34.859,0.376-50.308,4.559c-17.132,4.64-34.846,9.436-62.273,5.19c-16.847-2.609-56.295-8.718-76.463-38.32
				c-9.163-13.45-10.814-26.469-12.271-37.956c-1.447-11.414-2.697-21.271-11.328-27.857c-12.697-9.688-34.94-7.464-66.11,6.613
				l-0.823-1.823c31.892-14.402,54.82-16.547,68.146-6.379c9.297,7.093,10.596,17.336,12.099,29.195
				c1.428,11.263,3.047,24.029,11.94,37.082c19.679,28.885,58.526,34.901,75.114,37.469c27.01,4.185,44.516-0.558,61.446-5.142
				c15.67-4.244,30.472-8.253,51.178-4.598c28.347,5.002,55.14,22.605,79.635,52.319L307.641,515.409z"/>
		</g>
		<g style="opacity:0.49;clip-path:url(#SVGID_00000057118245803097421180000000345665413503360189_);">
			<path style="fill:#7BB2B6;" d="M531.45,354.532c-21.443-5.169-41.645-5.718-53.053,5.414
				c-19.821,19.342,4.693,56.598-16.24,81.203c-16.768,19.708-42.161,7.167-63.88,27.068c-18.498,16.95-20.768,45.009-19.489,67.128
				c57.383,0,114.767,0,172.15,0C544.443,475.073,537.946,414.803,531.45,354.532z"/>
		</g>
		<g style="opacity:0.49;clip-path:url(#SVGID_00000057118245803097421180000000345665413503360189_);">
			<path style="fill:#7BB2B6;" d="M17.165-20.084c0.031,6.417,0.906,30.76,19.489,50.887c17.6,19.063,44.117,26.798,66.045,22.737
				c24.927-4.616,22.953-20.592,55.218-31.399c26.237-8.787,39.12-2.101,53.053-14.075c12.371-10.632,15.454-27.28,16.24-38.978
				C157.194-27.303,87.18-23.694,17.165-20.084z"/>
		</g>
	</g>
	
		<linearGradient id="SVGID_00000083069632455194448980000018382769918655044492_" gradientUnits="userSpaceOnUse" x1="507.617" y1="567.3336" x2="105.9325" y2="72.5371">
		<stop  offset="0" style="stop-color:#FFFFFF"/>
		<stop  offset="1" style="stop-color:#FFFFFF;stop-opacity:0"/>
	</linearGradient>
	<rect style="opacity:0.39;fill:url(#SVGID_00000083069632455194448980000018382769918655044492_);" width="500" height="500"/>
</g>
<g id="OBJECTS">
	<g>
		<g>
			<path style="fill:#7BB2B6;" d="M441.162,128.027H229.29c-9.08,0-16.44-7.36-16.44-16.44V91.222c0-9.08,7.361-16.44,16.44-16.44
				h211.873c9.08,0,16.44,7.36,16.44,16.44v20.365C457.603,120.667,450.242,128.027,441.162,128.027z"/>
		</g>
		<g>
			<g>
				<path style="fill:#F3CD50;" d="M380.977,82.99l5.466,11.075c0.124,0.25,0.362,0.424,0.639,0.464l12.222,1.776
					c0.696,0.101,0.974,0.956,0.47,1.447l-8.844,8.621c-0.2,0.195-0.291,0.476-0.244,0.751l2.088,12.173
					c0.119,0.693-0.609,1.222-1.231,0.895l-10.932-5.747c-0.247-0.13-0.543-0.13-0.79,0l-10.932,5.747
					c-0.622,0.327-1.35-0.201-1.231-0.895l2.088-12.173c0.047-0.275-0.044-0.556-0.244-0.751l-8.844-8.621
					c-0.504-0.491-0.226-1.346,0.47-1.447l12.222-1.776c0.276-0.04,0.515-0.214,0.639-0.464l5.466-11.075
					C379.766,82.36,380.666,82.36,380.977,82.99z"/>
			</g>
			<g>
				<path style="fill:#F3CD50;" d="M413.629,120.926c-0.306,0-0.61-0.096-0.87-0.285c-0.46-0.334-0.687-0.89-0.59-1.451
					l2.088-12.173c0.012-0.069-0.011-0.14-0.061-0.189l-8.844-8.621c-0.407-0.397-0.551-0.98-0.375-1.521
					c0.176-0.541,0.635-0.928,1.198-1.01l12.222-1.776c0.069-0.01,0.13-0.054,0.161-0.117l5.466-11.075
					c0.252-0.51,0.762-0.827,1.331-0.827c0.569,0,1.078,0.317,1.33,0.827h0l5.466,11.075c0.031,0.063,0.091,0.107,0.161,0.117
					l12.223,1.776c0.563,0.082,1.022,0.469,1.197,1.01c0.176,0.541,0.032,1.124-0.375,1.521l-8.844,8.621
					c-0.051,0.049-0.073,0.12-0.062,0.189l2.088,12.173c0.096,0.561-0.13,1.117-0.59,1.451c-0.46,0.334-1.059,0.377-1.562,0.113
					l-10.932-5.747c-0.062-0.033-0.136-0.033-0.199,0l-10.932,5.747C414.101,120.869,413.864,120.926,413.629,120.926z
					 M425.352,83.152c-0.05,0-0.141,0.016-0.192,0.119l-5.466,11.075c-0.216,0.438-0.634,0.741-1.117,0.811l-12.222,1.776
					c-0.114,0.017-0.157,0.098-0.172,0.145c-0.015,0.047-0.029,0.138,0.054,0.219l8.844,8.621c0.35,0.341,0.509,0.832,0.426,1.313
					l-2.088,12.173c-0.02,0.114,0.045,0.18,0.085,0.209c0.04,0.029,0.123,0.07,0.225,0.016l10.932-5.747
					c0.432-0.228,0.948-0.227,1.381,0l10.932,5.747c0.102,0.054,0.185,0.013,0.225-0.016c0.04-0.029,0.104-0.095,0.085-0.209
					l-2.088-12.173c-0.082-0.481,0.077-0.972,0.427-1.313l8.844-8.621c0.083-0.081,0.069-0.172,0.054-0.219
					c-0.015-0.047-0.058-0.129-0.172-0.145l-12.222-1.776c-0.483-0.07-0.901-0.373-1.117-0.811l-5.466-11.075h0
					C425.492,83.168,425.401,83.152,425.352,83.152z"/>
			</g>
			<g>
				<path style="fill:#F3CD50;" d="M335.841,82.99l5.466,11.075c0.124,0.25,0.363,0.424,0.639,0.464l12.222,1.776
					c0.696,0.101,0.974,0.956,0.47,1.447l-8.844,8.621c-0.2,0.195-0.291,0.476-0.244,0.751l2.088,12.173
					c0.119,0.693-0.609,1.222-1.231,0.895l-10.932-5.747c-0.247-0.13-0.542-0.13-0.79,0l-10.932,5.747
					c-0.622,0.327-1.35-0.201-1.231-0.895l2.088-12.173c0.047-0.275-0.044-0.556-0.244-0.751l-8.844-8.621
					c-0.504-0.491-0.226-1.346,0.47-1.447l12.222-1.776c0.276-0.04,0.515-0.214,0.639-0.464l5.466-11.075
					C334.631,82.36,335.53,82.36,335.841,82.99z"/>
			</g>
			<g>
				<path style="fill:#F3CD50;" d="M290.997,82.99l5.466,11.075c0.124,0.25,0.363,0.424,0.639,0.464l12.222,1.776
					c0.696,0.101,0.974,0.956,0.47,1.447l-8.844,8.621c-0.2,0.195-0.291,0.476-0.244,0.751l2.088,12.173
					c0.119,0.693-0.609,1.222-1.231,0.895l-10.932-5.747c-0.247-0.13-0.543-0.13-0.79,0l-10.932,5.747
					c-0.622,0.327-1.35-0.201-1.231-0.895l2.088-12.173c0.047-0.275-0.044-0.556-0.244-0.751l-8.844-8.621
					c-0.504-0.491-0.226-1.346,0.47-1.447l12.222-1.776c0.276-0.04,0.515-0.214,0.639-0.464l5.466-11.075
					C289.787,82.36,290.686,82.36,290.997,82.99z"/>
			</g>
			<g>
				<path style="fill:#F3CD50;" d="M245.862,82.99l5.466,11.075c0.124,0.25,0.363,0.424,0.639,0.464l12.222,1.776
					c0.696,0.101,0.974,0.956,0.47,1.447l-8.844,8.621c-0.2,0.195-0.291,0.476-0.244,0.751l2.088,12.173
					c0.119,0.693-0.609,1.222-1.231,0.895l-10.932-5.747c-0.247-0.13-0.542-0.13-0.79,0l-10.932,5.747
					c-0.622,0.327-1.35-0.201-1.231-0.895l2.088-12.173c0.047-0.275-0.044-0.556-0.244-0.751l-8.844-8.621
					c-0.504-0.491-0.226-1.346,0.47-1.447l12.222-1.776c0.276-0.04,0.515-0.214,0.639-0.464l5.466-11.075
					C244.651,82.36,245.55,82.36,245.862,82.99z"/>
			</g>
		</g>
		<g>
			<path style="fill:#7BB2B6;" d="M446.562,132.606H230.82c-8.349,0-15.14-6.792-15.14-15.14V93.231
				c0-8.349,6.792-15.14,15.14-15.14h215.742c8.348,0,15.14,6.792,15.14,15.14v24.235
				C461.702,125.814,454.91,132.606,446.562,132.606z M230.82,79.361c-7.648,0-13.87,6.222-13.87,13.87v24.235
				c0,7.648,6.222,13.87,13.87,13.87h215.742c7.648,0,13.87-6.222,13.87-13.87V93.231c0-7.648-6.222-13.87-13.87-13.87H230.82z"/>
		</g>
	</g>
	<g>
		<g>
			<g>
				<path style="fill:#FFFFFF;" d="M382.486,263.542C382.486,263.542,382.486,263.542,382.486,263.542
					c-1.433-0.657-2.376-1.986-2.524-3.555l-1.506-16.005c-0.108-1.147-0.826-2.159-1.874-2.639L347.473,228
					c-2.185-1.002-3.148-3.594-2.146-5.779l22.11-48.235c1.002-2.185,3.594-3.148,5.779-2.146l79.636,36.503
					c2.185,1.002,3.148,3.594,2.146,5.779l-22.11,48.236c-1.002,2.185-3.594,3.148-5.779,2.146l-23.951-10.978
					c-1.048-0.48-2.283-0.364-3.223,0.303l-13.11,9.306C385.541,264.046,383.918,264.198,382.486,263.542z M372.748,172.859
					c-1.622-0.744-3.548-0.029-4.291,1.594l-22.11,48.236c-0.744,1.622-0.029,3.548,1.594,4.291l29.109,13.343
					c1.411,0.647,2.378,2.008,2.523,3.554l1.506,16.005c0.109,1.165,0.81,2.152,1.874,2.64l0,0c1.064,0.488,2.268,0.374,3.223-0.303
					l13.11-9.306c1.266-0.898,2.929-1.055,4.34-0.408l23.951,10.978c1.622,0.744,3.548,0.029,4.291-1.594l22.11-48.235
					c0.744-1.623,0.029-3.548-1.594-4.291L372.748,172.859z"/>
			</g>
			<path style="fill:#FFFFFF;" d="M453.851,210.391l-22.11,48.236c-0.874,1.907-3.128,2.744-5.035,1.87l-23.951-10.978
				c-1.233-0.565-2.675-0.43-3.781,0.355l-5.656,4.014l-7.454,5.292c-2.384,1.693-5.707,0.169-5.98-2.742l-0.855-9.1l-0.651-6.905
				c-0.127-1.351-0.965-2.531-2.199-3.096l-29.109-13.343c-1.907-0.874-2.744-3.128-1.87-5.035l22.11-48.236
				c0.874-1.907,3.128-2.744,5.035-1.87l79.636,36.503C453.888,206.23,454.725,208.484,453.851,210.391z"/>
		</g>
		<path style="fill:#FF5A5A;" d="M392.883,235.611c-0.276,0.093-0.557,0.183-0.836,0.268c-0.118-0.266-0.236-0.533-0.345-0.802
			c-8.044-19.142-9.686-34.862-3.185-39.641c3.251-2.382,10.353-3.389,14.28,0.425c3.623,3.518,2.92,8.911,2.813,9.637
			c0.732-0.729,4.716-4.564,9.737-3.884c5.127,0.694,9.272,5.864,9.638,10.538C425.614,220.199,412.638,229.219,392.883,235.611z"/>
	</g>
	<g>
		<g>
			<g>
				
					<ellipse transform="matrix(0.8475 -0.5307 0.5307 0.8475 -204.4946 200.4664)" style="fill:#F3CD50;" cx="246.668" cy="456.159" rx="20.878" ry="20.878"/>
			</g>
			<g>
				<g>
					<g>
						<path style="fill:#23383B;" d="M238.978,452.767c0.214,1.949-1.193,3.703-3.142,3.917c-1.949,0.214-3.703-1.193-3.917-3.142
							c-0.214-1.949,1.193-3.703,3.142-3.917C237.01,449.412,238.764,450.818,238.978,452.767z"/>
					</g>
					<g>
						<path style="fill:#23383B;" d="M260.497,450.405c0.214,1.949-1.193,3.703-3.142,3.917c-1.949,0.214-3.703-1.193-3.917-3.142
							c-0.214-1.949,1.193-3.703,3.142-3.917C258.529,447.049,260.283,448.455,260.497,450.405z"/>
					</g>
				</g>
				<g>
					<path style="fill:#23383B;" d="M252.036,463.859c-0.139,0.015-0.283-0.03-0.389-0.136c-0.399-0.396-1.87-1.677-4.048-1.548
						c-2.595,0.152-3.998,2.215-4.15,2.45c-0.143,0.222-0.439,0.286-0.661,0.142c-0.222-0.143-0.286-0.439-0.142-0.661
						c0.178-0.276,1.832-2.702,4.897-2.885c2.574-0.152,4.308,1.358,4.778,1.824c0.188,0.186,0.189,0.489,0.003,0.676
						C252.243,463.802,252.141,463.848,252.036,463.859z"/>
				</g>
			</g>
		</g>
		<g>
			<g>
				
					<ellipse transform="matrix(0.7831 -0.6218 0.6218 0.7831 -99.4195 327.6512)" style="fill:#F3CD50;" cx="420.061" cy="306.368" rx="20.878" ry="20.878"/>
			</g>
			<g>
				<g>
					<g>
						<path style="fill:#23383B;" d="M413.34,301.921c-0.272,1.942-2.067,3.295-4.009,3.023c-1.942-0.272-3.295-2.067-3.023-4.009
							c0.272-1.942,2.067-3.295,4.009-3.023C412.258,298.184,413.612,299.979,413.34,301.921z"/>
					</g>
					<g>
						<path style="fill:#23383B;" d="M434.778,304.927c-0.272,1.942-2.067,3.295-4.009,3.023c-1.942-0.272-3.295-2.067-3.023-4.009
							s2.067-3.295,4.009-3.023C433.697,301.19,435.051,302.985,434.778,304.927z"/>
					</g>
				</g>
				<g>
					<path style="fill:#23383B;" d="M423.471,314.42l-8.903-1.249c-0.262-0.037-0.444-0.278-0.407-0.54
						c0.037-0.262,0.279-0.444,0.54-0.407l8.903,1.248c0.262,0.037,0.444,0.278,0.407,0.54
						C423.974,314.274,423.733,314.457,423.471,314.42z"/>
				</g>
			</g>
		</g>
		<g>
			<g>
				<path style="fill:#F3CD50;" d="M288.109,181.618c2.002,11.355-5.58,22.184-16.935,24.186s-22.183-5.58-24.186-16.935
					c-2.002-11.355,5.58-22.183,16.935-24.185C275.279,162.681,286.107,170.263,288.109,181.618z"/>
			</g>
			<g>
				<g>
					<g>
						<path style="fill:#23383B;" d="M259.654,182.359c0.341,1.931-0.949,3.773-2.88,4.113c-1.931,0.34-3.773-0.949-4.113-2.88
							c-0.34-1.931,0.949-3.773,2.88-4.113C257.472,179.139,259.314,180.428,259.654,182.359z"/>
					</g>
					<g>
						<path style="fill:#23383B;" d="M280.974,178.6c0.34,1.931-0.949,3.773-2.88,4.113c-1.931,0.34-3.773-0.949-4.113-2.88
							c-0.34-1.931,0.949-3.773,2.88-4.113S280.634,176.669,280.974,178.6z"/>
					</g>
				</g>
				<g>
					<path style="fill:#23383B;" d="M268.966,193.36c-0.098,0.017-0.198,0.032-0.3,0.045c-2.559,0.319-4.387-1.075-4.887-1.509
						c-0.199-0.173-0.22-0.476-0.047-0.675c0.173-0.199,0.476-0.221,0.675-0.047c0.424,0.369,1.975,1.552,4.14,1.282
						c2.58-0.322,3.846-2.471,3.982-2.715c0.128-0.231,0.42-0.313,0.651-0.185c0.231,0.129,0.314,0.42,0.185,0.651
						C273.211,190.485,271.812,192.859,268.966,193.36z"/>
				</g>
			</g>
		</g>
	</g>
	<g>
		<g>
			<g>
				<g>
					<path style="fill:#FFFFFF;" d="M116.889,118.539C116.889,118.539,116.889,118.539,116.889,118.539
						c-1.567,0.172-3.059-0.484-3.991-1.755l-9.509-12.962c-0.682-0.929-1.817-1.428-2.963-1.302l-31.83,3.495
						c-2.389,0.262-4.547-1.468-4.809-3.857l-5.792-52.744c-0.262-2.389,1.468-4.547,3.857-4.809l87.08-9.562
						c2.389-0.262,4.547,1.468,4.809,3.857l5.792,52.744c0.262,2.389-1.468,4.547-3.857,4.809l-26.19,2.876
						c-1.146,0.126-2.146,0.859-2.61,1.914l-6.472,14.717C119.769,117.404,118.455,118.367,116.889,118.539z M61.975,45.721
						c-1.774,0.195-3.059,1.797-2.864,3.571l5.792,52.744c0.195,1.774,1.797,3.059,3.571,2.864l31.83-3.495
						c1.543-0.169,3.072,0.503,3.99,1.754l9.51,12.962c0.692,0.944,1.8,1.431,2.963,1.303h0c1.163-0.128,2.139-0.844,2.61-1.915
						l6.472-14.717c0.625-1.421,1.972-2.409,3.515-2.578l26.19-2.876c1.774-0.195,3.059-1.797,2.864-3.571l-5.792-52.744
						c-0.195-1.774-1.797-3.059-3.571-2.864L61.975,45.721z"/>
				</g>
				<path style="fill:#FFFFFF;" d="M150.842,36.288l5.792,52.744c0.229,2.085-1.276,3.961-3.361,4.19l-26.19,2.876
					c-1.349,0.148-2.516,1.004-3.062,2.246l-2.792,6.349l-3.68,8.368c-1.177,2.677-4.81,3.075-6.539,0.717l-5.406-7.37l-4.104-5.592
					c-0.803-1.094-2.128-1.676-3.477-1.528l-31.83,3.495c-2.085,0.229-3.961-1.276-4.19-3.361l-5.792-52.744
					c-0.229-2.085,1.276-3.961,3.361-4.19l87.08-9.562C148.737,32.699,150.613,34.203,150.842,36.288z"/>
			</g>
		</g>
		<g>
			<path style="fill:#426B70;" d="M141.125,52.76l-71.854,7.89c-1.556,0.171-2.956-0.952-3.127-2.508l0,0
				c-0.171-1.556,0.952-2.956,2.508-3.127l71.855-7.89c1.556-0.171,2.956,0.952,3.127,2.508l0,0
				C143.804,51.189,142.681,52.589,141.125,52.76z"/>
			<path style="fill:#426B70;" d="M142.355,63.963l-71.854,7.89c-1.556,0.171-2.956-0.952-3.127-2.508l0,0
				c-0.171-1.556,0.952-2.956,2.508-3.127l71.854-7.89c1.556-0.171,2.956,0.952,3.127,2.508l0,0
				C145.034,62.392,143.911,63.792,142.355,63.963z"/>
			<path style="fill:#426B70;" d="M110.667,80.4l-38.76,4.256c-1.556,0.171-2.956-0.952-3.127-2.508l0,0
				c-0.171-1.556,0.952-2.956,2.508-3.127l38.76-4.256c1.556-0.171,2.956,0.952,3.127,2.508l0,0
				C113.345,78.829,112.223,80.229,110.667,80.4z"/>
		</g>
	</g>
	<g>
		<defs>
			<rect id="SVGID_00000070823741712599294980000015880789010344691387_" width="500" height="500"/>
		</defs>
		<clipPath id="SVGID_00000038385708294360470530000008927396340471983516_">
			<use xlink:href="#SVGID_00000070823741712599294980000015880789010344691387_"  style="overflow:visible;"/>
		</clipPath>
		
			<path style="clip-path:url(#SVGID_00000038385708294360470530000008927396340471983516_);fill:none;stroke:#FFFFFF;stroke-width:2;stroke-miterlimit:10;" d="
			M161.184,480.454"/>
		<g style="clip-path:url(#SVGID_00000038385708294360470530000008927396340471983516_);">
			<defs>
				<path id="XMLID_2_" d="M55.996,516.973c7.104-30.25,14.208-60.501,21.312-90.751c-18.589-28.944-27.634-55.477-32.313-73.563
					c-5.529-21.373-12.393-47.908-5.5-77.001c2.826-11.925,3.697-6.275,17.875-43.313c2.24-5.851,4.596-12.204,8.25-12.375
					c6.225-0.291,11.413,17.591,11.688,18.563c2.066,7.301,4.483,21.583-2.75,41.251c46.181,11.402,60.015,14.357,60.73,13.979
					c0.012-0.006,1.311-0.695,1.311-0.695c31.788-87.391,58.731-100.597,58.731-100.597c2.959-1.45,9.679-4.417,14.208-1.833
					c5.888,3.359,8.331,14.714,1.275,24.894c1.295-0.952,8.718-6.269,13.85-3.81c5.665,2.714,8.187,14.734,1.708,28.64
					c3.925-3.185,9.177-6.448,13.407-4.831c11.11,4.247,7.376,39.176,5.052,59.609c-7.35,64.653-28.052,113.606-36.896,133.147
					c-9.187,20.297-18.015,36.337-24.063,46.751c-0.917,14.667-1.833,29.334-2.75,44.001
					C139.414,518.348,97.705,517.661,55.996,516.973z"/>
			</defs>
			<use xlink:href="#XMLID_2_"  style="overflow:visible;fill:#E9B1B1;"/>
			<clipPath id="XMLID_00000093887772008921304030000013017150528613838268_">
				<use xlink:href="#XMLID_2_"  style="overflow:visible;"/>
			</clipPath>
			<g style="clip-path:url(#XMLID_00000093887772008921304030000013017150528613838268_);">
				<path style="fill:#B96A6A;" d="M147.888,461.933c-4.304-8.437-6.754-17.935-6.884-27.551c-0.084-4.807,0.475-9.629,1.555-14.328
					c1.102-4.698,2.812-9.254,5.014-13.552c4.486-8.57,11.026-15.951,18.624-21.763c3.785-2.933,7.845-5.485,12.062-7.7
					c2.118-1.09,4.267-2.116,6.464-3.025c1.096-0.458,2.206-0.883,3.321-1.29c1.121-0.392,2.247-0.766,3.388-1.084
					c-1.1,0.439-2.175,0.931-3.242,1.439c-1.066,0.507-2.127,1.023-3.17,1.574c-2.09,1.091-4.146,2.238-6.147,3.472
					c-2.012,1.214-3.973,2.507-5.875,3.877c-0.957,0.676-1.89,1.384-2.827,2.085c-0.465,0.354-0.917,0.726-1.376,1.088
					c-0.46,0.362-0.915,0.727-1.356,1.111l-1.336,1.134l-1.297,1.175c-0.881,0.766-1.699,1.598-2.547,2.396
					c-1.638,1.656-3.241,3.347-4.705,5.151c-2.97,3.569-5.63,7.403-7.727,11.533c-2.153,4.099-3.798,8.457-4.936,12.949
					c-1.169,4.488-1.761,9.118-1.91,13.769C142.742,443.709,144.551,453.077,147.888,461.933z"/>
				<path style="fill:#B96A6A;" d="M227.806,236.926c-2.418,7.368-4.687,15.343-6.652,23.9c-0.898,3.91-1.684,7.729-2.371,11.448
					l-2.51,11.417c-1.711,7.602-3.529,15.181-5.428,22.741c-1.9,7.56-3.888,15.1-6.123,22.584c1.203-7.717,2.653-15.379,4.19-23.021
					c1.539-7.641,3.159-15.265,4.885-22.864l2.647-11.386c0.295-1.205,0.585-2.412,0.875-3.618c1.014-4.218,1.831-7.426,1.909-7.736
					C220.679,254.639,225.953,241.496,227.806,236.926z"/>
				<path style="fill:#B96A6A;" d="M208.289,219.615c-2.364,7.774-4.963,15.46-7.645,23.114c-1.318,3.836-2.722,7.639-4.086,11.458
					l-4.219,11.408c-2.849,7.591-5.801,15.144-8.829,22.668c-3.031,7.523-6.145,15.015-9.496,22.417
					c2.361-7.775,4.959-15.461,7.641-23.116c2.684-7.654,5.445-15.278,8.309-22.865l4.35-11.359
					c1.492-3.77,2.945-7.555,4.483-11.309C201.827,234.511,204.941,227.019,208.289,219.615z"/>
			</g>
			<path style="opacity:0.2;clip-path:url(#XMLID_00000093887772008921304030000013017150528613838268_);fill:#B96A6A;" d="
				M232.091,398.78c-14.093,3.08-33.87,6.945-57.745,10.105c-44.02,5.827-66.284,8.566-78.677,0
				c-15.358-10.615-16.669-29.664-22.015-90.947c-3.936-45.12-7.281-81.281-9.383-103.672c48.361-9.713,96.722-19.427,145.083-29.14
				c2.145,20.149,4.289,40.298,6.433,60.446c13.375,1.505,26.749,3.011,40.123,4.516c-3.007,17.925-6.015,35.85-9.022,53.775
				c-1.686-2.561-5.826-8.076-13.354-11.549c-5.335-2.461-10.19-2.89-13.083-2.916c-2.441,23.547,4.731,41.456,15.575,44.613
				c2.208,0.643,5.881,1.057,11.183-1.169C242.17,354.821,237.13,376.8,232.091,398.78z"/>
			<path style="opacity:0.1;clip-path:url(#XMLID_00000093887772008921304030000013017150528613838268_);fill:#B96A6A;" d="
				M194.918,513.185H52.362v-44.03c13.675,7.421,43.095,20.904,81.925,19.489c24.764-0.903,44.45-7.541,57.022-12.992
				C192.512,488.163,193.715,500.674,194.918,513.185z"/>
		</g>
		<g style="clip-path:url(#SVGID_00000038385708294360470530000008927396340471983516_);">
			<g>
				<g>
					<path style="fill:#23383B;" d="M201.198,400.066l-82.422,9.05c-15.39,1.69-29.236-9.416-30.926-24.806L64.555,172.16
						c-1.69-15.39,9.416-29.236,24.806-30.926l82.422-9.05c15.39-1.69,29.236,9.416,30.926,24.806l23.295,212.15
						C227.694,384.531,216.588,398.376,201.198,400.066z"/>
					<path style="fill:#FFFFFF;" d="M95.897,379.049L73.552,175.551c-1.397-12.726,7.786-24.175,20.512-25.572l75.026-8.238
						c12.726-1.397,24.175,7.786,25.572,20.512l22.345,203.498c1.397,12.726-7.786,24.175-20.512,25.572l-75.026,8.238
						C108.743,400.958,97.294,391.775,95.897,379.049z"/>
					<path style="fill:#23383B;" d="M149.234,152.306l-33.495,3.678c-4.815,0.529-9.147-2.946-9.675-7.761l0,0
						c-0.529-4.815,2.946-9.147,7.761-9.675l33.495-3.678c4.815-0.529,9.147,2.946,9.675,7.761v0
						C157.524,147.446,154.049,151.778,149.234,152.306z"/>
				</g>
				
					<rect x="81.972" y="171.869" transform="matrix(0.994 -0.1091 0.1091 0.994 -22.3322 16.4245)" style="opacity:0.53;fill:#7BB2B6;" width="113.779" height="80.668"/>
				
					<rect x="94.575" y="286.645" transform="matrix(0.994 -0.1091 0.1091 0.994 -34.7843 18.4857)" style="opacity:0.53;fill:#7BB2B6;" width="113.779" height="80.668"/>
				<path style="opacity:0.17;fill:#23383B;" d="M199.385,256.097L89.305,268.184c-0.833,0.092-1.583-0.51-1.675-1.343l0,0
					c-0.092-0.834,0.51-1.583,1.343-1.675l110.081-12.087c0.833-0.092,1.583,0.51,1.675,1.343l0,0
					C200.82,255.256,200.219,256.005,199.385,256.097z"/>
				<path style="opacity:0.17;fill:#23383B;" d="M199.995,261.65L89.915,273.737c-0.834,0.092-1.583-0.51-1.675-1.343l0,0
					c-0.091-0.833,0.51-1.583,1.343-1.675l110.081-12.087c0.833-0.091,1.583,0.51,1.675,1.344l0,0
					C201.43,260.808,200.829,261.558,199.995,261.65z"/>
				<path style="opacity:0.17;fill:#23383B;" d="M200.605,267.202L90.524,279.29c-0.833,0.091-1.583-0.51-1.675-1.344l0,0
					c-0.091-0.833,0.51-1.583,1.343-1.675l110.081-12.087c0.833-0.091,1.583,0.51,1.675,1.344l0,0
					C202.04,266.361,201.438,267.111,200.605,267.202z"/>
				<path style="opacity:0.17;fill:#23383B;" d="M144.665,278.964l-53.531,5.878c-0.834,0.092-1.583-0.51-1.675-1.343l0,0
					c-0.091-0.833,0.51-1.583,1.344-1.675l53.531-5.878c0.833-0.092,1.583,0.51,1.675,1.343l0,0
					C146.1,278.123,145.499,278.873,144.665,278.964z"/>
				<path style="opacity:0.17;fill:#23383B;" d="M211.848,369.599l-110.081,12.087c-0.833,0.091-1.583-0.51-1.675-1.343l0,0
					c-0.092-0.833,0.51-1.583,1.343-1.675l110.081-12.087c0.833-0.091,1.583,0.51,1.675,1.343v0
					C213.283,368.757,212.682,369.507,211.848,369.599z"/>
				<path style="opacity:0.17;fill:#23383B;" d="M155.968,381.902l-53.531,5.878c-0.834,0.091-1.583-0.51-1.675-1.344l0,0
					c-0.091-0.833,0.51-1.583,1.343-1.675l53.531-5.878c0.834-0.091,1.583,0.51,1.675,1.344l0,0
					C157.403,381.06,156.802,381.81,155.968,381.902z"/>
			</g>
			<g style="opacity:0.37;">
				<defs>
					<path id="SVGID_00000181087449414185382470000004222931096688164764_" style="opacity:0.37;" d="M95.897,379.049
						L73.552,175.551c-1.397-12.726,7.786-24.175,20.512-25.572l75.026-8.238c12.726-1.397,24.175,7.786,25.572,20.512
						l22.345,203.498c1.397,12.726-7.786,24.175-20.512,25.572l-75.026,8.238C108.743,400.958,97.294,391.775,95.897,379.049z"/>
				</defs>
				<clipPath id="SVGID_00000183940579023045104750000000312249082861396873_">
					<use xlink:href="#SVGID_00000181087449414185382470000004222931096688164764_"  style="overflow:visible;"/>
				</clipPath>
				<g style="clip-path:url(#SVGID_00000183940579023045104750000000312249082861396873_);">
					
						<linearGradient id="SVGID_00000018931067617861460990000006070463819574711456_" gradientUnits="userSpaceOnUse" x1="-2843.4092" y1="-1600.7933" x2="-2665.6738" y2="-1600.7933" gradientTransform="matrix(1.531 0.5366 -0.3308 0.9437 3859.2229 3218.8684)">
						<stop  offset="0" style="stop-color:#FFFFFF"/>
						<stop  offset="1" style="stop-color:#FFFFFF;stop-opacity:0"/>
					</linearGradient>
					<polygon style="fill:url(#SVGID_00000018931067617861460990000006070463819574711456_);" points="299.05,302.243 
						32.473,195.855 44.074,157.982 310.651,264.371 					"/>
					
						<linearGradient id="SVGID_00000042008465913442798320000001278536151289508526_" gradientUnits="userSpaceOnUse" x1="-2842.1433" y1="-1557.4606" x2="-2664.8071" y2="-1557.4606" gradientTransform="matrix(1.531 0.5366 -0.3308 0.9437 3859.2229 3218.8684)">
						<stop  offset="0" style="stop-color:#FFFFFF"/>
						<stop  offset="1" style="stop-color:#FFFFFF;stop-opacity:0"/>
					</linearGradient>
					<polygon style="fill:url(#SVGID_00000042008465913442798320000001278536151289508526_);" points="288.725,335.948 
						22.148,229.56 28.995,207.208 295.572,313.596 					"/>
					
						<linearGradient id="SVGID_00000155856689520554816100000007131994313031338891_" gradientUnits="userSpaceOnUse" x1="-2840.7188" y1="-1505.4104" x2="-2663.6699" y2="-1505.4104" gradientTransform="matrix(1.531 0.5366 -0.3308 0.9437 3859.2229 3218.8684)">
						<stop  offset="0" style="stop-color:#FFFFFF"/>
						<stop  offset="1" style="stop-color:#FFFFFF;stop-opacity:0"/>
					</linearGradient>
					<polygon style="fill:url(#SVGID_00000155856689520554816100000007131994313031338891_);" points="275.18,380.168 
						8.603,273.779 12.026,262.603 278.604,368.991 					"/>
				</g>
			</g>
		</g>
		<g style="clip-path:url(#SVGID_00000038385708294360470530000008927396340471983516_);">
			<defs>
				<path id="XMLID_1_" d="M435.85,520.04c-15.507-10.542-31.014-21.084-46.521-31.625c-10.813,0.04-29.815-1.408-50.188-11.688
					c-34.693-17.504-48.989-48.317-52.939-57.751c-0.216,21.023-3.331,26.125-6.187,26.813
					c-7.027,1.693-18.887-21.776-24.063-34.375c-5.45-13.269-7.806-25-8.938-33c-16.518-12.566-21.546-28.448-16.5-35.751
					c3.744-5.419,12.617-5.507,15.125-5.5c0.544-1.969,3.82-13.114,14.438-17.875c3.652-1.637,7.098-2.038,9.625-2.063
					c-12.375-9.625-24.75-19.25-37.125-28.875c-18.563-5.5-37.126-11-55.689-16.5c-12.553-5.536-17.508-15.835-15.125-20.625
					c2.069-4.158,10.567-5.974,19.938-3.438c24.491,1.917,48.981,3.833,73.471,5.75c3.648,0.285,7.131,1.637,10.017,3.886
					c16.171,12.601,32.342,25.202,48.514,37.803h22.161c12.433,0,24.122,5.922,31.477,15.945
					c24.517,33.414,49.034,66.829,73.551,100.243l85.939,47.438c-1.041,17.159-2.081,34.319-3.122,51.478
					C494.422,513.567,465.137,516.804,435.85,520.04z"/>
			</defs>
			<use xlink:href="#XMLID_1_"  style="overflow:visible;fill:#E9B1B1;"/>
			<clipPath id="XMLID_00000105395806174614400560000001643039968588090800_">
				<use xlink:href="#XMLID_1_"  style="overflow:visible;"/>
			</clipPath>
			<g style="clip-path:url(#XMLID_00000105395806174614400560000001643039968588090800_);">
				<path style="fill:#B96A6A;" d="M166.669,253.498c1.431,0.54,2.811,1.116,4.219,1.601c1.405,0.487,2.808,0.934,4.223,1.307
					c2.825,0.751,5.686,1.228,8.555,1.326c0.717,0.031,1.426,0.03,2.106-0.016c0.68-0.034,1.335-0.139,1.855-0.317
					c0.527-0.178,0.819-0.418,1.108-0.864c0.267-0.432,0.426-1.015,0.475-1.651c0.027-0.318,0.018-0.651,0.01-0.988
					c-0.035-0.339-0.062-0.68-0.125-1.027c-0.108-0.692-0.286-1.391-0.501-2.086c-0.418-1.4-1.018-2.769-1.643-4.161
					c1.09,1.072,2.009,2.312,2.788,3.668c0.202,0.336,0.357,0.698,0.537,1.05c0.152,0.367,0.315,0.729,0.437,1.116
					c0.263,0.761,0.456,1.57,0.495,2.436c0.041,0.859-0.058,1.799-0.498,2.699c-0.222,0.442-0.505,0.876-0.905,1.236
					c-0.396,0.361-0.849,0.624-1.287,0.81c-0.883,0.366-1.73,0.495-2.544,0.579c-0.817,0.069-1.613,0.078-2.396,0.053
					c-3.139-0.108-6.232-0.817-9.099-1.976c-1.433-0.584-2.813-1.279-4.124-2.075C169.054,255.4,167.807,254.515,166.669,253.498z"
					/>
				<g>
					<path style="fill:#B96A6A;" d="M348.941,389.52c-9.291-3.642-19.269-5.245-29.054-4.493l-0.919,0.08
						c-0.308,0.035-0.667,0.041-1.005,0.058c-0.342,0.011-0.676-0.012-1.015-0.019l-0.997-0.09c-1.319-0.165-2.583-0.488-3.82-0.857
						c-2.471-0.755-4.815-1.761-7.094-2.867c-2.28-1.106-4.482-2.341-6.645-3.625c-2.159-1.291-4.294-2.618-6.384-4.005
						c-4.174-2.785-8.232-5.721-12.221-8.739c-3.965-3.05-7.895-6.139-11.724-9.348c-7.681-6.389-15.136-13.035-22.331-19.959
						c7.887,6.124,15.682,12.335,23.568,18.411c3.962,3.013,7.901,6.052,11.925,8.969c4.005,2.94,8.042,5.836,12.185,8.551
						c4.117,2.75,8.327,5.366,12.697,7.6c2.179,1.123,4.409,2.139,6.692,2.896c1.14,0.375,2.295,0.685,3.447,0.872l0.861,0.113
						c0.284,0.014,0.572,0.048,0.853,0.049c0.285-0.005,0.55,0.007,0.863-0.015l0.946-0.045
						C329.903,382.65,340.077,384.911,348.941,389.52z"/>
					<path style="fill:#B96A6A;" d="M318.265,380.343c-3.447-2.656-6.605-5.714-9.43-9.067l-2.065-2.562
						c-0.641-0.89-1.3-1.77-1.921-2.676c-1.229-1.82-2.422-3.674-3.461-5.615l-0.79-1.45l-0.74-1.476
						c-0.506-0.979-0.951-1.987-1.402-2.992c-0.857-2.029-1.667-4.08-2.355-6.173c-0.364-1.04-0.675-2.097-0.988-3.152
						c-0.284-1.064-0.583-2.124-0.83-3.197c-0.505-2.142-0.941-4.302-1.257-6.478l0.472,0.768l-6.019-4.582
						c-1.987-1.553-3.99-3.086-5.965-4.656c-1.975-1.57-3.952-3.137-5.903-4.74c-1.96-1.591-3.899-3.21-5.815-4.859
						c2.151,1.33,4.28,2.69,6.388,4.078c2.117,1.376,4.207,2.789,6.3,4.198c2.093,1.409,4.158,2.856,6.239,4.282l6.184,4.356
						c0.253,0.178,0.411,0.44,0.463,0.721l0.009,0.047c0.387,2.104,0.824,4.197,1.348,6.269c0.506,2.076,1.107,4.126,1.763,6.158
						c0.643,2.036,1.405,4.032,2.213,6.008c0.434,0.975,0.809,1.977,1.273,2.939l0.668,1.457l0.718,1.433
						c0.96,1.909,2.004,3.777,3.097,5.619c0.552,0.917,1.149,1.807,1.718,2.717l1.815,2.66
						C312.493,373.873,315.274,377.184,318.265,380.343z"/>
					<path style="fill:#B96A6A;" d="M288.015,420.562c-3.827-3.161-7.474-6.498-11.067-9.889
						c-3.585-3.398-7.099-6.866-10.552-10.393c-3.453-3.527-6.843-7.116-10.162-10.775c-3.312-3.665-6.568-7.385-9.642-11.283
						c3.83,3.159,7.477,6.496,11.069,9.887c3.585,3.398,7.099,6.866,10.549,10.396c3.451,3.529,6.841,7.118,10.16,10.777
						C281.681,412.947,284.938,416.666,288.015,420.562z"/>
					<path style="fill:#B96A6A;" d="M282.49,365.473c0.137-1.582,0.42-3.047,0.697-4.5c0.287-1.448,0.59-2.87,0.898-4.29
						c0.314-1.42,0.627-2.838,0.974-4.272c0.352-1.435,0.706-2.883,1.236-4.381c0.528,1.501,0.721,3.05,0.749,4.596
						c0.015,1.546-0.142,3.093-0.48,4.6c-0.33,1.509-0.828,2.98-1.49,4.377C284.405,362.995,283.586,364.322,282.49,365.473z"/>
					<path style="fill:#B96A6A;" d="M226.826,336.247c0.999,2.27,2.065,4.48,3.326,6.561c1.263,2.076,2.659,4.05,4.252,5.835
						c1.594,1.781,3.357,3.39,5.279,4.767c0.468,0.343,0.979,0.698,1.481,1.036c0.502,0.342,1.003,0.669,1.507,0.983
						c1.006,0.631,2.027,1.208,3.072,1.65c2.078,0.926,4.273,1.2,6.015,0.232c0.874-0.475,1.628-1.232,2.215-2.138
						c0.296-0.451,0.55-0.94,0.756-1.454c0.219-0.509,0.382-1.046,0.506-1.591c0.131-0.545,0.2-1.104,0.237-1.661l0.016-0.419
						l-0.015-0.418c0-0.281-0.042-0.558-0.07-0.838c-0.14-1.119-0.524-2.215-1.068-3.238c-1.083-2.067-2.952-3.735-5.166-4.837
						c2.412,0.571,4.69,2.043,6.221,4.171c0.756,1.065,1.351,2.28,1.653,3.589c0.311,1.307,0.361,2.686,0.157,4.013
						c-0.199,1.33-0.617,2.642-1.311,3.844c-0.676,1.205-1.664,2.302-2.927,3.064c-1.269,0.751-2.795,1.09-4.226,1.014
						c-1.439-0.072-2.771-0.479-3.992-0.998c-1.221-0.532-2.349-1.179-3.421-1.874c-0.533-0.35-1.056-0.71-1.564-1.075
						c-0.511-0.363-1.007-0.721-1.515-1.13c-2.029-1.57-3.839-3.41-5.381-5.431C229.795,345.842,227.778,341.109,226.826,336.247z"
						/>
					<path style="fill:#B96A6A;" d="M260.773,430.875c0.555-1.158,1.346-2.198,2.27-3.13c0.926-0.931,2.044-1.721,3.338-2.255
						c1.286-0.532,2.796-0.746,4.24-0.492c1.445,0.24,2.772,0.879,3.901,1.713c0.574,0.413,1.07,0.905,1.556,1.4l0.662,0.797
						c0.212,0.271,0.396,0.561,0.586,0.846c0.198,0.28,0.354,0.584,0.513,0.885c0.158,0.301,0.328,0.596,0.444,0.915l0.377,0.939
						l0.281,0.968c0.105,0.318,0.159,0.649,0.215,0.978c0.051,0.329,0.131,0.651,0.152,0.983c0.049,0.662,0.11,1.316,0.06,1.972
						c-0.028,1.307-0.314,2.59-0.721,3.793c-0.043-0.321-0.067-0.637-0.101-0.95c-0.025-0.312-0.038-0.621-0.101-0.93
						c-0.053-0.308-0.093-0.612-0.137-0.914c-0.038-0.302-0.124-0.6-0.184-0.896c-0.101-0.596-0.297-1.169-0.452-1.74
						c-0.081-0.285-0.201-0.559-0.296-0.837c-0.098-0.277-0.198-0.553-0.326-0.816c-0.442-1.082-1.049-2.072-1.711-2.987
						c-0.663-0.919-1.457-1.724-2.334-2.37c-0.871-0.654-1.84-1.145-2.85-1.392c-1.008-0.255-2.071-0.231-3.152,0.025
						c-1.079,0.256-2.164,0.728-3.199,1.344c-0.524,0.301-1.028,0.645-1.541,0.997C261.762,430.085,261.265,430.466,260.773,430.875
						z"/>
					<path style="fill:#B96A6A;" d="M324.796,298.873c-1.314-0.04-2.519-0.309-3.692-0.648c-1.168-0.347-2.294-0.785-3.383-1.299
						c-1.09-0.514-2.141-1.108-3.15-1.792c-1.005-0.692-1.976-1.455-2.838-2.449c1.315,0.037,2.521,0.306,3.693,0.644
						c1.168,0.348,2.294,0.784,3.382,1.302c1.088,0.517,2.139,1.111,3.148,1.795C322.961,297.12,323.933,297.882,324.796,298.873z"
						/>
					<path style="fill:#B96A6A;" d="M388.602,488.625c1.516-0.053,2.906-0.028,4.276-0.077c1.365-0.034,2.696-0.13,4.022-0.27
						c1.326-0.138,2.645-0.343,3.993-0.586c1.352-0.239,2.711-0.543,4.21-0.786c-0.977,1.166-2.231,2.033-3.586,2.683
						c-1.361,0.639-2.838,1.06-4.347,1.213c-1.507,0.158-3.042,0.077-4.509-0.276C391.197,490.172,389.791,489.573,388.602,488.625z
						"/>
				</g>
			</g>
			<path style="opacity:0.2;clip-path:url(#XMLID_00000105395806174614400560000001643039968588090800_);fill:#B96A6A;" d="
				M291.762,455.983h-44.765c-0.135-25.92-0.27-51.84-0.405-77.761c13.204,13.585,26.407,27.17,39.61,40.755
				C288.055,431.312,289.909,443.647,291.762,455.983z"/>
			<path style="opacity:0.2;clip-path:url(#XMLID_00000105395806174614400560000001643039968588090800_);fill:#B96A6A;" d="
				M318.823,383.101c-2.544-0.151-6.239-0.57-10.491-1.825c-11.111-3.28-18.064-9.918-21.113-12.722
				c-8.499-7.815-21.412-17.788-41.579-31.391c1.454-5.963,2.907-11.925,4.36-17.888c5.098-1.348,10.196-2.697,15.294-4.045
				c9.871,6.373,19.742,12.746,29.612,19.119c1.141,5.653,2.933,12.19,5.795,19.203
				C306.052,366.666,313.108,376.461,318.823,383.101z"/>
			<path style="opacity:0.1;clip-path:url(#XMLID_00000105395806174614400560000001643039968588090800_);fill:#B96A6A;" d="
				M507.82,549.637H386.016v-57.383c6.362-1.782,12.724-3.564,19.086-5.347c24.055,10.512,50.988,5.346,66.447-11.977
				c15.813-17.719,12.968-40.701,12.451-44.391c7.218-3.248,14.436-6.496,21.654-9.744
				C506.376,463.742,507.098,506.689,507.82,549.637z"/>
		</g>
	</g>
	<g style="opacity:0.71;">
		<path style="opacity:0.51;fill:#FFFFFF;" d="M324.341,169.689l0.838,4.008c0.06,0.285,0.255,0.522,0.524,0.635l3.777,1.582
			c0.676,0.283,0.734,1.219,0.098,1.583l-3.553,2.036c-0.253,0.145-0.418,0.404-0.442,0.695l-0.337,4.081
			c-0.06,0.73-0.932,1.075-1.475,0.583l-3.034-2.75c-0.216-0.195-0.514-0.272-0.797-0.205l-3.986,0.94
			c-0.713,0.168-1.31-0.554-1.01-1.223l1.678-3.736c0.119-0.266,0.1-0.573-0.051-0.822l-2.126-3.5
			c-0.381-0.626,0.122-1.417,0.851-1.338l4.071,0.441c0.289,0.031,0.576-0.082,0.765-0.302l2.672-3.104
			C323.283,168.737,324.191,168.971,324.341,169.689z"/>
		<path style="opacity:0.51;fill:#FFFFFF;" d="M186.338,98.377l2.034,1.854c0.145,0.132,0.345,0.184,0.535,0.14l2.68-0.624
			c0.48-0.112,0.879,0.375,0.676,0.824l-1.135,2.507c-0.081,0.178-0.068,0.385,0.033,0.552l1.422,2.356
			c0.254,0.422-0.085,0.952-0.575,0.897l-2.735-0.304c-0.194-0.022-0.387,0.054-0.515,0.202l-1.801,2.08
			c-0.322,0.372-0.932,0.213-1.031-0.269l-0.556-2.695c-0.039-0.192-0.171-0.351-0.351-0.427l-2.535-1.07
			c-0.454-0.191-0.491-0.82-0.063-1.064l2.391-1.361c0.17-0.097,0.281-0.271,0.298-0.466l0.234-2.742
			C185.388,98.275,185.975,98.045,186.338,98.377z"/>
		<path style="opacity:0.51;fill:#FFFFFF;" d="M317.162,260.171l2.033,1.854c0.145,0.132,0.345,0.184,0.535,0.14l2.68-0.624
			c0.48-0.112,0.879,0.375,0.676,0.824l-1.135,2.507c-0.081,0.178-0.068,0.385,0.033,0.552l1.422,2.356
			c0.255,0.422-0.085,0.952-0.574,0.898l-2.735-0.304c-0.194-0.022-0.387,0.054-0.515,0.202l-1.801,2.08
			c-0.322,0.372-0.932,0.213-1.031-0.269l-0.556-2.695c-0.039-0.191-0.171-0.351-0.351-0.427l-2.535-1.07
			c-0.454-0.191-0.491-0.82-0.063-1.064l2.391-1.361c0.17-0.097,0.281-0.271,0.298-0.466l0.234-2.742
			C316.211,260.069,316.798,259.839,317.162,260.171z"/>
		<path style="opacity:0.51;fill:#FFFFFF;" d="M54.459,195.975l2.034,1.854c0.145,0.132,0.345,0.184,0.535,0.14l2.68-0.624
			c0.48-0.112,0.879,0.375,0.676,0.824l-1.135,2.507c-0.081,0.178-0.068,0.385,0.033,0.552l1.422,2.356
			c0.255,0.422-0.085,0.952-0.574,0.898l-2.735-0.304c-0.194-0.022-0.387,0.054-0.515,0.202l-1.801,2.08
			c-0.322,0.372-0.932,0.213-1.031-0.269l-0.556-2.695c-0.04-0.191-0.171-0.351-0.351-0.427l-2.535-1.07
			c-0.454-0.192-0.491-0.82-0.063-1.064l2.391-1.361c0.17-0.097,0.282-0.271,0.298-0.466l0.234-2.742
			C53.509,195.872,54.095,195.643,54.459,195.975z"/>
		<path style="opacity:0.51;fill:#FFFFFF;" d="M429.211,144.046l0.838,4.008c0.06,0.285,0.255,0.522,0.524,0.635l3.777,1.582
			c0.676,0.283,0.734,1.219,0.098,1.583l-3.553,2.036c-0.253,0.145-0.418,0.404-0.442,0.694l-0.337,4.081
			c-0.06,0.73-0.932,1.075-1.475,0.582l-3.034-2.75c-0.216-0.195-0.514-0.272-0.797-0.205l-3.986,0.941
			c-0.713,0.168-1.31-0.554-1.01-1.223l1.678-3.736c0.119-0.266,0.1-0.573-0.051-0.821l-2.126-3.5
			c-0.38-0.626,0.122-1.417,0.851-1.338l4.071,0.441c0.289,0.031,0.576-0.082,0.766-0.302l2.672-3.104
			C428.154,143.095,429.061,143.329,429.211,144.046z"/>
	</g>
</g>
</svg>
