<svg version="1.1" id="Layer_1" xmlns="http://www.w3.org/2000/svg" xmlns:xlink="http://www.w3.org/1999/xlink" x="0px" y="0px"
	 width="100%" viewBox="0 0 1024 1024" enable-background="new 0 0 1024 1024" xml:space="preserve">
<path fill="#000000" opacity="1.000000" stroke="none" 
	d="
M385.115540,581.176758 
	C388.515259,573.198669 391.976898,565.649719 394.256958,556.988220 
	C388.068909,563.399048 381.455383,562.716309 374.595673,559.071960 
	C368.356842,555.757446 360.724030,553.849609 360.661774,544.212524 
	C355.890594,545.967468 352.283173,548.832458 348.465881,551.290710 
	C343.565948,554.446167 338.759735,557.716858 333.400726,560.121521 
	C327.480408,562.778015 321.858887,562.588745 316.163574,559.481384 
	C310.269043,556.265259 304.866943,552.520874 301.024811,546.776123 
	C295.879700,550.473389 290.969482,554.124084 285.931915,557.589722 
	C280.156616,561.562927 274.043823,562.624878 267.573547,559.168152 
	C266.696503,558.699524 265.721893,558.417114 264.807129,558.015076 
	C245.056320,549.335693 240.653015,536.450684 251.190750,517.545593 
	C254.869827,510.945190 259.705627,505.175476 265.935120,500.793427 
	C270.489227,497.589905 275.474060,495.523346 281.267731,495.585754 
	C293.109833,495.713348 298.737549,504.197937 294.175964,515.193726 
	C291.366882,521.965088 285.735474,525.768066 279.710541,529.107849 
	C276.661285,530.798279 273.360077,532.028137 270.214691,533.552673 
	C266.609711,535.299988 264.415100,539.806274 265.770996,543.011597 
	C267.463043,547.011536 270.742584,546.644592 274.224030,545.848083 
	C278.907501,544.776489 282.896942,542.331482 286.570129,539.484253 
	C294.599457,533.260559 302.122742,526.649597 307.398651,517.595093 
	C312.936829,508.090363 321.076904,500.855957 330.743073,495.523804 
	C338.948608,490.997437 346.361938,491.885376 351.162354,497.717804 
	C356.361633,504.034851 355.980591,511.913116 350.119263,519.124268 
	C349.384399,520.028259 348.584839,520.880798 347.870178,521.799927 
	C345.432434,524.934875 343.144409,525.256226 340.996796,521.512329 
	C340.666534,520.936523 340.238098,520.417419 339.860901,519.868103 
	C335.322601,513.259033 333.756073,513.148071 328.690765,519.423218 
	C324.001556,525.232422 321.402863,531.634155 323.120697,539.344971 
	C324.265503,544.483643 325.365570,545.370605 330.168243,543.678894 
	C342.581635,539.306580 353.313782,531.997192 363.815033,524.296387 
	C365.527039,523.040955 366.099945,521.083252 366.904938,519.258850 
	C369.462677,513.461731 372.019501,507.644440 376.303955,502.852783 
	C380.454498,498.210846 383.873627,498.364410 387.862579,503.214996 
	C392.844635,509.273163 393.142822,512.711731 389.286285,519.278748 
	C385.976715,524.914307 383.497467,530.893860 381.913422,537.239014 
	C381.352814,539.484680 380.775146,541.732239 382.003174,544.294067 
	C386.969147,543.081421 390.176544,539.304382 393.777771,536.312683 
	C397.996918,532.807739 401.794403,528.796997 405.800568,525.033020 
	C407.795074,523.159119 409.052765,520.896301 409.959625,518.320496 
	C412.060760,512.352356 414.394531,506.465973 416.483887,500.493927 
	C417.706055,497.000549 419.988892,495.458252 423.648895,495.591583 
	C427.756317,495.741241 431.815948,496.083771 435.990234,495.788910 
	C448.324677,494.917664 456.510651,501.802307 459.293945,514.324463 
	C462.004974,526.521179 458.332581,536.827820 450.465576,546.130737 
	C462.433289,540.754883 471.178253,531.909607 477.445007,520.660889 
	C481.715485,512.995422 486.369812,505.804962 493.787842,500.835510 
	C498.559631,497.638763 503.619232,495.434753 509.611542,495.587982 
	C520.669983,495.870789 526.159485,503.800385 522.407471,514.294006 
	C520.444397,519.784241 516.403503,523.367126 511.764587,526.471985 
	C507.451660,529.358704 502.732513,531.444397 498.008698,533.538574 
	C493.996887,535.317139 491.920593,539.665405 493.599670,543.356262 
	C495.383423,547.277161 498.821045,546.747498 502.187958,545.806335 
	C510.154297,543.579590 516.253540,538.378601 522.219543,533.040344 
	C525.568176,530.044067 528.626648,526.726013 531.885010,523.625610 
	C533.825012,521.779663 535.967896,520.181458 538.651978,519.537598 
	C542.577393,518.595947 544.425293,520.096436 544.150513,524.113464 
	C543.867126,528.257263 542.132141,531.911499 539.477600,534.961914 
	C531.795959,543.789124 523.388367,551.806458 513.289246,557.928467 
	C507.605988,561.373657 502.065216,562.196472 495.774963,559.339111 
	C487.987213,555.801392 480.080505,552.642822 475.443512,544.552490 
	C471.734894,546.045959 469.476501,549.030701 466.695892,551.249268 
	C463.151398,554.077393 459.465942,556.590698 455.314240,558.402039 
	C452.379486,559.682434 448.986420,561.282471 446.160492,560.110291 
	C438.695190,557.013489 431.361755,558.755127 423.933990,559.455994 
	C422.623627,559.579651 421.272644,559.354614 419.947144,559.222534 
	C411.763824,558.406982 411.972931,558.480042 409.050629,566.144165 
	C404.305969,578.587585 399.221069,590.900940 394.360291,603.300781 
	C393.030457,606.693176 391.538788,607.574280 388.113525,605.310364 
	C377.293243,598.158752 377.213257,598.281921 382.671326,586.518372 
	C383.442291,584.856689 384.196411,583.187256 385.115540,581.176758 
M424.892914,522.263672 
	C422.798157,527.315979 420.770538,532.397522 418.585388,537.410461 
	C417.095825,540.827637 418.322510,542.241394 421.778961,542.711121 
	C433.980560,544.369202 445.402618,531.924927 442.654846,519.895813 
	C441.731689,515.854492 439.303833,513.883057 435.132355,513.172180 
	C428.201599,511.991028 426.863220,516.834778 424.892914,522.263672 
M277.917969,515.174438 
	C280.234283,513.171509 282.481842,511.122284 283.344604,507.365631 
	C278.059906,508.482422 276.204865,511.927582 274.301331,516.632935 
	C275.920502,516.064392 276.660156,515.804626 277.917969,515.174438 
M506.332336,514.624390 
	C508.161407,512.569580 510.677094,510.913757 510.816315,507.481934 
	C505.577362,509.349518 504.036194,511.098877 503.035675,516.216309 
	C504.062927,515.759094 504.932312,515.372131 506.332336,514.624390 
z"/>
<path fill="#000000" opacity="1.000000" stroke="none" 
	d="
M663.978821,530.019958 
	C669.429626,516.795288 677.205688,505.706177 691.471863,500.851288 
	C703.320068,496.819214 715.792358,505.757599 716.416565,518.427002 
	C716.518921,520.504395 714.954895,523.608215 718.186768,524.438110 
	C721.483582,525.284729 723.860779,523.301270 725.532654,520.486206 
	C730.687561,511.806580 737.442993,504.937958 747.076599,501.231659 
	C759.459106,496.467834 772.606384,505.116699 773.414001,518.468201 
	C773.542114,520.585815 771.670959,524.093689 775.677246,524.511780 
	C779.496460,524.910400 781.025330,522.305298 781.912476,518.786865 
	C787.414246,496.968567 794.088379,475.542206 803.844116,455.181549 
	C807.804565,446.915833 811.843567,444.707123 822.400146,445.768738 
	C816.517700,466.008667 809.110352,485.712860 804.848694,507.482025 
	C808.167969,505.069977 810.384949,503.151367 812.877258,501.708282 
	C819.123535,498.091461 826.853577,498.399811 830.667297,502.180634 
	C834.731689,506.209961 835.106018,513.967773 831.493835,520.388428 
	C828.761230,525.245789 824.445984,528.274536 819.511902,530.553284 
	C818.014465,531.244812 816.506836,531.914001 814.704163,532.728943 
	C816.985168,537.482422 820.036316,541.376343 824.087891,544.286682 
	C827.731812,546.904114 831.645447,546.271057 835.323181,543.928955 
	C841.196960,540.188538 845.491394,534.888062 849.629456,529.435181 
	C852.024780,526.278809 854.406677,523.112366 856.764038,519.990906 
	C862.910339,523.844849 863.373169,525.644165 860.277771,531.271729 
	C855.848816,539.323975 850.803894,546.930481 844.592834,553.737488 
	C832.250244,567.264343 813.218079,566.206665 802.454773,551.346252 
	C800.707275,548.933533 799.106079,546.414795 797.315613,543.765015 
	C794.665588,544.914246 794.306641,547.380371 793.486023,549.427856 
	C792.003967,553.125610 791.067810,557.043823 788.869507,560.447021 
	C786.528625,564.070984 783.201782,565.698059 779.052429,564.593628 
	C774.888184,563.485291 775.527161,559.753662 775.715149,556.696655 
	C776.050720,551.241882 776.737305,545.808716 777.300476,540.130981 
	C772.558411,538.656372 769.056641,538.573364 766.205383,544.164062 
	C762.008362,552.393250 754.455200,557.591980 746.487061,562.025146 
	C744.239258,563.275757 742.050903,563.117188 739.799500,562.060059 
	C732.758850,558.754211 727.011902,553.692871 721.356384,548.509155 
	C720.036011,547.299011 719.624817,545.647095 719.662720,543.954529 
	C719.725525,541.152771 718.536377,539.901672 715.712585,539.256775 
	C712.605225,538.547119 711.625977,540.113159 710.493591,542.362000 
	C705.951660,551.382080 698.271179,557.105408 689.724365,561.916565 
	C687.093384,563.397583 684.651367,563.053955 682.136169,561.744080 
	C675.565430,558.322327 669.775513,553.780945 664.749512,548.448242 
	C661.414734,544.909973 662.312195,540.016235 662.627380,535.562622 
	C662.742920,533.930786 663.407532,532.337769 663.910828,530.361450 
	C664.000000,529.995911 663.978821,530.019958 663.978821,530.019958 
M699.127808,525.016541 
	C697.961609,523.057800 698.405762,520.455566 696.749084,518.695862 
	C689.436279,521.441223 681.495239,535.865845 683.664734,542.278870 
	C690.166626,540.854614 698.287354,532.304077 699.127808,525.016541 
M742.737244,542.003052 
	C746.832397,539.957336 749.660522,536.525879 752.761536,533.289490 
	C757.414673,528.433472 756.069946,523.671753 753.740540,518.548218 
	C747.630005,521.212463 739.118591,534.393982 739.488220,540.295837 
	C739.594849,541.997192 740.426025,542.677551 742.737244,542.003052 
M811.798157,523.132019 
	C813.660522,522.232361 815.898315,521.721497 816.134155,519.061829 
	C813.062988,518.299744 810.462219,518.902710 809.245728,520.804749 
	C807.725159,523.182312 808.923157,523.712341 811.798157,523.132019 
z"/>
<path fill="#000000" opacity="1.000000" stroke="none" 
	d="
M664.007690,529.981689 
	C658.433838,542.363586 648.374207,549.990723 636.478088,555.535095 
	C617.213440,564.513672 596.958618,569.270935 575.655518,569.325928 
	C574.490967,569.328918 573.314331,569.349792 572.163696,569.202698 
	C565.672852,568.372437 563.615906,564.849426 566.094482,558.746155 
	C572.230530,543.637085 578.467651,528.568726 584.527222,513.429199 
	C587.370300,506.325989 589.665833,498.997925 592.654358,491.960693 
	C594.459290,487.710297 594.295410,484.270142 591.701355,480.359100 
	C588.316040,475.255157 588.680054,474.714050 594.099121,472.421661 
	C607.969299,466.554138 622.437927,463.833344 637.471069,464.875122 
	C645.302246,465.417816 652.251648,468.079071 655.306458,476.231812 
	C658.450928,484.624054 656.329895,491.909790 649.977234,498.054291 
	C647.999695,499.966980 645.928162,501.782440 643.744019,503.785095 
	C662.869324,510.447205 665.860901,514.251465 664.019287,529.608398 
	C663.978821,530.019958 664.000000,529.995911 664.007690,529.981689 
M640.878784,532.264099 
	C641.493164,530.725952 642.262329,529.230042 642.695129,527.642456 
	C644.552917,520.828491 641.513550,516.927124 634.500610,517.096008 
	C632.846008,517.135864 631.128845,517.211487 629.558350,517.672485 
	C620.622437,520.295532 611.718018,523.026428 602.813904,525.756592 
	C601.219421,526.245422 599.526917,526.804993 598.915894,528.578064 
	C595.957764,537.163330 593.061157,545.769836 589.922424,555.017639 
	C597.786743,554.888123 604.444946,552.747253 610.976013,550.553040 
	C622.048767,546.832886 632.967712,542.630066 640.878784,532.264099 
M607.922791,495.387024 
	C607.299744,498.347626 605.482178,501.092773 606.021118,504.543915 
	C612.002808,503.766693 617.145996,501.453033 622.268555,499.186279 
	C626.382507,497.365814 630.212769,495.002075 632.998352,491.326294 
	C633.996094,490.009827 635.109741,488.505310 634.294434,486.783142 
	C633.424255,484.945190 631.505737,485.117706 629.890564,485.360321 
	C623.471680,486.324402 617.311829,488.302032 611.198792,490.418762 
	C609.227661,491.101349 608.579712,492.814453 607.922791,495.387024 
z"/>
<path fill="#000000" opacity="1.000000" stroke="none" 
	d="
M180.525299,491.654602 
	C183.281876,483.207886 185.945999,475.153168 188.531235,467.073212 
	C189.157806,465.114899 189.734955,463.308685 192.003448,462.602051 
	C204.371948,458.749146 216.628830,454.499908 229.946075,455.586304 
	C240.159561,456.419525 249.249908,459.362091 253.262299,469.698425 
	C257.593842,480.856995 255.367172,491.325714 247.510956,500.406799 
	C241.187866,507.715698 232.717575,511.520233 223.795029,514.569214 
	C222.132919,515.137146 220.063797,514.984741 218.581055,517.251587 
	C226.349045,531.733948 231.546112,547.946533 242.818237,560.792542 
	C245.305099,563.626587 248.751160,565.597961 251.602264,568.138550 
	C255.390152,571.513855 254.913895,574.245850 249.932617,575.457214 
	C239.814941,577.917542 230.802750,575.182190 223.158371,568.251343 
	C217.311111,562.949829 214.273911,555.885071 211.665451,548.626465 
	C208.852646,540.799255 207.457321,532.499329 203.819672,524.952332 
	C203.032501,523.319153 202.212875,521.562073 200.954178,520.323486 
	C197.939911,517.357483 193.446014,518.932190 192.292938,523.294189 
	C189.531479,533.740845 187.023438,544.257996 184.049973,554.642700 
	C183.161514,557.745667 183.321350,562.335632 177.536346,561.579651 
	C170.495209,560.659668 166.311188,557.811157 165.523651,552.391724 
	C165.087952,549.393555 165.611496,546.441467 166.270523,543.510193 
	C170.177780,526.131470 175.101791,509.032654 180.525299,491.654602 
M205.339615,479.876221 
	C203.265488,486.358063 201.083542,492.807953 199.151688,499.331909 
	C197.633850,504.457733 198.224548,505.235931 203.692093,504.837799 
	C215.084656,504.008118 225.360916,500.036499 234.350098,492.977264 
	C236.143234,491.569153 237.664871,489.691925 238.949966,487.786987 
	C241.356796,484.219452 240.659225,480.618561 236.841446,479.004822 
	C226.531723,474.647034 216.024673,474.332214 205.339615,479.876221 
z"/>
<path fill="#000000" opacity="1.000000" stroke="none" 
	d="
M391.111450,476.302063 
	C398.602264,477.138397 404.192780,484.525665 402.946411,491.427948 
	C402.607880,493.302551 401.743469,494.947296 399.858734,495.634216 
	C395.382233,497.265900 391.338043,495.883301 387.720459,493.303925 
	C384.442688,490.966827 382.545227,487.636566 383.068970,483.493134 
	C383.619415,479.138397 385.587036,475.964600 391.111450,476.302063 
z"/>
</svg>