<svg version="1.1" id="Layer_1" xmlns="http://www.w3.org/2000/svg" xmlns:xlink="http://www.w3.org/1999/xlink" x="0px" y="0px"
	 width="100%" viewBox="0 0 856 291" enable-background="new 0 0 856 291" xml:space="preserve">
<path fill="#FFFFFF" opacity="1.000000" stroke="none" 
	d="
M588.000000,292.000000 
	C392.000061,292.000000 196.500092,292.000000 1.000105,292.000000 
	C1.000070,195.000076 1.000070,98.000137 1.000035,1.000157 
	C286.333191,1.000105 571.666382,1.000105 856.999634,1.000052 
	C856.999756,97.999840 856.999756,194.999680 856.999878,291.999756 
	C767.500000,292.000000 678.000000,292.000000 588.000000,292.000000 
M364.770538,179.880127 
	C364.548676,179.715149 364.326813,179.550171 364.505127,178.828842 
	C374.820618,168.060837 377.604858,153.799225 371.962250,140.631805 
	C368.013000,131.416107 360.520813,126.630318 350.858551,126.967186 
	C346.438354,127.121284 341.993408,127.224419 337.587341,126.932785 
	C333.471802,126.660370 331.008636,128.074371 329.679535,132.073044 
	C327.587341,138.367218 325.280914,144.596298 322.854034,150.769958 
	C321.963196,153.036209 320.878906,155.487106 319.181671,157.129028 
	C312.962555,163.145523 306.523529,168.943024 300.004974,174.637161 
	C297.705933,176.645447 294.940918,178.120255 291.559631,180.396774 
	C291.559631,177.695114 291.120514,175.965103 291.631195,174.587051 
	C294.841675,165.923645 297.962036,157.201202 301.788116,148.806320 
	C303.030853,146.079636 303.604034,144.000046 302.234253,141.499603 
	C300.885040,139.036728 299.678131,136.412888 297.899414,134.285568 
	C294.192657,129.852356 291.113617,129.576035 287.740570,134.254868 
	C283.699646,139.860153 280.661133,146.187653 277.181885,152.198547 
	C276.201447,153.892426 275.593109,156.114365 274.142181,157.173721 
	C262.585175,165.611511 250.820602,173.695663 237.105209,178.468750 
	C233.527451,179.713837 232.102554,178.870667 230.852798,175.513214 
	C226.857086,164.778809 232.644531,151.257126 244.210114,145.360916 
	C245.618286,147.335617 247.035431,149.363449 248.495987,151.359543 
	C249.924652,153.312057 251.397522,155.232224 253.027161,157.401047 
	C255.276596,154.999893 257.186005,153.142761 258.888062,151.111832 
	C264.644867,144.242676 265.021790,135.475906 259.923920,129.136993 
	C255.252792,123.328697 247.631165,122.283302 239.542328,126.701393 
	C229.434937,132.222015 220.604630,139.519424 214.995728,149.583359 
	C209.191315,159.998154 200.579300,167.343994 191.335068,174.119293 
	C187.541809,176.899445 182.931976,178.776627 178.437622,180.318359 
	C175.176575,181.436996 171.317673,181.697571 169.685135,177.210922 
	C168.159332,173.017624 170.241852,168.306595 174.148834,166.374573 
	C179.498962,163.728897 184.923126,161.179016 190.032822,158.116394 
	C194.984772,155.148300 198.711731,150.917526 200.412292,145.169083 
	C203.515823,134.678192 198.023621,126.643867 187.241516,127.180244 
	C182.315613,127.425301 176.904388,128.907608 172.745728,131.490845 
	C160.957779,138.813202 153.398117,149.697418 150.421402,163.292709 
	C148.318207,172.898331 150.925308,181.294006 159.696991,186.661469 
	C164.340164,189.502640 169.490921,191.508926 174.386490,193.944504 
	C179.316422,196.397110 184.131393,195.914276 188.580124,193.011841 
	C195.106079,188.754150 201.448730,184.215469 207.890213,179.782257 
	C221.440582,197.529755 234.161194,201.113327 251.508987,188.772766 
	C257.702515,184.366913 264.198792,180.386658 270.114655,176.502472 
	C271.342041,179.935577 271.546265,184.625107 273.819244,186.077850 
	C280.154022,190.126602 287.129425,193.490723 294.272919,195.850739 
	C299.513153,197.581955 302.730438,192.254822 306.978027,189.966690 
	C307.130951,190.116013 307.283905,190.265335 307.288788,191.132614 
	C301.195831,205.622360 295.102875,220.112106 288.869507,234.935776 
	C293.620789,237.942749 298.439331,240.992294 303.737213,244.345200 
	C310.896301,226.193588 317.804657,208.677719 324.707153,191.176712 
	C335.111267,194.441071 338.399414,194.381897 349.112396,191.175140 
	C350.153931,190.863388 351.725647,191.161240 352.639557,191.782120 
	C357.009338,194.750824 361.996674,195.444504 366.471313,193.490356 
	C372.328522,190.932419 377.767029,187.310455 383.122437,183.750275 
	C386.069305,181.791229 388.476562,179.020447 391.134674,176.608780 
	C397.475861,188.663956 408.993134,191.950470 420.223206,195.550003 
	C421.616760,195.996674 423.609985,195.434692 425.046356,194.752625 
	C439.946747,187.677048 452.150146,177.306961 461.038452,163.449265 
	C462.826416,160.661652 463.763397,154.193802 462.293671,153.063995 
	C458.530518,150.171249 454.625000,153.645248 451.518829,156.484009 
	C446.481201,161.087982 441.947418,166.353500 436.471313,170.336700 
	C430.925598,174.370499 424.659485,177.555130 418.377380,180.372391 
	C415.479675,181.671890 411.566101,181.563889 410.004669,177.416199 
	C408.416382,173.197250 410.444977,168.257019 414.234070,166.490509 
	C418.144745,164.667343 422.171448,163.046158 425.920563,160.933990 
	C432.220581,157.384689 438.024475,153.212723 440.437805,145.856720 
	C444.098480,134.698669 438.358459,126.400780 426.741119,127.136711 
	C421.988007,127.437813 416.968323,129.242081 412.783264,131.618713 
	C403.835571,136.699966 398.555786,145.168274 393.523071,153.974380 
	C386.920258,165.527740 378.153412,175.202728 364.770538,179.880127 
M607.720398,194.979858 
	C611.947449,197.989822 615.813049,197.327026 620.101501,194.603180 
	C629.304504,188.757782 636.823547,181.519119 641.057434,171.429993 
	C643.880920,171.939896 646.284973,172.374039 648.137939,172.708679 
	C649.207092,176.091385 649.271912,180.157516 651.334290,182.073364 
	C656.782410,187.134415 663.001953,191.396912 669.104614,195.708130 
	C672.247009,197.928040 675.463318,197.346741 678.867432,195.311615 
	C688.692627,189.437775 696.612793,181.903687 701.036255,171.655151 
	C704.477478,171.983353 707.519165,172.273438 710.613159,172.568512 
	C709.862854,179.052094 708.889954,185.617920 708.464294,192.219055 
	C708.330444,194.296326 709.167419,197.840317 710.435059,198.299988 
	C712.787109,199.152908 716.456116,199.168411 718.344116,197.814117 
	C720.823853,196.035370 722.449646,192.755325 723.834595,189.832748 
	C726.002869,185.257248 727.661987,180.440414 729.915771,174.772659 
	C732.482727,178.742279 734.281372,181.514023 736.070435,184.292007 
	C744.927612,198.045532 766.764160,204.162827 780.665710,186.968414 
	C786.289124,180.013092 791.266052,172.499954 796.133362,164.979340 
	C800.302307,158.537888 800.047485,158.372955 794.056519,152.787735 
	C791.634705,155.967590 789.444397,159.329605 786.770569,162.248703 
	C781.852173,167.618439 777.060547,173.232208 771.449829,177.803802 
	C765.810059,182.399078 760.468689,181.378098 755.625671,175.907883 
	C752.787842,172.702576 750.324463,169.165771 747.533752,165.573563 
	C749.988159,164.630707 751.999939,163.947891 753.938049,163.097412 
	C761.323303,159.856522 766.741699,154.821609 768.585693,146.645218 
	C770.903259,136.369141 764.165710,128.935547 754.049072,131.491516 
	C749.470398,132.648315 745.449402,136.078094 741.240356,138.585709 
	C740.213135,139.197662 739.441711,140.238922 738.552673,141.082779 
	C738.027344,140.845551 737.502075,140.608322 736.976746,140.371078 
	C743.470703,118.310600 749.964600,96.250114 756.565125,73.827644 
	C754.035767,74.235725 751.320740,74.871628 748.573914,75.072411 
	C743.990479,75.407448 741.416199,77.604492 739.367615,81.859039 
	C728.652039,104.113670 721.035339,127.406380 715.161804,151.325043 
	C713.581055,157.762039 711.663940,158.900742 704.822205,157.220154 
	C704.929688,155.612213 705.109192,153.970291 705.138306,152.325699 
	C705.395386,137.773056 691.039734,127.723785 677.708984,133.196381 
	C667.941040,137.206345 660.717163,144.127777 655.636108,153.301529 
	C653.129883,157.826447 649.459839,158.649551 644.796753,157.495270 
	C644.928894,155.301498 645.153564,153.475204 645.130310,151.652054 
	C644.950623,137.535660 631.048035,128.008514 618.037903,133.098907 
	C608.520935,136.822540 601.469421,143.436981 596.287048,152.115295 
	C594.135925,155.717575 592.201416,159.449249 590.168396,163.122086 
	C590.854309,156.004593 591.738647,148.518677 585.573914,143.906174 
	C580.236877,139.912949 573.517090,137.767761 567.665405,134.930283 
	C569.401917,133.587875 572.030640,131.852478 574.308105,129.738647 
	C580.722778,123.784698 583.989563,116.710854 581.239197,107.828804 
	C578.465332,98.871132 571.383972,95.336693 562.964172,95.024071 
	C554.705750,94.717430 546.309387,95.228951 538.130798,96.441772 
	C528.867065,97.815498 519.857422,100.588715 511.496887,105.388443 
	C512.472534,107.080582 513.055725,108.506287 513.991272,109.641693 
	C517.697021,114.139214 517.367554,118.594040 515.220520,123.858307 
	C505.817688,146.913223 496.795349,170.123260 487.618713,193.270569 
	C484.859497,200.230484 486.548645,203.154266 494.036530,203.828903 
	C497.010345,204.096848 500.035614,204.029953 503.023651,203.865265 
	C521.957336,202.821793 540.175110,198.656113 557.552979,191.020187 
	C567.220642,186.772171 576.306274,181.597763 583.246033,173.383575 
	C585.161133,171.116852 586.752319,168.576447 589.007263,165.446518 
	C589.007263,167.841919 589.138611,169.181778 588.985352,170.488220 
	C588.182617,177.329285 590.120667,182.811798 596.194031,186.677750 
	C599.969360,189.080948 603.450439,191.946442 607.720398,194.979858 
M78.390839,130.833527 
	C77.012619,135.437653 75.449966,139.995926 74.291389,144.654678 
	C71.050240,157.687714 67.521507,170.676102 65.022690,183.855850 
	C63.720043,190.726562 67.950050,194.012665 76.653999,195.736511 
	C83.546867,197.101654 82.128029,191.175278 83.858864,188.056274 
	C84.562080,186.789078 84.716316,185.210648 85.083008,183.764359 
	C87.846756,172.863693 90.601234,161.960663 93.327126,151.182831 
	C101.425926,149.726349 101.849197,149.889450 105.098816,156.820374 
	C106.221390,159.214645 107.080978,161.736313 107.992279,164.224838 
	C111.691917,174.327515 114.590454,184.813599 119.241898,194.455139 
	C125.190880,206.786224 136.323090,211.649918 149.704041,211.043808 
	C152.592377,210.912964 155.405746,209.127396 158.253647,208.104019 
	C158.357803,207.465897 158.461960,206.827789 158.566132,206.189667 
	C136.210907,192.927094 130.651520,168.724167 119.053604,148.190582 
	C120.276169,147.745468 121.033264,147.394684 121.828117,147.191833 
	C131.949600,144.608688 141.391632,140.631592 148.892319,133.116425 
	C158.183701,123.807114 161.249512,112.578300 156.880234,100.170158 
	C152.726181,88.373291 142.460434,85.546974 131.260056,84.890381 
	C117.670380,84.093704 105.035515,88.407600 92.358147,92.333801 
	C91.147835,92.708641 90.011063,94.547150 89.555786,95.940071 
	C85.844498,107.294617 82.303581,118.704849 78.390839,130.833527 
M300.747620,124.940315 
	C304.926605,126.632828 309.240967,128.640228 313.300568,125.060486 
	C315.515839,123.107079 314.314697,115.727768 311.517059,111.487411 
	C311.061493,110.796913 310.601044,110.096359 310.049011,109.485191 
	C307.900879,107.106842 299.373840,105.066711 297.710236,107.329704 
	C295.779694,109.955727 294.609680,113.976791 294.965881,117.186325 
	C295.256622,119.806320 298.277161,122.123360 300.747620,124.940315 
z"/>
<path fill="#040404" opacity="1.000000" stroke="none" 
	d="
M607.391968,194.792145 
	C603.450439,191.946442 599.969360,189.080948 596.194031,186.677750 
	C590.120667,182.811798 588.182617,177.329285 588.985352,170.488220 
	C589.138611,169.181778 589.007263,167.841919 589.007263,165.446518 
	C586.752319,168.576447 585.161133,171.116852 583.246033,173.383575 
	C576.306274,181.597763 567.220642,186.772171 557.552979,191.020187 
	C540.175110,198.656113 521.957336,202.821793 503.023651,203.865265 
	C500.035614,204.029953 497.010345,204.096848 494.036530,203.828903 
	C486.548645,203.154266 484.859497,200.230484 487.618713,193.270569 
	C496.795349,170.123260 505.817688,146.913223 515.220520,123.858307 
	C517.367554,118.594040 517.697021,114.139214 513.991272,109.641693 
	C513.055725,108.506287 512.472534,107.080582 511.496887,105.388443 
	C519.857422,100.588715 528.867065,97.815498 538.130798,96.441772 
	C546.309387,95.228951 554.705750,94.717430 562.964172,95.024071 
	C571.383972,95.336693 578.465332,98.871132 581.239197,107.828804 
	C583.989563,116.710854 580.722778,123.784698 574.308105,129.738647 
	C572.030640,131.852478 569.401917,133.587875 567.665405,134.930283 
	C573.517090,137.767761 580.236877,139.912949 585.573914,143.906174 
	C591.738647,148.518677 590.854309,156.004593 590.168396,163.122086 
	C592.201416,159.449249 594.135925,155.717575 596.287048,152.115295 
	C601.469421,143.436981 608.520935,136.822540 618.037903,133.098907 
	C631.048035,128.008514 644.950623,137.535660 645.130310,151.652054 
	C645.153564,153.475204 644.928894,155.301498 644.796753,157.495270 
	C649.459839,158.649551 653.129883,157.826447 655.636108,153.301529 
	C660.717163,144.127777 667.941040,137.206345 677.708984,133.196381 
	C691.039734,127.723785 705.395386,137.773056 705.138306,152.325699 
	C705.109192,153.970291 704.929688,155.612213 704.822205,157.220154 
	C711.663940,158.900742 713.581055,157.762039 715.161804,151.325043 
	C721.035339,127.406380 728.652039,104.113670 739.367615,81.859039 
	C741.416199,77.604492 743.990479,75.407448 748.573914,75.072411 
	C751.320740,74.871628 754.035767,74.235725 756.565125,73.827644 
	C749.964600,96.250114 743.470703,118.310600 736.976746,140.371078 
	C737.502075,140.608322 738.027344,140.845551 738.552673,141.082779 
	C739.441711,140.238922 740.213135,139.197662 741.240356,138.585709 
	C745.449402,136.078094 749.470398,132.648315 754.049072,131.491516 
	C764.165710,128.935547 770.903259,136.369141 768.585693,146.645218 
	C766.741699,154.821609 761.323303,159.856522 753.938049,163.097412 
	C751.999939,163.947891 749.988159,164.630707 747.533752,165.573563 
	C750.324463,169.165771 752.787842,172.702576 755.625671,175.907883 
	C760.468689,181.378098 765.810059,182.399078 771.449829,177.803802 
	C777.060547,173.232208 781.852173,167.618439 786.770569,162.248703 
	C789.444397,159.329605 791.634705,155.967590 794.056519,152.787735 
	C800.047485,158.372955 800.302307,158.537888 796.133362,164.979340 
	C791.266052,172.499954 786.289124,180.013092 780.665710,186.968414 
	C766.764160,204.162827 744.927612,198.045532 736.070435,184.292007 
	C734.281372,181.514023 732.482727,178.742279 729.915771,174.772659 
	C727.661987,180.440414 726.002869,185.257248 723.834595,189.832748 
	C722.449646,192.755325 720.823853,196.035370 718.344116,197.814117 
	C716.456116,199.168411 712.787109,199.152908 710.435059,198.299988 
	C709.167419,197.840317 708.330444,194.296326 708.464294,192.219055 
	C708.889954,185.617920 709.862854,179.052094 710.613159,172.568512 
	C707.519165,172.273438 704.477478,171.983353 701.036255,171.655151 
	C696.612793,181.903687 688.692627,189.437775 678.867432,195.311615 
	C675.463318,197.346741 672.247009,197.928040 669.104614,195.708130 
	C663.001953,191.396912 656.782410,187.134415 651.334290,182.073364 
	C649.271912,180.157516 649.207092,176.091385 648.137939,172.708679 
	C646.284973,172.374039 643.880920,171.939896 641.057434,171.429993 
	C636.823547,181.519119 629.304504,188.757782 620.101501,194.603180 
	C615.813049,197.327026 611.947449,197.989822 607.391968,194.792145 
M512.388977,190.204575 
	C528.125305,187.872131 543.380981,183.828323 556.637695,174.772476 
	C561.092407,171.729385 565.250549,167.157578 567.580933,162.335632 
	C571.935730,153.324646 566.539429,146.715744 556.752991,148.993591 
	C545.476562,151.618256 534.473267,155.427155 523.387207,158.838348 
	C522.471252,159.120209 521.434448,160.157883 521.121155,161.072861 
	C517.846741,170.636215 514.708740,180.246292 512.388977,190.204575 
M528.748901,132.415436 
	C528.376160,133.927246 528.003357,135.439041 527.588562,137.121124 
	C535.679993,136.119598 549.553345,130.409027 554.848389,125.888054 
	C556.343323,124.611671 557.877014,123.148804 558.746460,121.442169 
	C559.492126,119.978561 559.930237,117.772476 559.329895,116.413635 
	C558.925354,115.498024 556.391296,114.942947 554.960571,115.171257 
	C550.886597,115.821381 546.929199,117.205597 542.854370,117.845680 
	C534.817200,119.108192 529.580933,122.965103 528.748901,132.415436 
M688.798584,159.293121 
	C687.776733,156.262741 686.754883,153.232361 685.543945,149.641190 
	C684.086060,150.310852 682.303528,150.607758 681.343384,151.657135 
	C675.951416,157.550064 671.163635,163.879959 669.669922,172.002808 
	C669.396423,173.489960 669.837341,175.108475 669.948486,176.666351 
	C671.629272,176.294205 673.902100,176.487793 674.890198,175.453720 
	C679.637268,170.485855 684.037231,165.186386 688.798584,159.293121 
M625.071838,165.542557 
	C630.764282,160.812363 626.642578,155.485596 626.116821,149.688126 
	C624.500610,150.220688 622.811768,150.271362 621.952698,151.141342 
	C615.827271,157.344559 610.968140,164.360565 609.374573,173.151611 
	C609.170044,174.280258 609.459412,176.164505 610.190552,176.618271 
	C610.998230,177.119553 612.937012,176.800095 613.760193,176.102722 
	C617.515808,172.921051 621.052551,169.481064 625.071838,165.542557 
M749.429565,149.317932 
	C748.642517,149.514862 747.656616,149.479141 747.104431,149.950943 
	C745.200928,151.577286 743.419128,153.353470 741.725586,155.196274 
	C741.639221,155.290268 743.114136,157.241104 743.345459,157.140427 
	C746.005005,155.982620 748.643066,154.714462 751.058411,153.127991 
	C751.386597,152.912430 750.467224,150.797501 749.429565,149.317932 
z"/>
<path fill="#050505" opacity="1.000000" stroke="none" 
	d="
M306.542023,189.496475 
	C302.730438,192.254822 299.513153,197.581955 294.272919,195.850739 
	C287.129425,193.490723 280.154022,190.126602 273.819244,186.077850 
	C271.546265,184.625107 271.342041,179.935577 270.114655,176.502472 
	C264.198792,180.386658 257.702515,184.366913 251.508987,188.772766 
	C234.161194,201.113327 221.440582,197.529755 207.890213,179.782257 
	C201.448730,184.215469 195.106079,188.754150 188.580124,193.011841 
	C184.131393,195.914276 179.316422,196.397110 174.386490,193.944504 
	C169.490921,191.508926 164.340164,189.502640 159.696991,186.661469 
	C150.925308,181.294006 148.318207,172.898331 150.421402,163.292709 
	C153.398117,149.697418 160.957779,138.813202 172.745728,131.490845 
	C176.904388,128.907608 182.315613,127.425301 187.241516,127.180244 
	C198.023621,126.643867 203.515823,134.678192 200.412292,145.169083 
	C198.711731,150.917526 194.984772,155.148300 190.032822,158.116394 
	C184.923126,161.179016 179.498962,163.728897 174.148834,166.374573 
	C170.241852,168.306595 168.159332,173.017624 169.685135,177.210922 
	C171.317673,181.697571 175.176575,181.436996 178.437622,180.318359 
	C182.931976,178.776627 187.541809,176.899445 191.335068,174.119293 
	C200.579300,167.343994 209.191315,159.998154 214.995728,149.583359 
	C220.604630,139.519424 229.434937,132.222015 239.542328,126.701393 
	C247.631165,122.283302 255.252792,123.328697 259.923920,129.136993 
	C265.021790,135.475906 264.644867,144.242676 258.888062,151.111832 
	C257.186005,153.142761 255.276596,154.999893 253.027161,157.401047 
	C251.397522,155.232224 249.924652,153.312057 248.495987,151.359543 
	C247.035431,149.363449 245.618286,147.335617 244.210114,145.360916 
	C232.644531,151.257126 226.857086,164.778809 230.852798,175.513214 
	C232.102554,178.870667 233.527451,179.713837 237.105209,178.468750 
	C250.820602,173.695663 262.585175,165.611511 274.142181,157.173721 
	C275.593109,156.114365 276.201447,153.892426 277.181885,152.198547 
	C280.661133,146.187653 283.699646,139.860153 287.740570,134.254868 
	C291.113617,129.576035 294.192657,129.852356 297.899414,134.285568 
	C299.678131,136.412888 300.885040,139.036728 302.234253,141.499603 
	C303.604034,144.000046 303.030853,146.079636 301.788116,148.806320 
	C297.962036,157.201202 294.841675,165.923645 291.631195,174.587051 
	C291.120514,175.965103 291.559631,177.695114 291.559631,180.396774 
	C294.940918,178.120255 297.705933,176.645447 300.004974,174.637161 
	C306.523529,168.943024 312.962555,163.145523 319.181671,157.129028 
	C320.878906,155.487106 321.963196,153.036209 322.854034,150.769958 
	C325.280914,144.596298 327.587341,138.367218 329.679535,132.073044 
	C331.008636,128.074371 333.471802,126.660370 337.587341,126.932785 
	C341.993408,127.224419 346.438354,127.121284 350.858551,126.967186 
	C360.520813,126.630318 368.013000,131.416107 371.962250,140.631805 
	C377.604858,153.799225 374.820618,168.060837 364.027466,179.267548 
	C363.067169,179.938461 362.584473,180.170639 362.101807,180.402817 
	C362.190338,180.649231 362.278870,180.895645 362.367371,181.142059 
	C363.378357,180.901337 364.389313,180.660614 365.400299,180.419891 
	C378.153412,175.202728 386.920258,165.527740 393.523071,153.974380 
	C398.555786,145.168274 403.835571,136.699966 412.783264,131.618713 
	C416.968323,129.242081 421.988007,127.437813 426.741119,127.136711 
	C438.358459,126.400780 444.098480,134.698669 440.437805,145.856720 
	C438.024475,153.212723 432.220581,157.384689 425.920563,160.933990 
	C422.171448,163.046158 418.144745,164.667343 414.234070,166.490509 
	C410.444977,168.257019 408.416382,173.197250 410.004669,177.416199 
	C411.566101,181.563889 415.479675,181.671890 418.377380,180.372391 
	C424.659485,177.555130 430.925598,174.370499 436.471313,170.336700 
	C441.947418,166.353500 446.481201,161.087982 451.518829,156.484009 
	C454.625000,153.645248 458.530518,150.171249 462.293671,153.063995 
	C463.763397,154.193802 462.826416,160.661652 461.038452,163.449265 
	C452.150146,177.306961 439.946747,187.677048 425.046356,194.752625 
	C423.609985,195.434692 421.616760,195.996674 420.223206,195.550003 
	C408.993134,191.950470 397.475861,188.663956 391.134674,176.608780 
	C388.476562,179.020447 386.069305,181.791229 383.122437,183.750275 
	C377.767029,187.310455 372.328522,190.932419 366.471313,193.490356 
	C361.996674,195.444504 357.009338,194.750824 352.639557,191.782120 
	C351.725647,191.161240 350.153931,190.863388 349.112396,191.175140 
	C338.399414,194.381897 335.111267,194.441071 324.707153,191.176712 
	C317.804657,208.677719 310.896301,226.193588 303.737213,244.345200 
	C298.439331,240.992294 293.620789,237.942749 288.869507,234.935776 
	C295.102875,220.112106 301.195831,205.622360 307.557434,190.576813 
	C307.398071,189.846161 306.970062,189.671326 306.542023,189.496475 
M337.422455,177.136078 
	C350.231079,176.028320 360.142426,163.897614 357.526520,152.625259 
	C356.428070,147.891678 353.891602,145.088913 348.782867,144.636856 
	C343.769012,144.193176 340.315033,145.196289 338.920959,150.835892 
	C337.901886,154.958420 335.674469,158.774033 334.085724,162.766251 
	C332.452545,166.870255 330.940765,171.022583 329.175323,175.683212 
	C332.088867,176.258957 334.317474,176.699356 337.422455,177.136078 
M420.114685,149.839828 
	C425.293365,147.470779 428.486542,143.312775 430.977814,138.173630 
	C425.283600,138.445938 418.618958,144.501297 418.137512,149.594666 
	C418.127716,149.698196 418.952576,149.880600 420.114685,149.839828 
M180.130157,144.800797 
	C179.304886,146.431702 178.479614,148.062622 177.129013,150.731689 
	C184.471359,148.214813 188.051468,143.933167 190.785126,137.748810 
	C185.680527,138.212250 182.918015,140.879929 180.130157,144.800797 
z"/>
<path fill="#040404" opacity="1.000000" stroke="none" 
	d="
M78.550842,130.465836 
	C82.303581,118.704849 85.844498,107.294617 89.555786,95.940071 
	C90.011063,94.547150 91.147835,92.708641 92.358147,92.333801 
	C105.035515,88.407600 117.670380,84.093704 131.260056,84.890381 
	C142.460434,85.546974 152.726181,88.373291 156.880234,100.170158 
	C161.249512,112.578300 158.183701,123.807114 148.892319,133.116425 
	C141.391632,140.631592 131.949600,144.608688 121.828117,147.191833 
	C121.033264,147.394684 120.276169,147.745468 119.053604,148.190582 
	C130.651520,168.724167 136.210907,192.927094 158.566132,206.189667 
	C158.461960,206.827789 158.357803,207.465897 158.253647,208.104019 
	C155.405746,209.127396 152.592377,210.912964 149.704041,211.043808 
	C136.323090,211.649918 125.190880,206.786224 119.241898,194.455139 
	C114.590454,184.813599 111.691917,174.327515 107.992279,164.224838 
	C107.080978,161.736313 106.221390,159.214645 105.098816,156.820374 
	C101.849197,149.889450 101.425926,149.726349 93.327126,151.182831 
	C90.601234,161.960663 87.846756,172.863693 85.083008,183.764359 
	C84.716316,185.210648 84.562080,186.789078 83.858864,188.056274 
	C82.128029,191.175278 83.546867,197.101654 76.653999,195.736511 
	C67.950050,194.012665 63.720043,190.726562 65.022690,183.855850 
	C67.521507,170.676102 71.050240,157.687714 74.291389,144.654678 
	C75.449966,139.995926 77.012619,135.437653 78.550842,130.465836 
M131.246475,128.837372 
	C134.480286,126.258026 138.102966,124.035378 140.865479,121.023735 
	C146.308029,115.090340 144.669998,109.457939 136.997757,107.048447 
	C127.508224,104.068214 117.964340,104.848732 108.496750,107.335251 
	C107.616852,107.566338 106.387863,108.203117 106.159874,108.918770 
	C103.213745,118.166786 100.419884,127.463303 97.424843,137.280975 
	C109.980965,138.014496 120.506218,134.516510 131.246475,128.837372 
z"/>
<path fill="#080808" opacity="1.000000" stroke="none" 
	d="
M300.417511,124.757523 
	C298.277161,122.123360 295.256622,119.806320 294.965881,117.186325 
	C294.609680,113.976791 295.779694,109.955727 297.710236,107.329704 
	C299.373840,105.066711 307.900879,107.106842 310.049011,109.485191 
	C310.601044,110.096359 311.061493,110.796913 311.517059,111.487411 
	C314.314697,115.727768 315.515839,123.107079 313.300568,125.060486 
	C309.240967,128.640228 304.926605,126.632828 300.417511,124.757523 
z"/>
<path fill="#FBFBFB" opacity="1.000000" stroke="none" 
	d="
M511.960968,190.024002 
	C514.708740,180.246292 517.846741,170.636215 521.121155,161.072861 
	C521.434448,160.157883 522.471252,159.120209 523.387207,158.838348 
	C534.473267,155.427155 545.476562,151.618256 556.752991,148.993591 
	C566.539429,146.715744 571.935730,153.324646 567.580933,162.335632 
	C565.250549,167.157578 561.092407,171.729385 556.637695,174.772476 
	C543.380981,183.828323 528.125305,187.872131 511.960968,190.024002 
z"/>
<path fill="#F8F8F8" opacity="1.000000" stroke="none" 
	d="
M528.835449,132.002441 
	C529.580933,122.965103 534.817200,119.108192 542.854370,117.845680 
	C546.929199,117.205597 550.886597,115.821381 554.960571,115.171257 
	C556.391296,114.942947 558.925354,115.498024 559.329895,116.413635 
	C559.930237,117.772476 559.492126,119.978561 558.746460,121.442169 
	C557.877014,123.148804 556.343323,124.611671 554.848389,125.888054 
	C549.553345,130.409027 535.679993,136.119598 527.588562,137.121124 
	C528.003357,135.439041 528.376160,133.927246 528.835449,132.002441 
z"/>
<path fill="#F3F3F3" opacity="1.000000" stroke="none" 
	d="
M688.679504,159.648880 
	C684.037231,165.186386 679.637268,170.485855 674.890198,175.453720 
	C673.902100,176.487793 671.629272,176.294205 669.948486,176.666351 
	C669.837341,175.108475 669.396423,173.489960 669.669922,172.002808 
	C671.163635,163.879959 675.951416,157.550064 681.343384,151.657135 
	C682.303528,150.607758 684.086060,150.310852 685.543945,149.641190 
	C686.754883,153.232361 687.776733,156.262741 688.679504,159.648880 
z"/>
<path fill="#F4F4F4" opacity="1.000000" stroke="none" 
	d="
M624.869873,165.838242 
	C621.052551,169.481064 617.515808,172.921051 613.760193,176.102722 
	C612.937012,176.800095 610.998230,177.119553 610.190552,176.618271 
	C609.459412,176.164505 609.170044,174.280258 609.374573,173.151611 
	C610.968140,164.360565 615.827271,157.344559 621.952698,151.141342 
	C622.811768,150.271362 624.500610,150.220688 626.116821,149.688126 
	C626.642578,155.485596 630.764282,160.812363 624.869873,165.838242 
z"/>
<path fill="#ECECEC" opacity="1.000000" stroke="none" 
	d="
M749.777588,149.440002 
	C750.467224,150.797501 751.386597,152.912430 751.058411,153.127991 
	C748.643066,154.714462 746.005005,155.982620 743.345459,157.140427 
	C743.114136,157.241104 741.639221,155.290268 741.725586,155.196274 
	C743.419128,153.353470 745.200928,151.577286 747.104431,149.950943 
	C747.656616,149.479141 748.642517,149.514862 749.777588,149.440002 
z"/>
<path fill="#F9F9F9" opacity="1.000000" stroke="none" 
	d="
M336.984283,177.137909 
	C334.317474,176.699356 332.088867,176.258957 329.175323,175.683212 
	C330.940765,171.022583 332.452545,166.870255 334.085724,162.766251 
	C335.674469,158.774033 337.901886,154.958420 338.920959,150.835892 
	C340.315033,145.196289 343.769012,144.193176 348.782867,144.636856 
	C353.891602,145.088913 356.428070,147.891678 357.526520,152.625259 
	C360.142426,163.897614 350.231079,176.028320 336.984283,177.137909 
z"/>
<path fill="#E8E8E8" opacity="1.000000" stroke="none" 
	d="
M419.751343,149.933014 
	C418.952576,149.880600 418.127716,149.698196 418.137512,149.594666 
	C418.618958,144.501297 425.283600,138.445938 430.977814,138.173630 
	C428.486542,143.312775 425.293365,147.470779 419.751343,149.933014 
z"/>
<path fill="#EAEAEA" opacity="1.000000" stroke="none" 
	d="
M180.355194,144.506561 
	C182.918015,140.879929 185.680527,138.212250 190.785126,137.748810 
	C188.051468,143.933167 184.471359,148.214813 177.129013,150.731689 
	C178.479614,148.062622 179.304886,146.431702 180.355194,144.506561 
z"/>
<path fill="#FFFFFF" opacity="1.000000" stroke="none" 
	d="
M365.085419,180.150009 
	C364.389313,180.660614 363.378357,180.901337 362.367371,181.142059 
	C362.278870,180.895645 362.190338,180.649231 362.101807,180.402817 
	C362.584473,180.170639 363.067169,179.938461 363.827393,179.545746 
	C364.326813,179.550171 364.548676,179.715149 365.085419,180.150009 
z"/>
<path fill="#FFFFFF" opacity="1.000000" stroke="none" 
	d="
M306.760010,189.731583 
	C306.970062,189.671326 307.398071,189.846161 307.631470,190.217834 
	C307.283905,190.265335 307.130951,190.116013 306.760010,189.731583 
z"/>
<path fill="#FAFAFA" opacity="1.000000" stroke="none" 
	d="
M130.909821,128.985535 
	C120.506218,134.516510 109.980965,138.014496 97.424843,137.280975 
	C100.419884,127.463303 103.213745,118.166786 106.159874,108.918770 
	C106.387863,108.203117 107.616852,107.566338 108.496750,107.335251 
	C117.964340,104.848732 127.508224,104.068214 136.997757,107.048447 
	C144.669998,109.457939 146.308029,115.090340 140.865479,121.023735 
	C138.102966,124.035378 134.480286,126.258026 130.909821,128.985535 
z"/>
</svg>